G04 #@! TF.GenerationSoftware,KiCad,Pcbnew,5.1.4-e60b266~84~ubuntu19.04.1*
G04 #@! TF.CreationDate,2019-10-25T13:24:14-07:00*
G04 #@! TF.ProjectId,Wifi-FeatherWing,57696669-2d46-4656-9174-68657257696e,rev?*
G04 #@! TF.SameCoordinates,Original*
G04 #@! TF.FileFunction,Paste,Top*
G04 #@! TF.FilePolarity,Positive*
%FSLAX46Y46*%
G04 Gerber Fmt 4.6, Leading zero omitted, Abs format (unit mm)*
G04 Created by KiCad (PCBNEW 5.1.4-e60b266~84~ubuntu19.04.1) date 2019-10-25 13:24:14*
%MOMM*%
%LPD*%
G04 APERTURE LIST*
%ADD10C,0.100000*%
%ADD11R,1.900000X0.800000*%
%ADD12R,0.800000X1.900000*%
%ADD13R,3.700000X3.700000*%
%ADD14C,0.975000*%
%ADD15C,0.590000*%
G04 APERTURE END LIST*
D10*
G36*
X155071000Y-112246430D02*
G01*
X152729964Y-112246430D01*
X152729964Y-109911600D01*
X155071000Y-109911600D01*
X155071000Y-112246430D01*
G37*
D11*
X146051000Y-107481600D03*
X146051000Y-108497600D03*
X146051000Y-109513600D03*
X146051000Y-110529600D03*
X146051000Y-114593600D03*
X146051000Y-116625600D03*
X146051000Y-117641600D03*
X146051000Y-118657600D03*
X146051000Y-119673600D03*
X160781000Y-117635600D03*
X160781000Y-116619600D03*
X160781000Y-115603600D03*
X160781000Y-114587600D03*
X160781000Y-113571600D03*
X160781000Y-112555600D03*
X160781000Y-111539600D03*
X160781000Y-110523600D03*
X160781000Y-109507600D03*
X160781000Y-108491600D03*
D12*
X158881000Y-104811600D03*
X155833000Y-104811600D03*
X154817000Y-104811600D03*
X153801000Y-104811600D03*
X152785000Y-104811600D03*
X151769000Y-104811600D03*
X150753000Y-104811600D03*
X149737000Y-104811600D03*
X148721000Y-104811600D03*
D13*
X153901000Y-111081600D03*
D10*
G36*
X154531142Y-101162174D02*
G01*
X154554803Y-101165684D01*
X154578007Y-101171496D01*
X154600529Y-101179554D01*
X154622153Y-101189782D01*
X154642670Y-101202079D01*
X154661883Y-101216329D01*
X154679607Y-101232393D01*
X154695671Y-101250117D01*
X154709921Y-101269330D01*
X154722218Y-101289847D01*
X154732446Y-101311471D01*
X154740504Y-101333993D01*
X154746316Y-101357197D01*
X154749826Y-101380858D01*
X154751000Y-101404750D01*
X154751000Y-101892250D01*
X154749826Y-101916142D01*
X154746316Y-101939803D01*
X154740504Y-101963007D01*
X154732446Y-101985529D01*
X154722218Y-102007153D01*
X154709921Y-102027670D01*
X154695671Y-102046883D01*
X154679607Y-102064607D01*
X154661883Y-102080671D01*
X154642670Y-102094921D01*
X154622153Y-102107218D01*
X154600529Y-102117446D01*
X154578007Y-102125504D01*
X154554803Y-102131316D01*
X154531142Y-102134826D01*
X154507250Y-102136000D01*
X153594750Y-102136000D01*
X153570858Y-102134826D01*
X153547197Y-102131316D01*
X153523993Y-102125504D01*
X153501471Y-102117446D01*
X153479847Y-102107218D01*
X153459330Y-102094921D01*
X153440117Y-102080671D01*
X153422393Y-102064607D01*
X153406329Y-102046883D01*
X153392079Y-102027670D01*
X153379782Y-102007153D01*
X153369554Y-101985529D01*
X153361496Y-101963007D01*
X153355684Y-101939803D01*
X153352174Y-101916142D01*
X153351000Y-101892250D01*
X153351000Y-101404750D01*
X153352174Y-101380858D01*
X153355684Y-101357197D01*
X153361496Y-101333993D01*
X153369554Y-101311471D01*
X153379782Y-101289847D01*
X153392079Y-101269330D01*
X153406329Y-101250117D01*
X153422393Y-101232393D01*
X153440117Y-101216329D01*
X153459330Y-101202079D01*
X153479847Y-101189782D01*
X153501471Y-101179554D01*
X153523993Y-101171496D01*
X153547197Y-101165684D01*
X153570858Y-101162174D01*
X153594750Y-101161000D01*
X154507250Y-101161000D01*
X154531142Y-101162174D01*
X154531142Y-101162174D01*
G37*
D14*
X154051000Y-101648500D03*
D10*
G36*
X154531142Y-99287174D02*
G01*
X154554803Y-99290684D01*
X154578007Y-99296496D01*
X154600529Y-99304554D01*
X154622153Y-99314782D01*
X154642670Y-99327079D01*
X154661883Y-99341329D01*
X154679607Y-99357393D01*
X154695671Y-99375117D01*
X154709921Y-99394330D01*
X154722218Y-99414847D01*
X154732446Y-99436471D01*
X154740504Y-99458993D01*
X154746316Y-99482197D01*
X154749826Y-99505858D01*
X154751000Y-99529750D01*
X154751000Y-100017250D01*
X154749826Y-100041142D01*
X154746316Y-100064803D01*
X154740504Y-100088007D01*
X154732446Y-100110529D01*
X154722218Y-100132153D01*
X154709921Y-100152670D01*
X154695671Y-100171883D01*
X154679607Y-100189607D01*
X154661883Y-100205671D01*
X154642670Y-100219921D01*
X154622153Y-100232218D01*
X154600529Y-100242446D01*
X154578007Y-100250504D01*
X154554803Y-100256316D01*
X154531142Y-100259826D01*
X154507250Y-100261000D01*
X153594750Y-100261000D01*
X153570858Y-100259826D01*
X153547197Y-100256316D01*
X153523993Y-100250504D01*
X153501471Y-100242446D01*
X153479847Y-100232218D01*
X153459330Y-100219921D01*
X153440117Y-100205671D01*
X153422393Y-100189607D01*
X153406329Y-100171883D01*
X153392079Y-100152670D01*
X153379782Y-100132153D01*
X153369554Y-100110529D01*
X153361496Y-100088007D01*
X153355684Y-100064803D01*
X153352174Y-100041142D01*
X153351000Y-100017250D01*
X153351000Y-99529750D01*
X153352174Y-99505858D01*
X153355684Y-99482197D01*
X153361496Y-99458993D01*
X153369554Y-99436471D01*
X153379782Y-99414847D01*
X153392079Y-99394330D01*
X153406329Y-99375117D01*
X153422393Y-99357393D01*
X153440117Y-99341329D01*
X153459330Y-99327079D01*
X153479847Y-99314782D01*
X153501471Y-99304554D01*
X153523993Y-99296496D01*
X153547197Y-99290684D01*
X153570858Y-99287174D01*
X153594750Y-99286000D01*
X154507250Y-99286000D01*
X154531142Y-99287174D01*
X154531142Y-99287174D01*
G37*
D14*
X154051000Y-99773500D03*
D10*
G36*
X149019342Y-99314874D02*
G01*
X149043003Y-99318384D01*
X149066207Y-99324196D01*
X149088729Y-99332254D01*
X149110353Y-99342482D01*
X149130870Y-99354779D01*
X149150083Y-99369029D01*
X149167807Y-99385093D01*
X149183871Y-99402817D01*
X149198121Y-99422030D01*
X149210418Y-99442547D01*
X149220646Y-99464171D01*
X149228704Y-99486693D01*
X149234516Y-99509897D01*
X149238026Y-99533558D01*
X149239200Y-99557450D01*
X149239200Y-100044950D01*
X149238026Y-100068842D01*
X149234516Y-100092503D01*
X149228704Y-100115707D01*
X149220646Y-100138229D01*
X149210418Y-100159853D01*
X149198121Y-100180370D01*
X149183871Y-100199583D01*
X149167807Y-100217307D01*
X149150083Y-100233371D01*
X149130870Y-100247621D01*
X149110353Y-100259918D01*
X149088729Y-100270146D01*
X149066207Y-100278204D01*
X149043003Y-100284016D01*
X149019342Y-100287526D01*
X148995450Y-100288700D01*
X148082950Y-100288700D01*
X148059058Y-100287526D01*
X148035397Y-100284016D01*
X148012193Y-100278204D01*
X147989671Y-100270146D01*
X147968047Y-100259918D01*
X147947530Y-100247621D01*
X147928317Y-100233371D01*
X147910593Y-100217307D01*
X147894529Y-100199583D01*
X147880279Y-100180370D01*
X147867982Y-100159853D01*
X147857754Y-100138229D01*
X147849696Y-100115707D01*
X147843884Y-100092503D01*
X147840374Y-100068842D01*
X147839200Y-100044950D01*
X147839200Y-99557450D01*
X147840374Y-99533558D01*
X147843884Y-99509897D01*
X147849696Y-99486693D01*
X147857754Y-99464171D01*
X147867982Y-99442547D01*
X147880279Y-99422030D01*
X147894529Y-99402817D01*
X147910593Y-99385093D01*
X147928317Y-99369029D01*
X147947530Y-99354779D01*
X147968047Y-99342482D01*
X147989671Y-99332254D01*
X148012193Y-99324196D01*
X148035397Y-99318384D01*
X148059058Y-99314874D01*
X148082950Y-99313700D01*
X148995450Y-99313700D01*
X149019342Y-99314874D01*
X149019342Y-99314874D01*
G37*
D14*
X148539200Y-99801200D03*
D10*
G36*
X149019342Y-101189874D02*
G01*
X149043003Y-101193384D01*
X149066207Y-101199196D01*
X149088729Y-101207254D01*
X149110353Y-101217482D01*
X149130870Y-101229779D01*
X149150083Y-101244029D01*
X149167807Y-101260093D01*
X149183871Y-101277817D01*
X149198121Y-101297030D01*
X149210418Y-101317547D01*
X149220646Y-101339171D01*
X149228704Y-101361693D01*
X149234516Y-101384897D01*
X149238026Y-101408558D01*
X149239200Y-101432450D01*
X149239200Y-101919950D01*
X149238026Y-101943842D01*
X149234516Y-101967503D01*
X149228704Y-101990707D01*
X149220646Y-102013229D01*
X149210418Y-102034853D01*
X149198121Y-102055370D01*
X149183871Y-102074583D01*
X149167807Y-102092307D01*
X149150083Y-102108371D01*
X149130870Y-102122621D01*
X149110353Y-102134918D01*
X149088729Y-102145146D01*
X149066207Y-102153204D01*
X149043003Y-102159016D01*
X149019342Y-102162526D01*
X148995450Y-102163700D01*
X148082950Y-102163700D01*
X148059058Y-102162526D01*
X148035397Y-102159016D01*
X148012193Y-102153204D01*
X147989671Y-102145146D01*
X147968047Y-102134918D01*
X147947530Y-102122621D01*
X147928317Y-102108371D01*
X147910593Y-102092307D01*
X147894529Y-102074583D01*
X147880279Y-102055370D01*
X147867982Y-102034853D01*
X147857754Y-102013229D01*
X147849696Y-101990707D01*
X147843884Y-101967503D01*
X147840374Y-101943842D01*
X147839200Y-101919950D01*
X147839200Y-101432450D01*
X147840374Y-101408558D01*
X147843884Y-101384897D01*
X147849696Y-101361693D01*
X147857754Y-101339171D01*
X147867982Y-101317547D01*
X147880279Y-101297030D01*
X147894529Y-101277817D01*
X147910593Y-101260093D01*
X147928317Y-101244029D01*
X147947530Y-101229779D01*
X147968047Y-101217482D01*
X147989671Y-101207254D01*
X148012193Y-101199196D01*
X148035397Y-101193384D01*
X148059058Y-101189874D01*
X148082950Y-101188700D01*
X148995450Y-101188700D01*
X149019342Y-101189874D01*
X149019342Y-101189874D01*
G37*
D14*
X148539200Y-101676200D03*
D10*
G36*
X159382542Y-101174874D02*
G01*
X159406203Y-101178384D01*
X159429407Y-101184196D01*
X159451929Y-101192254D01*
X159473553Y-101202482D01*
X159494070Y-101214779D01*
X159513283Y-101229029D01*
X159531007Y-101245093D01*
X159547071Y-101262817D01*
X159561321Y-101282030D01*
X159573618Y-101302547D01*
X159583846Y-101324171D01*
X159591904Y-101346693D01*
X159597716Y-101369897D01*
X159601226Y-101393558D01*
X159602400Y-101417450D01*
X159602400Y-101904950D01*
X159601226Y-101928842D01*
X159597716Y-101952503D01*
X159591904Y-101975707D01*
X159583846Y-101998229D01*
X159573618Y-102019853D01*
X159561321Y-102040370D01*
X159547071Y-102059583D01*
X159531007Y-102077307D01*
X159513283Y-102093371D01*
X159494070Y-102107621D01*
X159473553Y-102119918D01*
X159451929Y-102130146D01*
X159429407Y-102138204D01*
X159406203Y-102144016D01*
X159382542Y-102147526D01*
X159358650Y-102148700D01*
X158446150Y-102148700D01*
X158422258Y-102147526D01*
X158398597Y-102144016D01*
X158375393Y-102138204D01*
X158352871Y-102130146D01*
X158331247Y-102119918D01*
X158310730Y-102107621D01*
X158291517Y-102093371D01*
X158273793Y-102077307D01*
X158257729Y-102059583D01*
X158243479Y-102040370D01*
X158231182Y-102019853D01*
X158220954Y-101998229D01*
X158212896Y-101975707D01*
X158207084Y-101952503D01*
X158203574Y-101928842D01*
X158202400Y-101904950D01*
X158202400Y-101417450D01*
X158203574Y-101393558D01*
X158207084Y-101369897D01*
X158212896Y-101346693D01*
X158220954Y-101324171D01*
X158231182Y-101302547D01*
X158243479Y-101282030D01*
X158257729Y-101262817D01*
X158273793Y-101245093D01*
X158291517Y-101229029D01*
X158310730Y-101214779D01*
X158331247Y-101202482D01*
X158352871Y-101192254D01*
X158375393Y-101184196D01*
X158398597Y-101178384D01*
X158422258Y-101174874D01*
X158446150Y-101173700D01*
X159358650Y-101173700D01*
X159382542Y-101174874D01*
X159382542Y-101174874D01*
G37*
D14*
X158902400Y-101661200D03*
D10*
G36*
X159382542Y-99299874D02*
G01*
X159406203Y-99303384D01*
X159429407Y-99309196D01*
X159451929Y-99317254D01*
X159473553Y-99327482D01*
X159494070Y-99339779D01*
X159513283Y-99354029D01*
X159531007Y-99370093D01*
X159547071Y-99387817D01*
X159561321Y-99407030D01*
X159573618Y-99427547D01*
X159583846Y-99449171D01*
X159591904Y-99471693D01*
X159597716Y-99494897D01*
X159601226Y-99518558D01*
X159602400Y-99542450D01*
X159602400Y-100029950D01*
X159601226Y-100053842D01*
X159597716Y-100077503D01*
X159591904Y-100100707D01*
X159583846Y-100123229D01*
X159573618Y-100144853D01*
X159561321Y-100165370D01*
X159547071Y-100184583D01*
X159531007Y-100202307D01*
X159513283Y-100218371D01*
X159494070Y-100232621D01*
X159473553Y-100244918D01*
X159451929Y-100255146D01*
X159429407Y-100263204D01*
X159406203Y-100269016D01*
X159382542Y-100272526D01*
X159358650Y-100273700D01*
X158446150Y-100273700D01*
X158422258Y-100272526D01*
X158398597Y-100269016D01*
X158375393Y-100263204D01*
X158352871Y-100255146D01*
X158331247Y-100244918D01*
X158310730Y-100232621D01*
X158291517Y-100218371D01*
X158273793Y-100202307D01*
X158257729Y-100184583D01*
X158243479Y-100165370D01*
X158231182Y-100144853D01*
X158220954Y-100123229D01*
X158212896Y-100100707D01*
X158207084Y-100077503D01*
X158203574Y-100053842D01*
X158202400Y-100029950D01*
X158202400Y-99542450D01*
X158203574Y-99518558D01*
X158207084Y-99494897D01*
X158212896Y-99471693D01*
X158220954Y-99449171D01*
X158231182Y-99427547D01*
X158243479Y-99407030D01*
X158257729Y-99387817D01*
X158273793Y-99370093D01*
X158291517Y-99354029D01*
X158310730Y-99339779D01*
X158331247Y-99327482D01*
X158352871Y-99317254D01*
X158375393Y-99309196D01*
X158398597Y-99303384D01*
X158422258Y-99299874D01*
X158446150Y-99298700D01*
X159358650Y-99298700D01*
X159382542Y-99299874D01*
X159382542Y-99299874D01*
G37*
D14*
X158902400Y-99786200D03*
D10*
G36*
X152650458Y-100924710D02*
G01*
X152664776Y-100926834D01*
X152678817Y-100930351D01*
X152692446Y-100935228D01*
X152705531Y-100941417D01*
X152717947Y-100948858D01*
X152729573Y-100957481D01*
X152740298Y-100967202D01*
X152750019Y-100977927D01*
X152758642Y-100989553D01*
X152766083Y-101001969D01*
X152772272Y-101015054D01*
X152777149Y-101028683D01*
X152780666Y-101042724D01*
X152782790Y-101057042D01*
X152783500Y-101071500D01*
X152783500Y-101366500D01*
X152782790Y-101380958D01*
X152780666Y-101395276D01*
X152777149Y-101409317D01*
X152772272Y-101422946D01*
X152766083Y-101436031D01*
X152758642Y-101448447D01*
X152750019Y-101460073D01*
X152740298Y-101470798D01*
X152729573Y-101480519D01*
X152717947Y-101489142D01*
X152705531Y-101496583D01*
X152692446Y-101502772D01*
X152678817Y-101507649D01*
X152664776Y-101511166D01*
X152650458Y-101513290D01*
X152636000Y-101514000D01*
X152291000Y-101514000D01*
X152276542Y-101513290D01*
X152262224Y-101511166D01*
X152248183Y-101507649D01*
X152234554Y-101502772D01*
X152221469Y-101496583D01*
X152209053Y-101489142D01*
X152197427Y-101480519D01*
X152186702Y-101470798D01*
X152176981Y-101460073D01*
X152168358Y-101448447D01*
X152160917Y-101436031D01*
X152154728Y-101422946D01*
X152149851Y-101409317D01*
X152146334Y-101395276D01*
X152144210Y-101380958D01*
X152143500Y-101366500D01*
X152143500Y-101071500D01*
X152144210Y-101057042D01*
X152146334Y-101042724D01*
X152149851Y-101028683D01*
X152154728Y-101015054D01*
X152160917Y-101001969D01*
X152168358Y-100989553D01*
X152176981Y-100977927D01*
X152186702Y-100967202D01*
X152197427Y-100957481D01*
X152209053Y-100948858D01*
X152221469Y-100941417D01*
X152234554Y-100935228D01*
X152248183Y-100930351D01*
X152262224Y-100926834D01*
X152276542Y-100924710D01*
X152291000Y-100924000D01*
X152636000Y-100924000D01*
X152650458Y-100924710D01*
X152650458Y-100924710D01*
G37*
D15*
X152463500Y-101219000D03*
D10*
G36*
X152650458Y-99954710D02*
G01*
X152664776Y-99956834D01*
X152678817Y-99960351D01*
X152692446Y-99965228D01*
X152705531Y-99971417D01*
X152717947Y-99978858D01*
X152729573Y-99987481D01*
X152740298Y-99997202D01*
X152750019Y-100007927D01*
X152758642Y-100019553D01*
X152766083Y-100031969D01*
X152772272Y-100045054D01*
X152777149Y-100058683D01*
X152780666Y-100072724D01*
X152782790Y-100087042D01*
X152783500Y-100101500D01*
X152783500Y-100396500D01*
X152782790Y-100410958D01*
X152780666Y-100425276D01*
X152777149Y-100439317D01*
X152772272Y-100452946D01*
X152766083Y-100466031D01*
X152758642Y-100478447D01*
X152750019Y-100490073D01*
X152740298Y-100500798D01*
X152729573Y-100510519D01*
X152717947Y-100519142D01*
X152705531Y-100526583D01*
X152692446Y-100532772D01*
X152678817Y-100537649D01*
X152664776Y-100541166D01*
X152650458Y-100543290D01*
X152636000Y-100544000D01*
X152291000Y-100544000D01*
X152276542Y-100543290D01*
X152262224Y-100541166D01*
X152248183Y-100537649D01*
X152234554Y-100532772D01*
X152221469Y-100526583D01*
X152209053Y-100519142D01*
X152197427Y-100510519D01*
X152186702Y-100500798D01*
X152176981Y-100490073D01*
X152168358Y-100478447D01*
X152160917Y-100466031D01*
X152154728Y-100452946D01*
X152149851Y-100439317D01*
X152146334Y-100425276D01*
X152144210Y-100410958D01*
X152143500Y-100396500D01*
X152143500Y-100101500D01*
X152144210Y-100087042D01*
X152146334Y-100072724D01*
X152149851Y-100058683D01*
X152154728Y-100045054D01*
X152160917Y-100031969D01*
X152168358Y-100019553D01*
X152176981Y-100007927D01*
X152186702Y-99997202D01*
X152197427Y-99987481D01*
X152209053Y-99978858D01*
X152221469Y-99971417D01*
X152234554Y-99965228D01*
X152248183Y-99960351D01*
X152262224Y-99956834D01*
X152276542Y-99954710D01*
X152291000Y-99954000D01*
X152636000Y-99954000D01*
X152650458Y-99954710D01*
X152650458Y-99954710D01*
G37*
D15*
X152463500Y-100249000D03*
M02*
