G04 #@! TF.GenerationSoftware,KiCad,Pcbnew,5.1.4-e60b266~84~ubuntu19.04.1*
G04 #@! TF.CreationDate,2019-10-25T13:24:14-07:00*
G04 #@! TF.ProjectId,Wifi-FeatherWing,57696669-2d46-4656-9174-68657257696e,rev?*
G04 #@! TF.SameCoordinates,Original*
G04 #@! TF.FileFunction,Soldermask,Bot*
G04 #@! TF.FilePolarity,Negative*
%FSLAX46Y46*%
G04 Gerber Fmt 4.6, Leading zero omitted, Abs format (unit mm)*
G04 Created by KiCad (PCBNEW 5.1.4-e60b266~84~ubuntu19.04.1) date 2019-10-25 13:24:14*
%MOMM*%
%LPD*%
G04 APERTURE LIST*
%ADD10O,1.700000X1.700000*%
%ADD11R,1.700000X1.700000*%
%ADD12C,2.700000*%
%ADD13C,4.300000*%
G04 APERTURE END LIST*
D10*
X163525200Y-120416320D03*
X163525200Y-117876320D03*
X163525200Y-115336320D03*
X163525200Y-112796320D03*
X163525200Y-110256320D03*
X163525200Y-107716320D03*
X163525200Y-105176320D03*
X163525200Y-102636320D03*
X163525200Y-100096320D03*
X163525200Y-97556320D03*
X163525200Y-95016320D03*
D11*
X163525200Y-92476320D03*
D12*
X144520920Y-124239020D03*
X162300920Y-124239020D03*
D11*
X143289020Y-82314560D03*
D10*
X143289020Y-84854560D03*
X143289020Y-87394560D03*
X143289020Y-89934560D03*
X143289020Y-92474560D03*
X143289020Y-95014560D03*
X143289020Y-97554560D03*
X143289020Y-100094560D03*
X143289020Y-102634560D03*
X143289020Y-105174560D03*
X143289020Y-107714560D03*
X143289020Y-110254560D03*
X143289020Y-112794560D03*
X143289020Y-115334560D03*
X143289020Y-117874560D03*
X143289020Y-120414560D03*
D13*
X144520920Y-78519020D03*
X162300920Y-78519020D03*
D11*
X159512000Y-96024700D03*
D10*
X159512000Y-93484700D03*
X159512000Y-90944700D03*
X159512000Y-88404700D03*
D11*
X147320000Y-96037400D03*
D10*
X147320000Y-93497400D03*
X147320000Y-90957400D03*
X147320000Y-88417400D03*
X147320000Y-85877400D03*
M02*
