G04 #@! TF.GenerationSoftware,KiCad,Pcbnew,5.1.4-e60b266~84~ubuntu19.04.1*
G04 #@! TF.CreationDate,2019-10-25T13:24:14-07:00*
G04 #@! TF.ProjectId,Wifi-FeatherWing,57696669-2d46-4656-9174-68657257696e,rev?*
G04 #@! TF.SameCoordinates,Original*
G04 #@! TF.FileFunction,Copper,L2,Bot*
G04 #@! TF.FilePolarity,Positive*
%FSLAX46Y46*%
G04 Gerber Fmt 4.6, Leading zero omitted, Abs format (unit mm)*
G04 Created by KiCad (PCBNEW 5.1.4-e60b266~84~ubuntu19.04.1) date 2019-10-25 13:24:14*
%MOMM*%
%LPD*%
G04 APERTURE LIST*
%ADD10O,1.700000X1.700000*%
%ADD11R,1.700000X1.700000*%
%ADD12C,4.300000*%
%ADD13C,0.800000*%
%ADD14C,0.762000*%
%ADD15C,0.685800*%
%ADD16C,0.250000*%
%ADD17C,0.228600*%
%ADD18C,0.254000*%
G04 APERTURE END LIST*
D10*
X163525200Y-120416320D03*
X163525200Y-117876320D03*
X163525200Y-115336320D03*
X163525200Y-112796320D03*
X163525200Y-110256320D03*
X163525200Y-107716320D03*
X163525200Y-105176320D03*
X163525200Y-102636320D03*
X163525200Y-100096320D03*
X163525200Y-97556320D03*
X163525200Y-95016320D03*
D11*
X163525200Y-92476320D03*
X143289020Y-82314560D03*
D10*
X143289020Y-84854560D03*
X143289020Y-87394560D03*
X143289020Y-89934560D03*
X143289020Y-92474560D03*
X143289020Y-95014560D03*
X143289020Y-97554560D03*
X143289020Y-100094560D03*
X143289020Y-102634560D03*
X143289020Y-105174560D03*
X143289020Y-107714560D03*
X143289020Y-110254560D03*
X143289020Y-112794560D03*
X143289020Y-115334560D03*
X143289020Y-117874560D03*
X143289020Y-120414560D03*
D12*
X144520920Y-78519020D03*
X162300920Y-78519020D03*
D11*
X159512000Y-96024700D03*
D10*
X159512000Y-93484700D03*
X159512000Y-90944700D03*
X159512000Y-88404700D03*
D11*
X147320000Y-96037400D03*
D10*
X147320000Y-93497400D03*
X147320000Y-90957400D03*
X147320000Y-88417400D03*
X147320000Y-85877400D03*
D13*
X149011990Y-102093960D03*
X159448500Y-115570000D03*
X153901000Y-111081600D03*
D14*
X148457920Y-98996510D03*
D15*
X148717000Y-103378000D03*
X153924000Y-108458000D03*
X156464000Y-111125000D03*
D13*
X149224992Y-106331828D03*
D15*
X158622994Y-99060000D03*
D14*
X145605500Y-100965000D03*
D15*
X154051000Y-98996500D03*
D14*
X159263080Y-117612160D03*
X157784796Y-106146600D03*
D15*
X152463484Y-101663484D03*
D13*
X150992842Y-115671600D03*
X149254377Y-114311390D03*
X146812000Y-112776000D03*
X149311360Y-107772200D03*
X157924530Y-101727000D03*
D16*
X149411989Y-102493959D02*
X149011990Y-102093960D01*
X150778630Y-103860600D02*
X149411989Y-102493959D01*
X163525200Y-105176320D02*
X162209480Y-103860600D01*
X162209480Y-103860600D02*
X150778630Y-103860600D01*
D17*
X157784796Y-106685415D02*
X157784796Y-106146600D01*
X159263080Y-117612160D02*
X157784796Y-116133876D01*
X157784796Y-116133876D02*
X157784796Y-106685415D01*
X148145500Y-97345500D02*
X152463484Y-101663484D01*
X146367500Y-97345500D02*
X148145500Y-97345500D01*
X145968720Y-96946720D02*
X146367500Y-97345500D01*
X143289020Y-84854560D02*
X145968720Y-87534260D01*
X145968720Y-87534260D02*
X145968720Y-96946720D01*
D16*
X150992842Y-115105915D02*
X150992842Y-115671600D01*
X150992842Y-108193842D02*
X150992842Y-115105915D01*
X148971000Y-107061000D02*
X149860000Y-107061000D01*
X149860000Y-107061000D02*
X150992842Y-108193842D01*
D17*
X147634960Y-107061000D02*
X148907500Y-107061000D01*
X144647920Y-104073960D02*
X147634960Y-107061000D01*
X143289020Y-100094560D02*
X144647920Y-101453460D01*
X144647920Y-101453460D02*
X144647920Y-104073960D01*
D16*
X145763232Y-110254560D02*
X149254377Y-113745705D01*
X149254377Y-113745705D02*
X149254377Y-114311390D01*
X143289020Y-110254560D02*
X145763232Y-110254560D01*
X143289020Y-112794560D02*
X146793440Y-112794560D01*
X146793440Y-112794560D02*
X146812000Y-112776000D01*
X149253720Y-107714560D02*
X149311360Y-107772200D01*
X143289020Y-107714560D02*
X149253720Y-107714560D01*
X161894520Y-101727000D02*
X158490215Y-101727000D01*
X158490215Y-101727000D02*
X157924530Y-101727000D01*
X163525200Y-100096320D02*
X161894520Y-101727000D01*
D18*
G36*
X160687502Y-76553064D02*
G01*
X160334964Y-76905602D01*
X160057977Y-77320142D01*
X159867185Y-77780755D01*
X159769920Y-78269738D01*
X159769920Y-78768302D01*
X159867185Y-79257285D01*
X160057977Y-79717898D01*
X160334964Y-80132438D01*
X160687502Y-80484976D01*
X161102042Y-80761963D01*
X161562655Y-80952755D01*
X162051638Y-81050020D01*
X162550202Y-81050020D01*
X163039185Y-80952755D01*
X163499798Y-80761963D01*
X163914338Y-80484976D01*
X164266876Y-80132438D01*
X164381360Y-79961101D01*
X164381360Y-91244084D01*
X164375200Y-91243477D01*
X162675200Y-91243477D01*
X162600511Y-91250833D01*
X162528692Y-91272619D01*
X162462504Y-91307998D01*
X162404489Y-91355609D01*
X162356878Y-91413624D01*
X162321499Y-91479812D01*
X162299713Y-91551631D01*
X162292357Y-91626320D01*
X162292357Y-93326320D01*
X162299713Y-93401009D01*
X162321499Y-93472828D01*
X162356878Y-93539016D01*
X162404489Y-93597031D01*
X162462504Y-93644642D01*
X162528692Y-93680021D01*
X162600511Y-93701807D01*
X162675200Y-93709163D01*
X164375200Y-93709163D01*
X164381360Y-93708556D01*
X164381360Y-94126478D01*
X164212416Y-93987829D01*
X163998563Y-93873522D01*
X163766518Y-93803132D01*
X163585672Y-93785320D01*
X163464728Y-93785320D01*
X163283882Y-93803132D01*
X163051837Y-93873522D01*
X162837984Y-93987829D01*
X162650540Y-94141660D01*
X162496709Y-94329104D01*
X162382402Y-94542957D01*
X162312012Y-94775002D01*
X162288244Y-95016320D01*
X162312012Y-95257638D01*
X162382402Y-95489683D01*
X162496709Y-95703536D01*
X162650540Y-95890980D01*
X162837984Y-96044811D01*
X163051837Y-96159118D01*
X163283882Y-96229508D01*
X163464728Y-96247320D01*
X163585672Y-96247320D01*
X163766518Y-96229508D01*
X163998563Y-96159118D01*
X164212416Y-96044811D01*
X164381360Y-95906162D01*
X164381360Y-96666478D01*
X164212416Y-96527829D01*
X163998563Y-96413522D01*
X163766518Y-96343132D01*
X163585672Y-96325320D01*
X163464728Y-96325320D01*
X163283882Y-96343132D01*
X163051837Y-96413522D01*
X162837984Y-96527829D01*
X162650540Y-96681660D01*
X162496709Y-96869104D01*
X162382402Y-97082957D01*
X162312012Y-97315002D01*
X162288244Y-97556320D01*
X162312012Y-97797638D01*
X162382402Y-98029683D01*
X162496709Y-98243536D01*
X162650540Y-98430980D01*
X162837984Y-98584811D01*
X163051837Y-98699118D01*
X163283882Y-98769508D01*
X163464728Y-98787320D01*
X163585672Y-98787320D01*
X163766518Y-98769508D01*
X163998563Y-98699118D01*
X164212416Y-98584811D01*
X164381360Y-98446162D01*
X164381360Y-99206478D01*
X164212416Y-99067829D01*
X163998563Y-98953522D01*
X163766518Y-98883132D01*
X163585672Y-98865320D01*
X163464728Y-98865320D01*
X163283882Y-98883132D01*
X163051837Y-98953522D01*
X162837984Y-99067829D01*
X162650540Y-99221660D01*
X162496709Y-99409104D01*
X162382402Y-99622957D01*
X162312012Y-99855002D01*
X162288244Y-100096320D01*
X162312012Y-100337638D01*
X162371659Y-100534269D01*
X161684929Y-101221000D01*
X158523031Y-101221000D01*
X158422389Y-101120358D01*
X158294472Y-101034887D01*
X158152339Y-100976013D01*
X158001452Y-100946000D01*
X157847608Y-100946000D01*
X157696721Y-100976013D01*
X157554588Y-101034887D01*
X157426671Y-101120358D01*
X157317888Y-101229141D01*
X157232417Y-101357058D01*
X157173543Y-101499191D01*
X157143530Y-101650078D01*
X157143530Y-101803922D01*
X157173543Y-101954809D01*
X157232417Y-102096942D01*
X157317888Y-102224859D01*
X157426671Y-102333642D01*
X157554588Y-102419113D01*
X157696721Y-102477987D01*
X157847608Y-102508000D01*
X158001452Y-102508000D01*
X158152339Y-102477987D01*
X158294472Y-102419113D01*
X158422389Y-102333642D01*
X158523031Y-102233000D01*
X161869674Y-102233000D01*
X161894520Y-102235447D01*
X161919366Y-102233000D01*
X161919374Y-102233000D01*
X161993713Y-102225678D01*
X162089095Y-102196745D01*
X162176999Y-102149759D01*
X162254047Y-102086527D01*
X162269896Y-102067215D01*
X163087251Y-101249861D01*
X163283882Y-101309508D01*
X163464728Y-101327320D01*
X163585672Y-101327320D01*
X163766518Y-101309508D01*
X163998563Y-101239118D01*
X164212416Y-101124811D01*
X164381360Y-100986162D01*
X164381361Y-101746478D01*
X164212416Y-101607829D01*
X163998563Y-101493522D01*
X163766518Y-101423132D01*
X163585672Y-101405320D01*
X163464728Y-101405320D01*
X163283882Y-101423132D01*
X163051837Y-101493522D01*
X162837984Y-101607829D01*
X162650540Y-101761660D01*
X162496709Y-101949104D01*
X162382402Y-102162957D01*
X162312012Y-102395002D01*
X162288244Y-102636320D01*
X162312012Y-102877638D01*
X162382402Y-103109683D01*
X162496709Y-103323536D01*
X162650540Y-103510980D01*
X162837984Y-103664811D01*
X163051837Y-103779118D01*
X163283882Y-103849508D01*
X163464728Y-103867320D01*
X163585672Y-103867320D01*
X163766518Y-103849508D01*
X163998563Y-103779118D01*
X164212416Y-103664811D01*
X164381361Y-103526162D01*
X164381361Y-104286478D01*
X164212416Y-104147829D01*
X163998563Y-104033522D01*
X163766518Y-103963132D01*
X163585672Y-103945320D01*
X163464728Y-103945320D01*
X163283882Y-103963132D01*
X163087251Y-104022779D01*
X162584856Y-103520385D01*
X162569007Y-103501073D01*
X162491959Y-103437841D01*
X162404055Y-103390855D01*
X162308673Y-103361922D01*
X162234334Y-103354600D01*
X162234326Y-103354600D01*
X162209480Y-103352153D01*
X162184634Y-103354600D01*
X150988222Y-103354600D01*
X149792990Y-102159369D01*
X149792990Y-102017038D01*
X149762977Y-101866151D01*
X149704103Y-101724018D01*
X149618632Y-101596101D01*
X149509849Y-101487318D01*
X149381932Y-101401847D01*
X149239799Y-101342973D01*
X149088912Y-101312960D01*
X148935068Y-101312960D01*
X148784181Y-101342973D01*
X148642048Y-101401847D01*
X148514131Y-101487318D01*
X148405348Y-101596101D01*
X148319877Y-101724018D01*
X148261003Y-101866151D01*
X148230990Y-102017038D01*
X148230990Y-102170882D01*
X148261003Y-102321769D01*
X148319877Y-102463902D01*
X148405348Y-102591819D01*
X148514131Y-102700602D01*
X148642048Y-102786073D01*
X148784181Y-102844947D01*
X148935068Y-102874960D01*
X149077399Y-102874960D01*
X150403258Y-104200820D01*
X150419103Y-104220127D01*
X150496151Y-104283359D01*
X150584055Y-104330345D01*
X150679436Y-104359278D01*
X150689324Y-104360252D01*
X150753776Y-104366600D01*
X150753783Y-104366600D01*
X150778629Y-104369047D01*
X150803475Y-104366600D01*
X161999889Y-104366600D01*
X162371659Y-104738371D01*
X162312012Y-104935002D01*
X162288244Y-105176320D01*
X162312012Y-105417638D01*
X162382402Y-105649683D01*
X162496709Y-105863536D01*
X162650540Y-106050980D01*
X162837984Y-106204811D01*
X163051837Y-106319118D01*
X163283882Y-106389508D01*
X163464728Y-106407320D01*
X163585672Y-106407320D01*
X163766518Y-106389508D01*
X163998563Y-106319118D01*
X164212416Y-106204811D01*
X164381361Y-106066162D01*
X164381361Y-106826478D01*
X164212416Y-106687829D01*
X163998563Y-106573522D01*
X163766518Y-106503132D01*
X163585672Y-106485320D01*
X163464728Y-106485320D01*
X163283882Y-106503132D01*
X163051837Y-106573522D01*
X162837984Y-106687829D01*
X162650540Y-106841660D01*
X162496709Y-107029104D01*
X162382402Y-107242957D01*
X162312012Y-107475002D01*
X162288244Y-107716320D01*
X162312012Y-107957638D01*
X162382402Y-108189683D01*
X162496709Y-108403536D01*
X162650540Y-108590980D01*
X162837984Y-108744811D01*
X163051837Y-108859118D01*
X163283882Y-108929508D01*
X163464728Y-108947320D01*
X163585672Y-108947320D01*
X163766518Y-108929508D01*
X163998563Y-108859118D01*
X164212416Y-108744811D01*
X164381361Y-108606162D01*
X164381361Y-109366478D01*
X164212416Y-109227829D01*
X163998563Y-109113522D01*
X163766518Y-109043132D01*
X163585672Y-109025320D01*
X163464728Y-109025320D01*
X163283882Y-109043132D01*
X163051837Y-109113522D01*
X162837984Y-109227829D01*
X162650540Y-109381660D01*
X162496709Y-109569104D01*
X162382402Y-109782957D01*
X162312012Y-110015002D01*
X162288244Y-110256320D01*
X162312012Y-110497638D01*
X162382402Y-110729683D01*
X162496709Y-110943536D01*
X162650540Y-111130980D01*
X162837984Y-111284811D01*
X163051837Y-111399118D01*
X163283882Y-111469508D01*
X163464728Y-111487320D01*
X163585672Y-111487320D01*
X163766518Y-111469508D01*
X163998563Y-111399118D01*
X164212416Y-111284811D01*
X164381361Y-111146162D01*
X164381361Y-111906478D01*
X164212416Y-111767829D01*
X163998563Y-111653522D01*
X163766518Y-111583132D01*
X163585672Y-111565320D01*
X163464728Y-111565320D01*
X163283882Y-111583132D01*
X163051837Y-111653522D01*
X162837984Y-111767829D01*
X162650540Y-111921660D01*
X162496709Y-112109104D01*
X162382402Y-112322957D01*
X162312012Y-112555002D01*
X162288244Y-112796320D01*
X162312012Y-113037638D01*
X162382402Y-113269683D01*
X162496709Y-113483536D01*
X162650540Y-113670980D01*
X162837984Y-113824811D01*
X163051837Y-113939118D01*
X163283882Y-114009508D01*
X163464728Y-114027320D01*
X163585672Y-114027320D01*
X163766518Y-114009508D01*
X163998563Y-113939118D01*
X164212416Y-113824811D01*
X164381361Y-113686162D01*
X164381361Y-114446478D01*
X164212416Y-114307829D01*
X163998563Y-114193522D01*
X163766518Y-114123132D01*
X163585672Y-114105320D01*
X163464728Y-114105320D01*
X163283882Y-114123132D01*
X163051837Y-114193522D01*
X162837984Y-114307829D01*
X162650540Y-114461660D01*
X162496709Y-114649104D01*
X162382402Y-114862957D01*
X162312012Y-115095002D01*
X162288244Y-115336320D01*
X162312012Y-115577638D01*
X162382402Y-115809683D01*
X162496709Y-116023536D01*
X162650540Y-116210980D01*
X162837984Y-116364811D01*
X163051837Y-116479118D01*
X163283882Y-116549508D01*
X163464728Y-116567320D01*
X163585672Y-116567320D01*
X163766518Y-116549508D01*
X163998563Y-116479118D01*
X164212416Y-116364811D01*
X164381361Y-116226162D01*
X164381361Y-116986478D01*
X164212416Y-116847829D01*
X163998563Y-116733522D01*
X163766518Y-116663132D01*
X163585672Y-116645320D01*
X163464728Y-116645320D01*
X163283882Y-116663132D01*
X163051837Y-116733522D01*
X162837984Y-116847829D01*
X162650540Y-117001660D01*
X162496709Y-117189104D01*
X162382402Y-117402957D01*
X162312012Y-117635002D01*
X162288244Y-117876320D01*
X162312012Y-118117638D01*
X162382402Y-118349683D01*
X162496709Y-118563536D01*
X162650540Y-118750980D01*
X162837984Y-118904811D01*
X163051837Y-119019118D01*
X163283882Y-119089508D01*
X163464728Y-119107320D01*
X163585672Y-119107320D01*
X163766518Y-119089508D01*
X163998563Y-119019118D01*
X164212416Y-118904811D01*
X164381361Y-118766162D01*
X164381361Y-119526478D01*
X164212416Y-119387829D01*
X163998563Y-119273522D01*
X163766518Y-119203132D01*
X163585672Y-119185320D01*
X163464728Y-119185320D01*
X163283882Y-119203132D01*
X163051837Y-119273522D01*
X162837984Y-119387829D01*
X162650540Y-119541660D01*
X162496709Y-119729104D01*
X162382402Y-119942957D01*
X162312012Y-120175002D01*
X162288244Y-120416320D01*
X162312012Y-120657638D01*
X162382402Y-120889683D01*
X162496709Y-121103536D01*
X162650540Y-121290980D01*
X162837984Y-121444811D01*
X163051837Y-121559118D01*
X163283882Y-121629508D01*
X163464728Y-121647320D01*
X163585672Y-121647320D01*
X163766518Y-121629508D01*
X163998563Y-121559118D01*
X164212416Y-121444811D01*
X164381361Y-121306162D01*
X164381361Y-124202244D01*
X164339525Y-124628919D01*
X164222092Y-125017879D01*
X164031347Y-125376618D01*
X163774553Y-125691478D01*
X163461498Y-125950459D01*
X163104094Y-126143707D01*
X162715966Y-126263853D01*
X162290604Y-126308560D01*
X161925000Y-126308560D01*
X161925000Y-125929157D01*
X162130431Y-125970020D01*
X162471409Y-125970020D01*
X162805834Y-125903499D01*
X163120856Y-125773013D01*
X163404368Y-125583576D01*
X163645476Y-125342468D01*
X163834913Y-125058956D01*
X163965399Y-124743934D01*
X164031920Y-124409509D01*
X164031920Y-124068531D01*
X163965399Y-123734106D01*
X163834913Y-123419084D01*
X163645476Y-123135572D01*
X163404368Y-122894464D01*
X163120856Y-122705027D01*
X162805834Y-122574541D01*
X162471409Y-122508020D01*
X162130431Y-122508020D01*
X161925000Y-122548883D01*
X161925000Y-120650000D01*
X161922560Y-120625224D01*
X161915333Y-120601399D01*
X161903597Y-120579443D01*
X161887803Y-120560197D01*
X161868557Y-120544403D01*
X161846601Y-120532667D01*
X161822776Y-120525440D01*
X161798000Y-120523000D01*
X145034000Y-120523000D01*
X145009224Y-120525440D01*
X144985399Y-120532667D01*
X144963443Y-120544403D01*
X144944197Y-120560197D01*
X144928403Y-120579443D01*
X144916667Y-120601399D01*
X144909440Y-120625224D01*
X144907000Y-120650000D01*
X144907000Y-122550904D01*
X144691409Y-122508020D01*
X144350431Y-122508020D01*
X144016006Y-122574541D01*
X143700984Y-122705027D01*
X143417472Y-122894464D01*
X143176364Y-123135572D01*
X142986927Y-123419084D01*
X142856441Y-123734106D01*
X142789920Y-124068531D01*
X142789920Y-124409509D01*
X142856441Y-124743934D01*
X142986927Y-125058956D01*
X143176364Y-125342468D01*
X143417472Y-125583576D01*
X143700984Y-125773013D01*
X144016006Y-125903499D01*
X144350431Y-125970020D01*
X144691409Y-125970020D01*
X144907000Y-125927136D01*
X144907000Y-126308560D01*
X144539665Y-126308560D01*
X144113001Y-126266725D01*
X143724041Y-126149292D01*
X143365302Y-125958547D01*
X143050442Y-125701753D01*
X142791461Y-125388698D01*
X142598213Y-125031294D01*
X142478067Y-124643166D01*
X142433360Y-124217804D01*
X142433360Y-121625044D01*
X142657768Y-121758717D01*
X142932129Y-121856041D01*
X143162020Y-121735374D01*
X143162020Y-120541560D01*
X143416020Y-120541560D01*
X143416020Y-121735374D01*
X143645911Y-121856041D01*
X143920272Y-121758717D01*
X144170375Y-121609738D01*
X144386608Y-121414829D01*
X144560661Y-121181480D01*
X144685845Y-120918659D01*
X144730496Y-120771450D01*
X144609175Y-120541560D01*
X143416020Y-120541560D01*
X143162020Y-120541560D01*
X143142020Y-120541560D01*
X143142020Y-120287560D01*
X143162020Y-120287560D01*
X143162020Y-120267560D01*
X143416020Y-120267560D01*
X143416020Y-120287560D01*
X144609175Y-120287560D01*
X144730496Y-120057670D01*
X144685845Y-119910461D01*
X144560661Y-119647640D01*
X144386608Y-119414291D01*
X144170375Y-119219382D01*
X143920272Y-119070403D01*
X143765715Y-119015577D01*
X143976236Y-118903051D01*
X144163680Y-118749220D01*
X144317511Y-118561776D01*
X144431818Y-118347923D01*
X144502208Y-118115878D01*
X144525976Y-117874560D01*
X144502208Y-117633242D01*
X144431818Y-117401197D01*
X144317511Y-117187344D01*
X144163680Y-116999900D01*
X143976236Y-116846069D01*
X143762383Y-116731762D01*
X143530338Y-116661372D01*
X143349492Y-116643560D01*
X143228548Y-116643560D01*
X143047702Y-116661372D01*
X142815657Y-116731762D01*
X142601804Y-116846069D01*
X142433360Y-116984307D01*
X142433360Y-116224813D01*
X142601804Y-116363051D01*
X142815657Y-116477358D01*
X143047702Y-116547748D01*
X143228548Y-116565560D01*
X143349492Y-116565560D01*
X143530338Y-116547748D01*
X143762383Y-116477358D01*
X143976236Y-116363051D01*
X144163680Y-116209220D01*
X144317511Y-116021776D01*
X144431818Y-115807923D01*
X144502208Y-115575878D01*
X144525976Y-115334560D01*
X144502208Y-115093242D01*
X144431818Y-114861197D01*
X144317511Y-114647344D01*
X144163680Y-114459900D01*
X143976236Y-114306069D01*
X143762383Y-114191762D01*
X143530338Y-114121372D01*
X143349492Y-114103560D01*
X143228548Y-114103560D01*
X143047702Y-114121372D01*
X142815657Y-114191762D01*
X142601804Y-114306069D01*
X142433360Y-114444307D01*
X142433360Y-113684813D01*
X142601804Y-113823051D01*
X142815657Y-113937358D01*
X143047702Y-114007748D01*
X143228548Y-114025560D01*
X143349492Y-114025560D01*
X143530338Y-114007748D01*
X143762383Y-113937358D01*
X143976236Y-113823051D01*
X144163680Y-113669220D01*
X144317511Y-113481776D01*
X144414373Y-113300560D01*
X146232059Y-113300560D01*
X146314141Y-113382642D01*
X146442058Y-113468113D01*
X146584191Y-113526987D01*
X146735078Y-113557000D01*
X146888922Y-113557000D01*
X147039809Y-113526987D01*
X147181942Y-113468113D01*
X147309859Y-113382642D01*
X147418642Y-113273859D01*
X147504113Y-113145942D01*
X147562987Y-113003809D01*
X147593000Y-112852922D01*
X147593000Y-112799920D01*
X148631263Y-113838183D01*
X148562264Y-113941448D01*
X148503390Y-114083581D01*
X148473377Y-114234468D01*
X148473377Y-114388312D01*
X148503390Y-114539199D01*
X148562264Y-114681332D01*
X148647735Y-114809249D01*
X148756518Y-114918032D01*
X148884435Y-115003503D01*
X149026568Y-115062377D01*
X149177455Y-115092390D01*
X149331299Y-115092390D01*
X149482186Y-115062377D01*
X149624319Y-115003503D01*
X149752236Y-114918032D01*
X149861019Y-114809249D01*
X149946490Y-114681332D01*
X150005364Y-114539199D01*
X150035377Y-114388312D01*
X150035377Y-114234468D01*
X150005364Y-114083581D01*
X149946490Y-113941448D01*
X149861019Y-113813531D01*
X149759507Y-113712019D01*
X149753055Y-113646512D01*
X149724122Y-113551130D01*
X149711217Y-113526987D01*
X149677136Y-113463226D01*
X149613904Y-113386178D01*
X149594597Y-113370333D01*
X146138608Y-109914345D01*
X146122759Y-109895033D01*
X146045711Y-109831801D01*
X145957807Y-109784815D01*
X145862425Y-109755882D01*
X145788086Y-109748560D01*
X145788078Y-109748560D01*
X145763232Y-109746113D01*
X145738386Y-109748560D01*
X144414373Y-109748560D01*
X144317511Y-109567344D01*
X144163680Y-109379900D01*
X143976236Y-109226069D01*
X143762383Y-109111762D01*
X143530338Y-109041372D01*
X143349492Y-109023560D01*
X143228548Y-109023560D01*
X143047702Y-109041372D01*
X142815657Y-109111762D01*
X142601804Y-109226069D01*
X142433360Y-109364307D01*
X142433360Y-108604813D01*
X142601804Y-108743051D01*
X142815657Y-108857358D01*
X143047702Y-108927748D01*
X143228548Y-108945560D01*
X143349492Y-108945560D01*
X143530338Y-108927748D01*
X143762383Y-108857358D01*
X143976236Y-108743051D01*
X144163680Y-108589220D01*
X144317511Y-108401776D01*
X144414373Y-108220560D01*
X148671644Y-108220560D01*
X148704718Y-108270059D01*
X148813501Y-108378842D01*
X148941418Y-108464313D01*
X149083551Y-108523187D01*
X149234438Y-108553200D01*
X149388282Y-108553200D01*
X149539169Y-108523187D01*
X149681302Y-108464313D01*
X149809219Y-108378842D01*
X149918002Y-108270059D01*
X150003473Y-108142142D01*
X150062347Y-108000009D01*
X150065843Y-107982434D01*
X150486842Y-108403434D01*
X150486843Y-115073098D01*
X150386200Y-115173741D01*
X150300729Y-115301658D01*
X150241855Y-115443791D01*
X150211842Y-115594678D01*
X150211842Y-115748522D01*
X150241855Y-115899409D01*
X150300729Y-116041542D01*
X150386200Y-116169459D01*
X150494983Y-116278242D01*
X150622900Y-116363713D01*
X150765033Y-116422587D01*
X150915920Y-116452600D01*
X151069764Y-116452600D01*
X151220651Y-116422587D01*
X151362784Y-116363713D01*
X151490701Y-116278242D01*
X151599484Y-116169459D01*
X151684955Y-116041542D01*
X151743829Y-115899409D01*
X151773842Y-115748522D01*
X151773842Y-115594678D01*
X151743829Y-115443791D01*
X151684955Y-115301658D01*
X151599484Y-115173741D01*
X151498842Y-115073099D01*
X151498842Y-108218696D01*
X151501290Y-108193842D01*
X151491520Y-108094649D01*
X151462587Y-107999267D01*
X151445219Y-107966774D01*
X151415601Y-107911363D01*
X151352369Y-107834315D01*
X151333062Y-107818470D01*
X150235376Y-106720785D01*
X150219527Y-106701473D01*
X150142479Y-106638241D01*
X150054575Y-106591255D01*
X149959193Y-106562322D01*
X149884854Y-106555000D01*
X149884846Y-106555000D01*
X149860000Y-106552553D01*
X149835154Y-106555000D01*
X148946146Y-106555000D01*
X148871807Y-106562322D01*
X148860671Y-106565700D01*
X147840120Y-106565700D01*
X147345970Y-106071550D01*
X157022796Y-106071550D01*
X157022796Y-106221650D01*
X157052079Y-106368867D01*
X157109520Y-106507542D01*
X157192912Y-106632347D01*
X157289497Y-106728932D01*
X157289496Y-116109559D01*
X157287101Y-116133876D01*
X157289496Y-116158193D01*
X157289496Y-116158202D01*
X157296663Y-116230971D01*
X157324985Y-116324335D01*
X157370977Y-116410381D01*
X157432872Y-116485800D01*
X157451771Y-116501310D01*
X158501080Y-117550620D01*
X158501080Y-117687210D01*
X158530363Y-117834427D01*
X158587804Y-117973102D01*
X158671196Y-118097907D01*
X158777333Y-118204044D01*
X158902138Y-118287436D01*
X159040813Y-118344877D01*
X159188030Y-118374160D01*
X159338130Y-118374160D01*
X159485347Y-118344877D01*
X159624022Y-118287436D01*
X159748827Y-118204044D01*
X159854964Y-118097907D01*
X159938356Y-117973102D01*
X159995797Y-117834427D01*
X160025080Y-117687210D01*
X160025080Y-117537110D01*
X159995797Y-117389893D01*
X159938356Y-117251218D01*
X159854964Y-117126413D01*
X159748827Y-117020276D01*
X159624022Y-116936884D01*
X159485347Y-116879443D01*
X159338130Y-116850160D01*
X159201540Y-116850160D01*
X158280096Y-115928717D01*
X158280096Y-106728931D01*
X158376680Y-106632347D01*
X158460072Y-106507542D01*
X158517513Y-106368867D01*
X158546796Y-106221650D01*
X158546796Y-106071550D01*
X158517513Y-105924333D01*
X158460072Y-105785658D01*
X158376680Y-105660853D01*
X158270543Y-105554716D01*
X158145738Y-105471324D01*
X158007063Y-105413883D01*
X157859846Y-105384600D01*
X157709746Y-105384600D01*
X157562529Y-105413883D01*
X157423854Y-105471324D01*
X157299049Y-105554716D01*
X157192912Y-105660853D01*
X157109520Y-105785658D01*
X157052079Y-105924333D01*
X157022796Y-106071550D01*
X147345970Y-106071550D01*
X145143220Y-103868801D01*
X145143220Y-101477777D01*
X145145615Y-101453460D01*
X145143220Y-101429143D01*
X145143220Y-101429133D01*
X145136053Y-101356364D01*
X145107731Y-101263000D01*
X145061739Y-101176955D01*
X145015351Y-101120431D01*
X145015350Y-101120430D01*
X144999844Y-101101536D01*
X144980950Y-101086030D01*
X144439039Y-100544119D01*
X144502208Y-100335878D01*
X144525976Y-100094560D01*
X144502208Y-99853242D01*
X144431818Y-99621197D01*
X144317511Y-99407344D01*
X144163680Y-99219900D01*
X143976236Y-99066069D01*
X143762383Y-98951762D01*
X143530338Y-98881372D01*
X143349492Y-98863560D01*
X143228548Y-98863560D01*
X143047702Y-98881372D01*
X142815657Y-98951762D01*
X142601804Y-99066069D01*
X142433360Y-99204307D01*
X142433360Y-98444813D01*
X142601804Y-98583051D01*
X142815657Y-98697358D01*
X143047702Y-98767748D01*
X143228548Y-98785560D01*
X143349492Y-98785560D01*
X143530338Y-98767748D01*
X143762383Y-98697358D01*
X143976236Y-98583051D01*
X144163680Y-98429220D01*
X144317511Y-98241776D01*
X144431818Y-98027923D01*
X144502208Y-97795878D01*
X144525976Y-97554560D01*
X144502208Y-97313242D01*
X144431818Y-97081197D01*
X144317511Y-96867344D01*
X144163680Y-96679900D01*
X143976236Y-96526069D01*
X143762383Y-96411762D01*
X143530338Y-96341372D01*
X143349492Y-96323560D01*
X143228548Y-96323560D01*
X143047702Y-96341372D01*
X142815657Y-96411762D01*
X142601804Y-96526069D01*
X142433360Y-96664307D01*
X142433360Y-95904813D01*
X142601804Y-96043051D01*
X142815657Y-96157358D01*
X143047702Y-96227748D01*
X143228548Y-96245560D01*
X143349492Y-96245560D01*
X143530338Y-96227748D01*
X143762383Y-96157358D01*
X143976236Y-96043051D01*
X144163680Y-95889220D01*
X144317511Y-95701776D01*
X144431818Y-95487923D01*
X144502208Y-95255878D01*
X144525976Y-95014560D01*
X144502208Y-94773242D01*
X144431818Y-94541197D01*
X144317511Y-94327344D01*
X144163680Y-94139900D01*
X143976236Y-93986069D01*
X143762383Y-93871762D01*
X143530338Y-93801372D01*
X143349492Y-93783560D01*
X143228548Y-93783560D01*
X143047702Y-93801372D01*
X142815657Y-93871762D01*
X142601804Y-93986069D01*
X142433360Y-94124307D01*
X142433360Y-93364813D01*
X142601804Y-93503051D01*
X142815657Y-93617358D01*
X143047702Y-93687748D01*
X143228548Y-93705560D01*
X143349492Y-93705560D01*
X143530338Y-93687748D01*
X143762383Y-93617358D01*
X143976236Y-93503051D01*
X144163680Y-93349220D01*
X144317511Y-93161776D01*
X144431818Y-92947923D01*
X144502208Y-92715878D01*
X144525976Y-92474560D01*
X144502208Y-92233242D01*
X144431818Y-92001197D01*
X144317511Y-91787344D01*
X144163680Y-91599900D01*
X143976236Y-91446069D01*
X143765715Y-91333543D01*
X143920272Y-91278717D01*
X144170375Y-91129738D01*
X144386608Y-90934829D01*
X144560661Y-90701480D01*
X144685845Y-90438659D01*
X144730496Y-90291450D01*
X144609175Y-90061560D01*
X143416020Y-90061560D01*
X143416020Y-90081560D01*
X143162020Y-90081560D01*
X143162020Y-90061560D01*
X143142020Y-90061560D01*
X143142020Y-89807560D01*
X143162020Y-89807560D01*
X143162020Y-89787560D01*
X143416020Y-89787560D01*
X143416020Y-89807560D01*
X144609175Y-89807560D01*
X144730496Y-89577670D01*
X144685845Y-89430461D01*
X144560661Y-89167640D01*
X144386608Y-88934291D01*
X144170375Y-88739382D01*
X143920272Y-88590403D01*
X143765715Y-88535577D01*
X143976236Y-88423051D01*
X144163680Y-88269220D01*
X144317511Y-88081776D01*
X144431818Y-87867923D01*
X144502208Y-87635878D01*
X144525976Y-87394560D01*
X144502208Y-87153242D01*
X144431818Y-86921197D01*
X144317511Y-86707344D01*
X144163680Y-86519900D01*
X143976236Y-86366069D01*
X143762383Y-86251762D01*
X143530338Y-86181372D01*
X143349492Y-86163560D01*
X143228548Y-86163560D01*
X143047702Y-86181372D01*
X142815657Y-86251762D01*
X142601804Y-86366069D01*
X142433360Y-86504307D01*
X142433360Y-85744813D01*
X142601804Y-85883051D01*
X142815657Y-85997358D01*
X143047702Y-86067748D01*
X143228548Y-86085560D01*
X143349492Y-86085560D01*
X143530338Y-86067748D01*
X143738579Y-86004579D01*
X145473420Y-87739420D01*
X145473421Y-96922393D01*
X145471025Y-96946720D01*
X145480588Y-97043815D01*
X145508909Y-97137179D01*
X145554901Y-97223224D01*
X145593489Y-97270243D01*
X145616797Y-97298644D01*
X145635690Y-97314149D01*
X146000068Y-97678528D01*
X146015576Y-97697424D01*
X146090995Y-97759319D01*
X146177040Y-97805311D01*
X146270404Y-97833633D01*
X146343173Y-97840800D01*
X146343182Y-97840800D01*
X146367499Y-97843195D01*
X146391816Y-97840800D01*
X147940341Y-97840800D01*
X151739584Y-101640044D01*
X151739584Y-101734782D01*
X151767403Y-101874638D01*
X151821972Y-102006379D01*
X151901194Y-102124944D01*
X152002024Y-102225774D01*
X152120589Y-102304996D01*
X152252330Y-102359565D01*
X152392186Y-102387384D01*
X152534782Y-102387384D01*
X152674638Y-102359565D01*
X152806379Y-102304996D01*
X152924944Y-102225774D01*
X153025774Y-102124944D01*
X153104996Y-102006379D01*
X153159565Y-101874638D01*
X153187384Y-101734782D01*
X153187384Y-101592186D01*
X153159565Y-101452330D01*
X153104996Y-101320589D01*
X153025774Y-101202024D01*
X152924944Y-101101194D01*
X152806379Y-101021972D01*
X152674638Y-100967403D01*
X152534782Y-100939584D01*
X152440044Y-100939584D01*
X148526183Y-97025724D01*
X148545487Y-96962089D01*
X148552843Y-96887400D01*
X148552843Y-95187400D01*
X148551593Y-95174700D01*
X158279157Y-95174700D01*
X158279157Y-96874700D01*
X158286513Y-96949389D01*
X158308299Y-97021208D01*
X158343678Y-97087396D01*
X158391289Y-97145411D01*
X158449304Y-97193022D01*
X158515492Y-97228401D01*
X158587311Y-97250187D01*
X158662000Y-97257543D01*
X160362000Y-97257543D01*
X160436689Y-97250187D01*
X160508508Y-97228401D01*
X160574696Y-97193022D01*
X160632711Y-97145411D01*
X160680322Y-97087396D01*
X160715701Y-97021208D01*
X160737487Y-96949389D01*
X160744843Y-96874700D01*
X160744843Y-95174700D01*
X160737487Y-95100011D01*
X160715701Y-95028192D01*
X160680322Y-94962004D01*
X160632711Y-94903989D01*
X160574696Y-94856378D01*
X160508508Y-94820999D01*
X160436689Y-94799213D01*
X160362000Y-94791857D01*
X158662000Y-94791857D01*
X158587311Y-94799213D01*
X158515492Y-94820999D01*
X158449304Y-94856378D01*
X158391289Y-94903989D01*
X158343678Y-94962004D01*
X158308299Y-95028192D01*
X158286513Y-95100011D01*
X158279157Y-95174700D01*
X148551593Y-95174700D01*
X148545487Y-95112711D01*
X148523701Y-95040892D01*
X148488322Y-94974704D01*
X148440711Y-94916689D01*
X148382696Y-94869078D01*
X148316508Y-94833699D01*
X148244689Y-94811913D01*
X148170000Y-94804557D01*
X146470000Y-94804557D01*
X146464020Y-94805146D01*
X146464020Y-94387390D01*
X146632784Y-94525891D01*
X146846637Y-94640198D01*
X147078682Y-94710588D01*
X147259528Y-94728400D01*
X147380472Y-94728400D01*
X147561318Y-94710588D01*
X147793363Y-94640198D01*
X148007216Y-94525891D01*
X148194660Y-94372060D01*
X148348491Y-94184616D01*
X148462798Y-93970763D01*
X148533188Y-93738718D01*
X148556956Y-93497400D01*
X148555706Y-93484700D01*
X158275044Y-93484700D01*
X158298812Y-93726018D01*
X158369202Y-93958063D01*
X158483509Y-94171916D01*
X158637340Y-94359360D01*
X158824784Y-94513191D01*
X159038637Y-94627498D01*
X159270682Y-94697888D01*
X159451528Y-94715700D01*
X159572472Y-94715700D01*
X159753318Y-94697888D01*
X159985363Y-94627498D01*
X160199216Y-94513191D01*
X160386660Y-94359360D01*
X160540491Y-94171916D01*
X160654798Y-93958063D01*
X160725188Y-93726018D01*
X160748956Y-93484700D01*
X160725188Y-93243382D01*
X160654798Y-93011337D01*
X160540491Y-92797484D01*
X160386660Y-92610040D01*
X160199216Y-92456209D01*
X159985363Y-92341902D01*
X159753318Y-92271512D01*
X159572472Y-92253700D01*
X159451528Y-92253700D01*
X159270682Y-92271512D01*
X159038637Y-92341902D01*
X158824784Y-92456209D01*
X158637340Y-92610040D01*
X158483509Y-92797484D01*
X158369202Y-93011337D01*
X158298812Y-93243382D01*
X158275044Y-93484700D01*
X148555706Y-93484700D01*
X148533188Y-93256082D01*
X148462798Y-93024037D01*
X148348491Y-92810184D01*
X148194660Y-92622740D01*
X148007216Y-92468909D01*
X147793363Y-92354602D01*
X147561318Y-92284212D01*
X147380472Y-92266400D01*
X147259528Y-92266400D01*
X147078682Y-92284212D01*
X146846637Y-92354602D01*
X146632784Y-92468909D01*
X146464020Y-92607410D01*
X146464020Y-91847390D01*
X146632784Y-91985891D01*
X146846637Y-92100198D01*
X147078682Y-92170588D01*
X147259528Y-92188400D01*
X147380472Y-92188400D01*
X147561318Y-92170588D01*
X147793363Y-92100198D01*
X148007216Y-91985891D01*
X148194660Y-91832060D01*
X148348491Y-91644616D01*
X148462798Y-91430763D01*
X148533188Y-91198718D01*
X148556956Y-90957400D01*
X148555706Y-90944700D01*
X158275044Y-90944700D01*
X158298812Y-91186018D01*
X158369202Y-91418063D01*
X158483509Y-91631916D01*
X158637340Y-91819360D01*
X158824784Y-91973191D01*
X159038637Y-92087498D01*
X159270682Y-92157888D01*
X159451528Y-92175700D01*
X159572472Y-92175700D01*
X159753318Y-92157888D01*
X159985363Y-92087498D01*
X160199216Y-91973191D01*
X160386660Y-91819360D01*
X160540491Y-91631916D01*
X160654798Y-91418063D01*
X160725188Y-91186018D01*
X160748956Y-90944700D01*
X160725188Y-90703382D01*
X160654798Y-90471337D01*
X160540491Y-90257484D01*
X160386660Y-90070040D01*
X160199216Y-89916209D01*
X159985363Y-89801902D01*
X159753318Y-89731512D01*
X159572472Y-89713700D01*
X159451528Y-89713700D01*
X159270682Y-89731512D01*
X159038637Y-89801902D01*
X158824784Y-89916209D01*
X158637340Y-90070040D01*
X158483509Y-90257484D01*
X158369202Y-90471337D01*
X158298812Y-90703382D01*
X158275044Y-90944700D01*
X148555706Y-90944700D01*
X148533188Y-90716082D01*
X148462798Y-90484037D01*
X148348491Y-90270184D01*
X148194660Y-90082740D01*
X148007216Y-89928909D01*
X147793363Y-89814602D01*
X147561318Y-89744212D01*
X147380472Y-89726400D01*
X147259528Y-89726400D01*
X147078682Y-89744212D01*
X146846637Y-89814602D01*
X146632784Y-89928909D01*
X146464020Y-90067410D01*
X146464020Y-89307390D01*
X146632784Y-89445891D01*
X146846637Y-89560198D01*
X147078682Y-89630588D01*
X147259528Y-89648400D01*
X147380472Y-89648400D01*
X147561318Y-89630588D01*
X147793363Y-89560198D01*
X148007216Y-89445891D01*
X148194660Y-89292060D01*
X148348491Y-89104616D01*
X148462798Y-88890763D01*
X148533188Y-88658718D01*
X148556956Y-88417400D01*
X148555706Y-88404700D01*
X158275044Y-88404700D01*
X158298812Y-88646018D01*
X158369202Y-88878063D01*
X158483509Y-89091916D01*
X158637340Y-89279360D01*
X158824784Y-89433191D01*
X159038637Y-89547498D01*
X159270682Y-89617888D01*
X159451528Y-89635700D01*
X159572472Y-89635700D01*
X159753318Y-89617888D01*
X159985363Y-89547498D01*
X160199216Y-89433191D01*
X160386660Y-89279360D01*
X160540491Y-89091916D01*
X160654798Y-88878063D01*
X160725188Y-88646018D01*
X160748956Y-88404700D01*
X160725188Y-88163382D01*
X160654798Y-87931337D01*
X160540491Y-87717484D01*
X160386660Y-87530040D01*
X160199216Y-87376209D01*
X159985363Y-87261902D01*
X159753318Y-87191512D01*
X159572472Y-87173700D01*
X159451528Y-87173700D01*
X159270682Y-87191512D01*
X159038637Y-87261902D01*
X158824784Y-87376209D01*
X158637340Y-87530040D01*
X158483509Y-87717484D01*
X158369202Y-87931337D01*
X158298812Y-88163382D01*
X158275044Y-88404700D01*
X148555706Y-88404700D01*
X148533188Y-88176082D01*
X148462798Y-87944037D01*
X148348491Y-87730184D01*
X148194660Y-87542740D01*
X148007216Y-87388909D01*
X147793363Y-87274602D01*
X147561318Y-87204212D01*
X147380472Y-87186400D01*
X147259528Y-87186400D01*
X147078682Y-87204212D01*
X146846637Y-87274602D01*
X146632784Y-87388909D01*
X146465612Y-87526103D01*
X146464020Y-87509942D01*
X146464020Y-87509933D01*
X146456853Y-87437164D01*
X146428531Y-87343800D01*
X146382539Y-87257755D01*
X146320644Y-87182336D01*
X146301750Y-87166830D01*
X145012320Y-85877400D01*
X146083044Y-85877400D01*
X146106812Y-86118718D01*
X146177202Y-86350763D01*
X146291509Y-86564616D01*
X146445340Y-86752060D01*
X146632784Y-86905891D01*
X146846637Y-87020198D01*
X147078682Y-87090588D01*
X147259528Y-87108400D01*
X147380472Y-87108400D01*
X147561318Y-87090588D01*
X147793363Y-87020198D01*
X148007216Y-86905891D01*
X148194660Y-86752060D01*
X148348491Y-86564616D01*
X148462798Y-86350763D01*
X148533188Y-86118718D01*
X148556956Y-85877400D01*
X148533188Y-85636082D01*
X148462798Y-85404037D01*
X148348491Y-85190184D01*
X148194660Y-85002740D01*
X148007216Y-84848909D01*
X147793363Y-84734602D01*
X147561318Y-84664212D01*
X147380472Y-84646400D01*
X147259528Y-84646400D01*
X147078682Y-84664212D01*
X146846637Y-84734602D01*
X146632784Y-84848909D01*
X146445340Y-85002740D01*
X146291509Y-85190184D01*
X146177202Y-85404037D01*
X146106812Y-85636082D01*
X146083044Y-85877400D01*
X145012320Y-85877400D01*
X144439039Y-85304119D01*
X144502208Y-85095878D01*
X144525976Y-84854560D01*
X144502208Y-84613242D01*
X144431818Y-84381197D01*
X144317511Y-84167344D01*
X144163680Y-83979900D01*
X143976236Y-83826069D01*
X143762383Y-83711762D01*
X143530338Y-83641372D01*
X143349492Y-83623560D01*
X143228548Y-83623560D01*
X143047702Y-83641372D01*
X142815657Y-83711762D01*
X142601804Y-83826069D01*
X142433360Y-83964307D01*
X142433360Y-83546846D01*
X142439020Y-83547403D01*
X144139020Y-83547403D01*
X144213709Y-83540047D01*
X144285528Y-83518261D01*
X144351716Y-83482882D01*
X144409731Y-83435271D01*
X144457342Y-83377256D01*
X144492721Y-83311068D01*
X144514507Y-83239249D01*
X144521863Y-83164560D01*
X144521863Y-81464560D01*
X144514507Y-81389871D01*
X144492721Y-81318052D01*
X144457342Y-81251864D01*
X144409731Y-81193849D01*
X144351716Y-81146238D01*
X144285528Y-81110859D01*
X144213709Y-81089073D01*
X144139020Y-81081717D01*
X142439020Y-81081717D01*
X142433360Y-81082274D01*
X142433360Y-79950445D01*
X142554964Y-80132438D01*
X142907502Y-80484976D01*
X143322042Y-80761963D01*
X143782655Y-80952755D01*
X144271638Y-81050020D01*
X144770202Y-81050020D01*
X145259185Y-80952755D01*
X145719798Y-80761963D01*
X146134338Y-80484976D01*
X146486876Y-80132438D01*
X146763863Y-79717898D01*
X146954655Y-79257285D01*
X147051920Y-78768302D01*
X147051920Y-78269738D01*
X146954655Y-77780755D01*
X146763863Y-77320142D01*
X146486876Y-76905602D01*
X146134338Y-76553064D01*
X145936032Y-76420560D01*
X160885808Y-76420560D01*
X160687502Y-76553064D01*
X160687502Y-76553064D01*
G37*
X160687502Y-76553064D02*
X160334964Y-76905602D01*
X160057977Y-77320142D01*
X159867185Y-77780755D01*
X159769920Y-78269738D01*
X159769920Y-78768302D01*
X159867185Y-79257285D01*
X160057977Y-79717898D01*
X160334964Y-80132438D01*
X160687502Y-80484976D01*
X161102042Y-80761963D01*
X161562655Y-80952755D01*
X162051638Y-81050020D01*
X162550202Y-81050020D01*
X163039185Y-80952755D01*
X163499798Y-80761963D01*
X163914338Y-80484976D01*
X164266876Y-80132438D01*
X164381360Y-79961101D01*
X164381360Y-91244084D01*
X164375200Y-91243477D01*
X162675200Y-91243477D01*
X162600511Y-91250833D01*
X162528692Y-91272619D01*
X162462504Y-91307998D01*
X162404489Y-91355609D01*
X162356878Y-91413624D01*
X162321499Y-91479812D01*
X162299713Y-91551631D01*
X162292357Y-91626320D01*
X162292357Y-93326320D01*
X162299713Y-93401009D01*
X162321499Y-93472828D01*
X162356878Y-93539016D01*
X162404489Y-93597031D01*
X162462504Y-93644642D01*
X162528692Y-93680021D01*
X162600511Y-93701807D01*
X162675200Y-93709163D01*
X164375200Y-93709163D01*
X164381360Y-93708556D01*
X164381360Y-94126478D01*
X164212416Y-93987829D01*
X163998563Y-93873522D01*
X163766518Y-93803132D01*
X163585672Y-93785320D01*
X163464728Y-93785320D01*
X163283882Y-93803132D01*
X163051837Y-93873522D01*
X162837984Y-93987829D01*
X162650540Y-94141660D01*
X162496709Y-94329104D01*
X162382402Y-94542957D01*
X162312012Y-94775002D01*
X162288244Y-95016320D01*
X162312012Y-95257638D01*
X162382402Y-95489683D01*
X162496709Y-95703536D01*
X162650540Y-95890980D01*
X162837984Y-96044811D01*
X163051837Y-96159118D01*
X163283882Y-96229508D01*
X163464728Y-96247320D01*
X163585672Y-96247320D01*
X163766518Y-96229508D01*
X163998563Y-96159118D01*
X164212416Y-96044811D01*
X164381360Y-95906162D01*
X164381360Y-96666478D01*
X164212416Y-96527829D01*
X163998563Y-96413522D01*
X163766518Y-96343132D01*
X163585672Y-96325320D01*
X163464728Y-96325320D01*
X163283882Y-96343132D01*
X163051837Y-96413522D01*
X162837984Y-96527829D01*
X162650540Y-96681660D01*
X162496709Y-96869104D01*
X162382402Y-97082957D01*
X162312012Y-97315002D01*
X162288244Y-97556320D01*
X162312012Y-97797638D01*
X162382402Y-98029683D01*
X162496709Y-98243536D01*
X162650540Y-98430980D01*
X162837984Y-98584811D01*
X163051837Y-98699118D01*
X163283882Y-98769508D01*
X163464728Y-98787320D01*
X163585672Y-98787320D01*
X163766518Y-98769508D01*
X163998563Y-98699118D01*
X164212416Y-98584811D01*
X164381360Y-98446162D01*
X164381360Y-99206478D01*
X164212416Y-99067829D01*
X163998563Y-98953522D01*
X163766518Y-98883132D01*
X163585672Y-98865320D01*
X163464728Y-98865320D01*
X163283882Y-98883132D01*
X163051837Y-98953522D01*
X162837984Y-99067829D01*
X162650540Y-99221660D01*
X162496709Y-99409104D01*
X162382402Y-99622957D01*
X162312012Y-99855002D01*
X162288244Y-100096320D01*
X162312012Y-100337638D01*
X162371659Y-100534269D01*
X161684929Y-101221000D01*
X158523031Y-101221000D01*
X158422389Y-101120358D01*
X158294472Y-101034887D01*
X158152339Y-100976013D01*
X158001452Y-100946000D01*
X157847608Y-100946000D01*
X157696721Y-100976013D01*
X157554588Y-101034887D01*
X157426671Y-101120358D01*
X157317888Y-101229141D01*
X157232417Y-101357058D01*
X157173543Y-101499191D01*
X157143530Y-101650078D01*
X157143530Y-101803922D01*
X157173543Y-101954809D01*
X157232417Y-102096942D01*
X157317888Y-102224859D01*
X157426671Y-102333642D01*
X157554588Y-102419113D01*
X157696721Y-102477987D01*
X157847608Y-102508000D01*
X158001452Y-102508000D01*
X158152339Y-102477987D01*
X158294472Y-102419113D01*
X158422389Y-102333642D01*
X158523031Y-102233000D01*
X161869674Y-102233000D01*
X161894520Y-102235447D01*
X161919366Y-102233000D01*
X161919374Y-102233000D01*
X161993713Y-102225678D01*
X162089095Y-102196745D01*
X162176999Y-102149759D01*
X162254047Y-102086527D01*
X162269896Y-102067215D01*
X163087251Y-101249861D01*
X163283882Y-101309508D01*
X163464728Y-101327320D01*
X163585672Y-101327320D01*
X163766518Y-101309508D01*
X163998563Y-101239118D01*
X164212416Y-101124811D01*
X164381360Y-100986162D01*
X164381361Y-101746478D01*
X164212416Y-101607829D01*
X163998563Y-101493522D01*
X163766518Y-101423132D01*
X163585672Y-101405320D01*
X163464728Y-101405320D01*
X163283882Y-101423132D01*
X163051837Y-101493522D01*
X162837984Y-101607829D01*
X162650540Y-101761660D01*
X162496709Y-101949104D01*
X162382402Y-102162957D01*
X162312012Y-102395002D01*
X162288244Y-102636320D01*
X162312012Y-102877638D01*
X162382402Y-103109683D01*
X162496709Y-103323536D01*
X162650540Y-103510980D01*
X162837984Y-103664811D01*
X163051837Y-103779118D01*
X163283882Y-103849508D01*
X163464728Y-103867320D01*
X163585672Y-103867320D01*
X163766518Y-103849508D01*
X163998563Y-103779118D01*
X164212416Y-103664811D01*
X164381361Y-103526162D01*
X164381361Y-104286478D01*
X164212416Y-104147829D01*
X163998563Y-104033522D01*
X163766518Y-103963132D01*
X163585672Y-103945320D01*
X163464728Y-103945320D01*
X163283882Y-103963132D01*
X163087251Y-104022779D01*
X162584856Y-103520385D01*
X162569007Y-103501073D01*
X162491959Y-103437841D01*
X162404055Y-103390855D01*
X162308673Y-103361922D01*
X162234334Y-103354600D01*
X162234326Y-103354600D01*
X162209480Y-103352153D01*
X162184634Y-103354600D01*
X150988222Y-103354600D01*
X149792990Y-102159369D01*
X149792990Y-102017038D01*
X149762977Y-101866151D01*
X149704103Y-101724018D01*
X149618632Y-101596101D01*
X149509849Y-101487318D01*
X149381932Y-101401847D01*
X149239799Y-101342973D01*
X149088912Y-101312960D01*
X148935068Y-101312960D01*
X148784181Y-101342973D01*
X148642048Y-101401847D01*
X148514131Y-101487318D01*
X148405348Y-101596101D01*
X148319877Y-101724018D01*
X148261003Y-101866151D01*
X148230990Y-102017038D01*
X148230990Y-102170882D01*
X148261003Y-102321769D01*
X148319877Y-102463902D01*
X148405348Y-102591819D01*
X148514131Y-102700602D01*
X148642048Y-102786073D01*
X148784181Y-102844947D01*
X148935068Y-102874960D01*
X149077399Y-102874960D01*
X150403258Y-104200820D01*
X150419103Y-104220127D01*
X150496151Y-104283359D01*
X150584055Y-104330345D01*
X150679436Y-104359278D01*
X150689324Y-104360252D01*
X150753776Y-104366600D01*
X150753783Y-104366600D01*
X150778629Y-104369047D01*
X150803475Y-104366600D01*
X161999889Y-104366600D01*
X162371659Y-104738371D01*
X162312012Y-104935002D01*
X162288244Y-105176320D01*
X162312012Y-105417638D01*
X162382402Y-105649683D01*
X162496709Y-105863536D01*
X162650540Y-106050980D01*
X162837984Y-106204811D01*
X163051837Y-106319118D01*
X163283882Y-106389508D01*
X163464728Y-106407320D01*
X163585672Y-106407320D01*
X163766518Y-106389508D01*
X163998563Y-106319118D01*
X164212416Y-106204811D01*
X164381361Y-106066162D01*
X164381361Y-106826478D01*
X164212416Y-106687829D01*
X163998563Y-106573522D01*
X163766518Y-106503132D01*
X163585672Y-106485320D01*
X163464728Y-106485320D01*
X163283882Y-106503132D01*
X163051837Y-106573522D01*
X162837984Y-106687829D01*
X162650540Y-106841660D01*
X162496709Y-107029104D01*
X162382402Y-107242957D01*
X162312012Y-107475002D01*
X162288244Y-107716320D01*
X162312012Y-107957638D01*
X162382402Y-108189683D01*
X162496709Y-108403536D01*
X162650540Y-108590980D01*
X162837984Y-108744811D01*
X163051837Y-108859118D01*
X163283882Y-108929508D01*
X163464728Y-108947320D01*
X163585672Y-108947320D01*
X163766518Y-108929508D01*
X163998563Y-108859118D01*
X164212416Y-108744811D01*
X164381361Y-108606162D01*
X164381361Y-109366478D01*
X164212416Y-109227829D01*
X163998563Y-109113522D01*
X163766518Y-109043132D01*
X163585672Y-109025320D01*
X163464728Y-109025320D01*
X163283882Y-109043132D01*
X163051837Y-109113522D01*
X162837984Y-109227829D01*
X162650540Y-109381660D01*
X162496709Y-109569104D01*
X162382402Y-109782957D01*
X162312012Y-110015002D01*
X162288244Y-110256320D01*
X162312012Y-110497638D01*
X162382402Y-110729683D01*
X162496709Y-110943536D01*
X162650540Y-111130980D01*
X162837984Y-111284811D01*
X163051837Y-111399118D01*
X163283882Y-111469508D01*
X163464728Y-111487320D01*
X163585672Y-111487320D01*
X163766518Y-111469508D01*
X163998563Y-111399118D01*
X164212416Y-111284811D01*
X164381361Y-111146162D01*
X164381361Y-111906478D01*
X164212416Y-111767829D01*
X163998563Y-111653522D01*
X163766518Y-111583132D01*
X163585672Y-111565320D01*
X163464728Y-111565320D01*
X163283882Y-111583132D01*
X163051837Y-111653522D01*
X162837984Y-111767829D01*
X162650540Y-111921660D01*
X162496709Y-112109104D01*
X162382402Y-112322957D01*
X162312012Y-112555002D01*
X162288244Y-112796320D01*
X162312012Y-113037638D01*
X162382402Y-113269683D01*
X162496709Y-113483536D01*
X162650540Y-113670980D01*
X162837984Y-113824811D01*
X163051837Y-113939118D01*
X163283882Y-114009508D01*
X163464728Y-114027320D01*
X163585672Y-114027320D01*
X163766518Y-114009508D01*
X163998563Y-113939118D01*
X164212416Y-113824811D01*
X164381361Y-113686162D01*
X164381361Y-114446478D01*
X164212416Y-114307829D01*
X163998563Y-114193522D01*
X163766518Y-114123132D01*
X163585672Y-114105320D01*
X163464728Y-114105320D01*
X163283882Y-114123132D01*
X163051837Y-114193522D01*
X162837984Y-114307829D01*
X162650540Y-114461660D01*
X162496709Y-114649104D01*
X162382402Y-114862957D01*
X162312012Y-115095002D01*
X162288244Y-115336320D01*
X162312012Y-115577638D01*
X162382402Y-115809683D01*
X162496709Y-116023536D01*
X162650540Y-116210980D01*
X162837984Y-116364811D01*
X163051837Y-116479118D01*
X163283882Y-116549508D01*
X163464728Y-116567320D01*
X163585672Y-116567320D01*
X163766518Y-116549508D01*
X163998563Y-116479118D01*
X164212416Y-116364811D01*
X164381361Y-116226162D01*
X164381361Y-116986478D01*
X164212416Y-116847829D01*
X163998563Y-116733522D01*
X163766518Y-116663132D01*
X163585672Y-116645320D01*
X163464728Y-116645320D01*
X163283882Y-116663132D01*
X163051837Y-116733522D01*
X162837984Y-116847829D01*
X162650540Y-117001660D01*
X162496709Y-117189104D01*
X162382402Y-117402957D01*
X162312012Y-117635002D01*
X162288244Y-117876320D01*
X162312012Y-118117638D01*
X162382402Y-118349683D01*
X162496709Y-118563536D01*
X162650540Y-118750980D01*
X162837984Y-118904811D01*
X163051837Y-119019118D01*
X163283882Y-119089508D01*
X163464728Y-119107320D01*
X163585672Y-119107320D01*
X163766518Y-119089508D01*
X163998563Y-119019118D01*
X164212416Y-118904811D01*
X164381361Y-118766162D01*
X164381361Y-119526478D01*
X164212416Y-119387829D01*
X163998563Y-119273522D01*
X163766518Y-119203132D01*
X163585672Y-119185320D01*
X163464728Y-119185320D01*
X163283882Y-119203132D01*
X163051837Y-119273522D01*
X162837984Y-119387829D01*
X162650540Y-119541660D01*
X162496709Y-119729104D01*
X162382402Y-119942957D01*
X162312012Y-120175002D01*
X162288244Y-120416320D01*
X162312012Y-120657638D01*
X162382402Y-120889683D01*
X162496709Y-121103536D01*
X162650540Y-121290980D01*
X162837984Y-121444811D01*
X163051837Y-121559118D01*
X163283882Y-121629508D01*
X163464728Y-121647320D01*
X163585672Y-121647320D01*
X163766518Y-121629508D01*
X163998563Y-121559118D01*
X164212416Y-121444811D01*
X164381361Y-121306162D01*
X164381361Y-124202244D01*
X164339525Y-124628919D01*
X164222092Y-125017879D01*
X164031347Y-125376618D01*
X163774553Y-125691478D01*
X163461498Y-125950459D01*
X163104094Y-126143707D01*
X162715966Y-126263853D01*
X162290604Y-126308560D01*
X161925000Y-126308560D01*
X161925000Y-125929157D01*
X162130431Y-125970020D01*
X162471409Y-125970020D01*
X162805834Y-125903499D01*
X163120856Y-125773013D01*
X163404368Y-125583576D01*
X163645476Y-125342468D01*
X163834913Y-125058956D01*
X163965399Y-124743934D01*
X164031920Y-124409509D01*
X164031920Y-124068531D01*
X163965399Y-123734106D01*
X163834913Y-123419084D01*
X163645476Y-123135572D01*
X163404368Y-122894464D01*
X163120856Y-122705027D01*
X162805834Y-122574541D01*
X162471409Y-122508020D01*
X162130431Y-122508020D01*
X161925000Y-122548883D01*
X161925000Y-120650000D01*
X161922560Y-120625224D01*
X161915333Y-120601399D01*
X161903597Y-120579443D01*
X161887803Y-120560197D01*
X161868557Y-120544403D01*
X161846601Y-120532667D01*
X161822776Y-120525440D01*
X161798000Y-120523000D01*
X145034000Y-120523000D01*
X145009224Y-120525440D01*
X144985399Y-120532667D01*
X144963443Y-120544403D01*
X144944197Y-120560197D01*
X144928403Y-120579443D01*
X144916667Y-120601399D01*
X144909440Y-120625224D01*
X144907000Y-120650000D01*
X144907000Y-122550904D01*
X144691409Y-122508020D01*
X144350431Y-122508020D01*
X144016006Y-122574541D01*
X143700984Y-122705027D01*
X143417472Y-122894464D01*
X143176364Y-123135572D01*
X142986927Y-123419084D01*
X142856441Y-123734106D01*
X142789920Y-124068531D01*
X142789920Y-124409509D01*
X142856441Y-124743934D01*
X142986927Y-125058956D01*
X143176364Y-125342468D01*
X143417472Y-125583576D01*
X143700984Y-125773013D01*
X144016006Y-125903499D01*
X144350431Y-125970020D01*
X144691409Y-125970020D01*
X144907000Y-125927136D01*
X144907000Y-126308560D01*
X144539665Y-126308560D01*
X144113001Y-126266725D01*
X143724041Y-126149292D01*
X143365302Y-125958547D01*
X143050442Y-125701753D01*
X142791461Y-125388698D01*
X142598213Y-125031294D01*
X142478067Y-124643166D01*
X142433360Y-124217804D01*
X142433360Y-121625044D01*
X142657768Y-121758717D01*
X142932129Y-121856041D01*
X143162020Y-121735374D01*
X143162020Y-120541560D01*
X143416020Y-120541560D01*
X143416020Y-121735374D01*
X143645911Y-121856041D01*
X143920272Y-121758717D01*
X144170375Y-121609738D01*
X144386608Y-121414829D01*
X144560661Y-121181480D01*
X144685845Y-120918659D01*
X144730496Y-120771450D01*
X144609175Y-120541560D01*
X143416020Y-120541560D01*
X143162020Y-120541560D01*
X143142020Y-120541560D01*
X143142020Y-120287560D01*
X143162020Y-120287560D01*
X143162020Y-120267560D01*
X143416020Y-120267560D01*
X143416020Y-120287560D01*
X144609175Y-120287560D01*
X144730496Y-120057670D01*
X144685845Y-119910461D01*
X144560661Y-119647640D01*
X144386608Y-119414291D01*
X144170375Y-119219382D01*
X143920272Y-119070403D01*
X143765715Y-119015577D01*
X143976236Y-118903051D01*
X144163680Y-118749220D01*
X144317511Y-118561776D01*
X144431818Y-118347923D01*
X144502208Y-118115878D01*
X144525976Y-117874560D01*
X144502208Y-117633242D01*
X144431818Y-117401197D01*
X144317511Y-117187344D01*
X144163680Y-116999900D01*
X143976236Y-116846069D01*
X143762383Y-116731762D01*
X143530338Y-116661372D01*
X143349492Y-116643560D01*
X143228548Y-116643560D01*
X143047702Y-116661372D01*
X142815657Y-116731762D01*
X142601804Y-116846069D01*
X142433360Y-116984307D01*
X142433360Y-116224813D01*
X142601804Y-116363051D01*
X142815657Y-116477358D01*
X143047702Y-116547748D01*
X143228548Y-116565560D01*
X143349492Y-116565560D01*
X143530338Y-116547748D01*
X143762383Y-116477358D01*
X143976236Y-116363051D01*
X144163680Y-116209220D01*
X144317511Y-116021776D01*
X144431818Y-115807923D01*
X144502208Y-115575878D01*
X144525976Y-115334560D01*
X144502208Y-115093242D01*
X144431818Y-114861197D01*
X144317511Y-114647344D01*
X144163680Y-114459900D01*
X143976236Y-114306069D01*
X143762383Y-114191762D01*
X143530338Y-114121372D01*
X143349492Y-114103560D01*
X143228548Y-114103560D01*
X143047702Y-114121372D01*
X142815657Y-114191762D01*
X142601804Y-114306069D01*
X142433360Y-114444307D01*
X142433360Y-113684813D01*
X142601804Y-113823051D01*
X142815657Y-113937358D01*
X143047702Y-114007748D01*
X143228548Y-114025560D01*
X143349492Y-114025560D01*
X143530338Y-114007748D01*
X143762383Y-113937358D01*
X143976236Y-113823051D01*
X144163680Y-113669220D01*
X144317511Y-113481776D01*
X144414373Y-113300560D01*
X146232059Y-113300560D01*
X146314141Y-113382642D01*
X146442058Y-113468113D01*
X146584191Y-113526987D01*
X146735078Y-113557000D01*
X146888922Y-113557000D01*
X147039809Y-113526987D01*
X147181942Y-113468113D01*
X147309859Y-113382642D01*
X147418642Y-113273859D01*
X147504113Y-113145942D01*
X147562987Y-113003809D01*
X147593000Y-112852922D01*
X147593000Y-112799920D01*
X148631263Y-113838183D01*
X148562264Y-113941448D01*
X148503390Y-114083581D01*
X148473377Y-114234468D01*
X148473377Y-114388312D01*
X148503390Y-114539199D01*
X148562264Y-114681332D01*
X148647735Y-114809249D01*
X148756518Y-114918032D01*
X148884435Y-115003503D01*
X149026568Y-115062377D01*
X149177455Y-115092390D01*
X149331299Y-115092390D01*
X149482186Y-115062377D01*
X149624319Y-115003503D01*
X149752236Y-114918032D01*
X149861019Y-114809249D01*
X149946490Y-114681332D01*
X150005364Y-114539199D01*
X150035377Y-114388312D01*
X150035377Y-114234468D01*
X150005364Y-114083581D01*
X149946490Y-113941448D01*
X149861019Y-113813531D01*
X149759507Y-113712019D01*
X149753055Y-113646512D01*
X149724122Y-113551130D01*
X149711217Y-113526987D01*
X149677136Y-113463226D01*
X149613904Y-113386178D01*
X149594597Y-113370333D01*
X146138608Y-109914345D01*
X146122759Y-109895033D01*
X146045711Y-109831801D01*
X145957807Y-109784815D01*
X145862425Y-109755882D01*
X145788086Y-109748560D01*
X145788078Y-109748560D01*
X145763232Y-109746113D01*
X145738386Y-109748560D01*
X144414373Y-109748560D01*
X144317511Y-109567344D01*
X144163680Y-109379900D01*
X143976236Y-109226069D01*
X143762383Y-109111762D01*
X143530338Y-109041372D01*
X143349492Y-109023560D01*
X143228548Y-109023560D01*
X143047702Y-109041372D01*
X142815657Y-109111762D01*
X142601804Y-109226069D01*
X142433360Y-109364307D01*
X142433360Y-108604813D01*
X142601804Y-108743051D01*
X142815657Y-108857358D01*
X143047702Y-108927748D01*
X143228548Y-108945560D01*
X143349492Y-108945560D01*
X143530338Y-108927748D01*
X143762383Y-108857358D01*
X143976236Y-108743051D01*
X144163680Y-108589220D01*
X144317511Y-108401776D01*
X144414373Y-108220560D01*
X148671644Y-108220560D01*
X148704718Y-108270059D01*
X148813501Y-108378842D01*
X148941418Y-108464313D01*
X149083551Y-108523187D01*
X149234438Y-108553200D01*
X149388282Y-108553200D01*
X149539169Y-108523187D01*
X149681302Y-108464313D01*
X149809219Y-108378842D01*
X149918002Y-108270059D01*
X150003473Y-108142142D01*
X150062347Y-108000009D01*
X150065843Y-107982434D01*
X150486842Y-108403434D01*
X150486843Y-115073098D01*
X150386200Y-115173741D01*
X150300729Y-115301658D01*
X150241855Y-115443791D01*
X150211842Y-115594678D01*
X150211842Y-115748522D01*
X150241855Y-115899409D01*
X150300729Y-116041542D01*
X150386200Y-116169459D01*
X150494983Y-116278242D01*
X150622900Y-116363713D01*
X150765033Y-116422587D01*
X150915920Y-116452600D01*
X151069764Y-116452600D01*
X151220651Y-116422587D01*
X151362784Y-116363713D01*
X151490701Y-116278242D01*
X151599484Y-116169459D01*
X151684955Y-116041542D01*
X151743829Y-115899409D01*
X151773842Y-115748522D01*
X151773842Y-115594678D01*
X151743829Y-115443791D01*
X151684955Y-115301658D01*
X151599484Y-115173741D01*
X151498842Y-115073099D01*
X151498842Y-108218696D01*
X151501290Y-108193842D01*
X151491520Y-108094649D01*
X151462587Y-107999267D01*
X151445219Y-107966774D01*
X151415601Y-107911363D01*
X151352369Y-107834315D01*
X151333062Y-107818470D01*
X150235376Y-106720785D01*
X150219527Y-106701473D01*
X150142479Y-106638241D01*
X150054575Y-106591255D01*
X149959193Y-106562322D01*
X149884854Y-106555000D01*
X149884846Y-106555000D01*
X149860000Y-106552553D01*
X149835154Y-106555000D01*
X148946146Y-106555000D01*
X148871807Y-106562322D01*
X148860671Y-106565700D01*
X147840120Y-106565700D01*
X147345970Y-106071550D01*
X157022796Y-106071550D01*
X157022796Y-106221650D01*
X157052079Y-106368867D01*
X157109520Y-106507542D01*
X157192912Y-106632347D01*
X157289497Y-106728932D01*
X157289496Y-116109559D01*
X157287101Y-116133876D01*
X157289496Y-116158193D01*
X157289496Y-116158202D01*
X157296663Y-116230971D01*
X157324985Y-116324335D01*
X157370977Y-116410381D01*
X157432872Y-116485800D01*
X157451771Y-116501310D01*
X158501080Y-117550620D01*
X158501080Y-117687210D01*
X158530363Y-117834427D01*
X158587804Y-117973102D01*
X158671196Y-118097907D01*
X158777333Y-118204044D01*
X158902138Y-118287436D01*
X159040813Y-118344877D01*
X159188030Y-118374160D01*
X159338130Y-118374160D01*
X159485347Y-118344877D01*
X159624022Y-118287436D01*
X159748827Y-118204044D01*
X159854964Y-118097907D01*
X159938356Y-117973102D01*
X159995797Y-117834427D01*
X160025080Y-117687210D01*
X160025080Y-117537110D01*
X159995797Y-117389893D01*
X159938356Y-117251218D01*
X159854964Y-117126413D01*
X159748827Y-117020276D01*
X159624022Y-116936884D01*
X159485347Y-116879443D01*
X159338130Y-116850160D01*
X159201540Y-116850160D01*
X158280096Y-115928717D01*
X158280096Y-106728931D01*
X158376680Y-106632347D01*
X158460072Y-106507542D01*
X158517513Y-106368867D01*
X158546796Y-106221650D01*
X158546796Y-106071550D01*
X158517513Y-105924333D01*
X158460072Y-105785658D01*
X158376680Y-105660853D01*
X158270543Y-105554716D01*
X158145738Y-105471324D01*
X158007063Y-105413883D01*
X157859846Y-105384600D01*
X157709746Y-105384600D01*
X157562529Y-105413883D01*
X157423854Y-105471324D01*
X157299049Y-105554716D01*
X157192912Y-105660853D01*
X157109520Y-105785658D01*
X157052079Y-105924333D01*
X157022796Y-106071550D01*
X147345970Y-106071550D01*
X145143220Y-103868801D01*
X145143220Y-101477777D01*
X145145615Y-101453460D01*
X145143220Y-101429143D01*
X145143220Y-101429133D01*
X145136053Y-101356364D01*
X145107731Y-101263000D01*
X145061739Y-101176955D01*
X145015351Y-101120431D01*
X145015350Y-101120430D01*
X144999844Y-101101536D01*
X144980950Y-101086030D01*
X144439039Y-100544119D01*
X144502208Y-100335878D01*
X144525976Y-100094560D01*
X144502208Y-99853242D01*
X144431818Y-99621197D01*
X144317511Y-99407344D01*
X144163680Y-99219900D01*
X143976236Y-99066069D01*
X143762383Y-98951762D01*
X143530338Y-98881372D01*
X143349492Y-98863560D01*
X143228548Y-98863560D01*
X143047702Y-98881372D01*
X142815657Y-98951762D01*
X142601804Y-99066069D01*
X142433360Y-99204307D01*
X142433360Y-98444813D01*
X142601804Y-98583051D01*
X142815657Y-98697358D01*
X143047702Y-98767748D01*
X143228548Y-98785560D01*
X143349492Y-98785560D01*
X143530338Y-98767748D01*
X143762383Y-98697358D01*
X143976236Y-98583051D01*
X144163680Y-98429220D01*
X144317511Y-98241776D01*
X144431818Y-98027923D01*
X144502208Y-97795878D01*
X144525976Y-97554560D01*
X144502208Y-97313242D01*
X144431818Y-97081197D01*
X144317511Y-96867344D01*
X144163680Y-96679900D01*
X143976236Y-96526069D01*
X143762383Y-96411762D01*
X143530338Y-96341372D01*
X143349492Y-96323560D01*
X143228548Y-96323560D01*
X143047702Y-96341372D01*
X142815657Y-96411762D01*
X142601804Y-96526069D01*
X142433360Y-96664307D01*
X142433360Y-95904813D01*
X142601804Y-96043051D01*
X142815657Y-96157358D01*
X143047702Y-96227748D01*
X143228548Y-96245560D01*
X143349492Y-96245560D01*
X143530338Y-96227748D01*
X143762383Y-96157358D01*
X143976236Y-96043051D01*
X144163680Y-95889220D01*
X144317511Y-95701776D01*
X144431818Y-95487923D01*
X144502208Y-95255878D01*
X144525976Y-95014560D01*
X144502208Y-94773242D01*
X144431818Y-94541197D01*
X144317511Y-94327344D01*
X144163680Y-94139900D01*
X143976236Y-93986069D01*
X143762383Y-93871762D01*
X143530338Y-93801372D01*
X143349492Y-93783560D01*
X143228548Y-93783560D01*
X143047702Y-93801372D01*
X142815657Y-93871762D01*
X142601804Y-93986069D01*
X142433360Y-94124307D01*
X142433360Y-93364813D01*
X142601804Y-93503051D01*
X142815657Y-93617358D01*
X143047702Y-93687748D01*
X143228548Y-93705560D01*
X143349492Y-93705560D01*
X143530338Y-93687748D01*
X143762383Y-93617358D01*
X143976236Y-93503051D01*
X144163680Y-93349220D01*
X144317511Y-93161776D01*
X144431818Y-92947923D01*
X144502208Y-92715878D01*
X144525976Y-92474560D01*
X144502208Y-92233242D01*
X144431818Y-92001197D01*
X144317511Y-91787344D01*
X144163680Y-91599900D01*
X143976236Y-91446069D01*
X143765715Y-91333543D01*
X143920272Y-91278717D01*
X144170375Y-91129738D01*
X144386608Y-90934829D01*
X144560661Y-90701480D01*
X144685845Y-90438659D01*
X144730496Y-90291450D01*
X144609175Y-90061560D01*
X143416020Y-90061560D01*
X143416020Y-90081560D01*
X143162020Y-90081560D01*
X143162020Y-90061560D01*
X143142020Y-90061560D01*
X143142020Y-89807560D01*
X143162020Y-89807560D01*
X143162020Y-89787560D01*
X143416020Y-89787560D01*
X143416020Y-89807560D01*
X144609175Y-89807560D01*
X144730496Y-89577670D01*
X144685845Y-89430461D01*
X144560661Y-89167640D01*
X144386608Y-88934291D01*
X144170375Y-88739382D01*
X143920272Y-88590403D01*
X143765715Y-88535577D01*
X143976236Y-88423051D01*
X144163680Y-88269220D01*
X144317511Y-88081776D01*
X144431818Y-87867923D01*
X144502208Y-87635878D01*
X144525976Y-87394560D01*
X144502208Y-87153242D01*
X144431818Y-86921197D01*
X144317511Y-86707344D01*
X144163680Y-86519900D01*
X143976236Y-86366069D01*
X143762383Y-86251762D01*
X143530338Y-86181372D01*
X143349492Y-86163560D01*
X143228548Y-86163560D01*
X143047702Y-86181372D01*
X142815657Y-86251762D01*
X142601804Y-86366069D01*
X142433360Y-86504307D01*
X142433360Y-85744813D01*
X142601804Y-85883051D01*
X142815657Y-85997358D01*
X143047702Y-86067748D01*
X143228548Y-86085560D01*
X143349492Y-86085560D01*
X143530338Y-86067748D01*
X143738579Y-86004579D01*
X145473420Y-87739420D01*
X145473421Y-96922393D01*
X145471025Y-96946720D01*
X145480588Y-97043815D01*
X145508909Y-97137179D01*
X145554901Y-97223224D01*
X145593489Y-97270243D01*
X145616797Y-97298644D01*
X145635690Y-97314149D01*
X146000068Y-97678528D01*
X146015576Y-97697424D01*
X146090995Y-97759319D01*
X146177040Y-97805311D01*
X146270404Y-97833633D01*
X146343173Y-97840800D01*
X146343182Y-97840800D01*
X146367499Y-97843195D01*
X146391816Y-97840800D01*
X147940341Y-97840800D01*
X151739584Y-101640044D01*
X151739584Y-101734782D01*
X151767403Y-101874638D01*
X151821972Y-102006379D01*
X151901194Y-102124944D01*
X152002024Y-102225774D01*
X152120589Y-102304996D01*
X152252330Y-102359565D01*
X152392186Y-102387384D01*
X152534782Y-102387384D01*
X152674638Y-102359565D01*
X152806379Y-102304996D01*
X152924944Y-102225774D01*
X153025774Y-102124944D01*
X153104996Y-102006379D01*
X153159565Y-101874638D01*
X153187384Y-101734782D01*
X153187384Y-101592186D01*
X153159565Y-101452330D01*
X153104996Y-101320589D01*
X153025774Y-101202024D01*
X152924944Y-101101194D01*
X152806379Y-101021972D01*
X152674638Y-100967403D01*
X152534782Y-100939584D01*
X152440044Y-100939584D01*
X148526183Y-97025724D01*
X148545487Y-96962089D01*
X148552843Y-96887400D01*
X148552843Y-95187400D01*
X148551593Y-95174700D01*
X158279157Y-95174700D01*
X158279157Y-96874700D01*
X158286513Y-96949389D01*
X158308299Y-97021208D01*
X158343678Y-97087396D01*
X158391289Y-97145411D01*
X158449304Y-97193022D01*
X158515492Y-97228401D01*
X158587311Y-97250187D01*
X158662000Y-97257543D01*
X160362000Y-97257543D01*
X160436689Y-97250187D01*
X160508508Y-97228401D01*
X160574696Y-97193022D01*
X160632711Y-97145411D01*
X160680322Y-97087396D01*
X160715701Y-97021208D01*
X160737487Y-96949389D01*
X160744843Y-96874700D01*
X160744843Y-95174700D01*
X160737487Y-95100011D01*
X160715701Y-95028192D01*
X160680322Y-94962004D01*
X160632711Y-94903989D01*
X160574696Y-94856378D01*
X160508508Y-94820999D01*
X160436689Y-94799213D01*
X160362000Y-94791857D01*
X158662000Y-94791857D01*
X158587311Y-94799213D01*
X158515492Y-94820999D01*
X158449304Y-94856378D01*
X158391289Y-94903989D01*
X158343678Y-94962004D01*
X158308299Y-95028192D01*
X158286513Y-95100011D01*
X158279157Y-95174700D01*
X148551593Y-95174700D01*
X148545487Y-95112711D01*
X148523701Y-95040892D01*
X148488322Y-94974704D01*
X148440711Y-94916689D01*
X148382696Y-94869078D01*
X148316508Y-94833699D01*
X148244689Y-94811913D01*
X148170000Y-94804557D01*
X146470000Y-94804557D01*
X146464020Y-94805146D01*
X146464020Y-94387390D01*
X146632784Y-94525891D01*
X146846637Y-94640198D01*
X147078682Y-94710588D01*
X147259528Y-94728400D01*
X147380472Y-94728400D01*
X147561318Y-94710588D01*
X147793363Y-94640198D01*
X148007216Y-94525891D01*
X148194660Y-94372060D01*
X148348491Y-94184616D01*
X148462798Y-93970763D01*
X148533188Y-93738718D01*
X148556956Y-93497400D01*
X148555706Y-93484700D01*
X158275044Y-93484700D01*
X158298812Y-93726018D01*
X158369202Y-93958063D01*
X158483509Y-94171916D01*
X158637340Y-94359360D01*
X158824784Y-94513191D01*
X159038637Y-94627498D01*
X159270682Y-94697888D01*
X159451528Y-94715700D01*
X159572472Y-94715700D01*
X159753318Y-94697888D01*
X159985363Y-94627498D01*
X160199216Y-94513191D01*
X160386660Y-94359360D01*
X160540491Y-94171916D01*
X160654798Y-93958063D01*
X160725188Y-93726018D01*
X160748956Y-93484700D01*
X160725188Y-93243382D01*
X160654798Y-93011337D01*
X160540491Y-92797484D01*
X160386660Y-92610040D01*
X160199216Y-92456209D01*
X159985363Y-92341902D01*
X159753318Y-92271512D01*
X159572472Y-92253700D01*
X159451528Y-92253700D01*
X159270682Y-92271512D01*
X159038637Y-92341902D01*
X158824784Y-92456209D01*
X158637340Y-92610040D01*
X158483509Y-92797484D01*
X158369202Y-93011337D01*
X158298812Y-93243382D01*
X158275044Y-93484700D01*
X148555706Y-93484700D01*
X148533188Y-93256082D01*
X148462798Y-93024037D01*
X148348491Y-92810184D01*
X148194660Y-92622740D01*
X148007216Y-92468909D01*
X147793363Y-92354602D01*
X147561318Y-92284212D01*
X147380472Y-92266400D01*
X147259528Y-92266400D01*
X147078682Y-92284212D01*
X146846637Y-92354602D01*
X146632784Y-92468909D01*
X146464020Y-92607410D01*
X146464020Y-91847390D01*
X146632784Y-91985891D01*
X146846637Y-92100198D01*
X147078682Y-92170588D01*
X147259528Y-92188400D01*
X147380472Y-92188400D01*
X147561318Y-92170588D01*
X147793363Y-92100198D01*
X148007216Y-91985891D01*
X148194660Y-91832060D01*
X148348491Y-91644616D01*
X148462798Y-91430763D01*
X148533188Y-91198718D01*
X148556956Y-90957400D01*
X148555706Y-90944700D01*
X158275044Y-90944700D01*
X158298812Y-91186018D01*
X158369202Y-91418063D01*
X158483509Y-91631916D01*
X158637340Y-91819360D01*
X158824784Y-91973191D01*
X159038637Y-92087498D01*
X159270682Y-92157888D01*
X159451528Y-92175700D01*
X159572472Y-92175700D01*
X159753318Y-92157888D01*
X159985363Y-92087498D01*
X160199216Y-91973191D01*
X160386660Y-91819360D01*
X160540491Y-91631916D01*
X160654798Y-91418063D01*
X160725188Y-91186018D01*
X160748956Y-90944700D01*
X160725188Y-90703382D01*
X160654798Y-90471337D01*
X160540491Y-90257484D01*
X160386660Y-90070040D01*
X160199216Y-89916209D01*
X159985363Y-89801902D01*
X159753318Y-89731512D01*
X159572472Y-89713700D01*
X159451528Y-89713700D01*
X159270682Y-89731512D01*
X159038637Y-89801902D01*
X158824784Y-89916209D01*
X158637340Y-90070040D01*
X158483509Y-90257484D01*
X158369202Y-90471337D01*
X158298812Y-90703382D01*
X158275044Y-90944700D01*
X148555706Y-90944700D01*
X148533188Y-90716082D01*
X148462798Y-90484037D01*
X148348491Y-90270184D01*
X148194660Y-90082740D01*
X148007216Y-89928909D01*
X147793363Y-89814602D01*
X147561318Y-89744212D01*
X147380472Y-89726400D01*
X147259528Y-89726400D01*
X147078682Y-89744212D01*
X146846637Y-89814602D01*
X146632784Y-89928909D01*
X146464020Y-90067410D01*
X146464020Y-89307390D01*
X146632784Y-89445891D01*
X146846637Y-89560198D01*
X147078682Y-89630588D01*
X147259528Y-89648400D01*
X147380472Y-89648400D01*
X147561318Y-89630588D01*
X147793363Y-89560198D01*
X148007216Y-89445891D01*
X148194660Y-89292060D01*
X148348491Y-89104616D01*
X148462798Y-88890763D01*
X148533188Y-88658718D01*
X148556956Y-88417400D01*
X148555706Y-88404700D01*
X158275044Y-88404700D01*
X158298812Y-88646018D01*
X158369202Y-88878063D01*
X158483509Y-89091916D01*
X158637340Y-89279360D01*
X158824784Y-89433191D01*
X159038637Y-89547498D01*
X159270682Y-89617888D01*
X159451528Y-89635700D01*
X159572472Y-89635700D01*
X159753318Y-89617888D01*
X159985363Y-89547498D01*
X160199216Y-89433191D01*
X160386660Y-89279360D01*
X160540491Y-89091916D01*
X160654798Y-88878063D01*
X160725188Y-88646018D01*
X160748956Y-88404700D01*
X160725188Y-88163382D01*
X160654798Y-87931337D01*
X160540491Y-87717484D01*
X160386660Y-87530040D01*
X160199216Y-87376209D01*
X159985363Y-87261902D01*
X159753318Y-87191512D01*
X159572472Y-87173700D01*
X159451528Y-87173700D01*
X159270682Y-87191512D01*
X159038637Y-87261902D01*
X158824784Y-87376209D01*
X158637340Y-87530040D01*
X158483509Y-87717484D01*
X158369202Y-87931337D01*
X158298812Y-88163382D01*
X158275044Y-88404700D01*
X148555706Y-88404700D01*
X148533188Y-88176082D01*
X148462798Y-87944037D01*
X148348491Y-87730184D01*
X148194660Y-87542740D01*
X148007216Y-87388909D01*
X147793363Y-87274602D01*
X147561318Y-87204212D01*
X147380472Y-87186400D01*
X147259528Y-87186400D01*
X147078682Y-87204212D01*
X146846637Y-87274602D01*
X146632784Y-87388909D01*
X146465612Y-87526103D01*
X146464020Y-87509942D01*
X146464020Y-87509933D01*
X146456853Y-87437164D01*
X146428531Y-87343800D01*
X146382539Y-87257755D01*
X146320644Y-87182336D01*
X146301750Y-87166830D01*
X145012320Y-85877400D01*
X146083044Y-85877400D01*
X146106812Y-86118718D01*
X146177202Y-86350763D01*
X146291509Y-86564616D01*
X146445340Y-86752060D01*
X146632784Y-86905891D01*
X146846637Y-87020198D01*
X147078682Y-87090588D01*
X147259528Y-87108400D01*
X147380472Y-87108400D01*
X147561318Y-87090588D01*
X147793363Y-87020198D01*
X148007216Y-86905891D01*
X148194660Y-86752060D01*
X148348491Y-86564616D01*
X148462798Y-86350763D01*
X148533188Y-86118718D01*
X148556956Y-85877400D01*
X148533188Y-85636082D01*
X148462798Y-85404037D01*
X148348491Y-85190184D01*
X148194660Y-85002740D01*
X148007216Y-84848909D01*
X147793363Y-84734602D01*
X147561318Y-84664212D01*
X147380472Y-84646400D01*
X147259528Y-84646400D01*
X147078682Y-84664212D01*
X146846637Y-84734602D01*
X146632784Y-84848909D01*
X146445340Y-85002740D01*
X146291509Y-85190184D01*
X146177202Y-85404037D01*
X146106812Y-85636082D01*
X146083044Y-85877400D01*
X145012320Y-85877400D01*
X144439039Y-85304119D01*
X144502208Y-85095878D01*
X144525976Y-84854560D01*
X144502208Y-84613242D01*
X144431818Y-84381197D01*
X144317511Y-84167344D01*
X144163680Y-83979900D01*
X143976236Y-83826069D01*
X143762383Y-83711762D01*
X143530338Y-83641372D01*
X143349492Y-83623560D01*
X143228548Y-83623560D01*
X143047702Y-83641372D01*
X142815657Y-83711762D01*
X142601804Y-83826069D01*
X142433360Y-83964307D01*
X142433360Y-83546846D01*
X142439020Y-83547403D01*
X144139020Y-83547403D01*
X144213709Y-83540047D01*
X144285528Y-83518261D01*
X144351716Y-83482882D01*
X144409731Y-83435271D01*
X144457342Y-83377256D01*
X144492721Y-83311068D01*
X144514507Y-83239249D01*
X144521863Y-83164560D01*
X144521863Y-81464560D01*
X144514507Y-81389871D01*
X144492721Y-81318052D01*
X144457342Y-81251864D01*
X144409731Y-81193849D01*
X144351716Y-81146238D01*
X144285528Y-81110859D01*
X144213709Y-81089073D01*
X144139020Y-81081717D01*
X142439020Y-81081717D01*
X142433360Y-81082274D01*
X142433360Y-79950445D01*
X142554964Y-80132438D01*
X142907502Y-80484976D01*
X143322042Y-80761963D01*
X143782655Y-80952755D01*
X144271638Y-81050020D01*
X144770202Y-81050020D01*
X145259185Y-80952755D01*
X145719798Y-80761963D01*
X146134338Y-80484976D01*
X146486876Y-80132438D01*
X146763863Y-79717898D01*
X146954655Y-79257285D01*
X147051920Y-78768302D01*
X147051920Y-78269738D01*
X146954655Y-77780755D01*
X146763863Y-77320142D01*
X146486876Y-76905602D01*
X146134338Y-76553064D01*
X145936032Y-76420560D01*
X160885808Y-76420560D01*
X160687502Y-76553064D01*
M02*
