M48
; DRILL file {KiCad 5.1.4-e60b266~84~ubuntu19.04.1} date Fri 25 Oct 2019 01:24:23 PM MST
; FORMAT={-:-/ absolute / inch / decimal}
; #@! TF.CreationDate,2019-10-25T13:24:23-07:00
; #@! TF.GenerationSoftware,Kicad,Pcbnew,5.1.4-e60b266~84~ubuntu19.04.1
FMAT,2
INCH
T1C0.0130
T2C0.0150
T3C0.0157
T4C0.0394
T5C0.1063
T6C0.1063
%
G90
G05
T1
X5.855Y-4.07
X6.0025Y-4.0025
X6.06Y-4.27
X6.065Y-3.8975
X6.16Y-4.375
X6.245Y-3.9
T2
X5.7325Y-3.975
X5.8448Y-3.8975
X6.212Y-4.179
X6.2702Y-4.6304
T3
X5.78Y-4.44
X5.8666Y-4.0194
X5.875Y-4.1863
X5.8762Y-4.5004
X5.8784Y-4.243
X5.9446Y-4.554
X6.0591Y-4.3733
X6.2175Y-4.005
X6.2775Y-4.55
T4
X5.6413Y-3.2407
X5.6413Y-3.3407
X5.6413Y-3.4407
X5.6413Y-3.5407
X5.6413Y-3.6407
X5.6413Y-3.7407
X5.6413Y-3.8407
X5.6413Y-3.9407
X5.6413Y-4.0407
X5.6413Y-4.1407
X5.6413Y-4.2407
X5.6413Y-4.3407
X5.6413Y-4.4407
X5.6413Y-4.5407
X5.6413Y-4.6407
X5.6413Y-4.7407
X6.438Y-3.6408
X6.438Y-3.7408
X6.438Y-3.8408
X6.438Y-3.9408
X6.438Y-4.0408
X6.438Y-4.1408
X6.438Y-4.2408
X6.438Y-4.3408
X6.438Y-4.4408
X6.438Y-4.5408
X6.438Y-4.6408
X6.438Y-4.7408
X5.8Y-3.381
X5.8Y-3.481
X5.8Y-3.581
X5.8Y-3.681
X5.8Y-3.781
X6.28Y-3.4805
X6.28Y-3.5805
X6.28Y-3.6805
X6.28Y-3.7805
T5
X6.3898Y-3.0913
X5.6898Y-3.0913
T6
X6.3898Y-4.8913
X5.6898Y-4.8913
T0
M30
