G04 #@! TF.GenerationSoftware,KiCad,Pcbnew,5.1.4-e60b266~84~ubuntu19.04.1*
G04 #@! TF.CreationDate,2019-10-25T13:24:14-07:00*
G04 #@! TF.ProjectId,Wifi-FeatherWing,57696669-2d46-4656-9174-68657257696e,rev?*
G04 #@! TF.SameCoordinates,Original*
G04 #@! TF.FileFunction,Copper,L1,Top*
G04 #@! TF.FilePolarity,Positive*
%FSLAX46Y46*%
G04 Gerber Fmt 4.6, Leading zero omitted, Abs format (unit mm)*
G04 Created by KiCad (PCBNEW 5.1.4-e60b266~84~ubuntu19.04.1) date 2019-10-25 13:24:14*
%MOMM*%
%LPD*%
G04 APERTURE LIST*
%ADD10R,1.900000X0.800000*%
%ADD11R,0.800000X1.900000*%
%ADD12R,3.700000X3.700000*%
%ADD13C,0.100000*%
%ADD14C,0.975000*%
%ADD15O,1.700000X1.700000*%
%ADD16R,1.700000X1.700000*%
%ADD17C,4.300000*%
%ADD18C,0.590000*%
%ADD19C,0.800000*%
%ADD20C,0.762000*%
%ADD21C,0.685800*%
%ADD22C,0.250000*%
%ADD23C,0.228600*%
%ADD24C,0.152400*%
%ADD25C,0.254000*%
G04 APERTURE END LIST*
D10*
X146051000Y-107481600D03*
X146051000Y-108497600D03*
X146051000Y-109513600D03*
X146051000Y-110529600D03*
X146051000Y-114593600D03*
X146051000Y-116625600D03*
X146051000Y-117641600D03*
X146051000Y-118657600D03*
X146051000Y-119673600D03*
X160781000Y-117635600D03*
X160781000Y-116619600D03*
X160781000Y-115603600D03*
X160781000Y-114587600D03*
X160781000Y-113571600D03*
X160781000Y-112555600D03*
X160781000Y-111539600D03*
X160781000Y-110523600D03*
X160781000Y-109507600D03*
X160781000Y-108491600D03*
D11*
X158881000Y-104811600D03*
X155833000Y-104811600D03*
X154817000Y-104811600D03*
X153801000Y-104811600D03*
X152785000Y-104811600D03*
X151769000Y-104811600D03*
X150753000Y-104811600D03*
X149737000Y-104811600D03*
X148721000Y-104811600D03*
D12*
X153901000Y-111081600D03*
D13*
G36*
X154531142Y-101162174D02*
G01*
X154554803Y-101165684D01*
X154578007Y-101171496D01*
X154600529Y-101179554D01*
X154622153Y-101189782D01*
X154642670Y-101202079D01*
X154661883Y-101216329D01*
X154679607Y-101232393D01*
X154695671Y-101250117D01*
X154709921Y-101269330D01*
X154722218Y-101289847D01*
X154732446Y-101311471D01*
X154740504Y-101333993D01*
X154746316Y-101357197D01*
X154749826Y-101380858D01*
X154751000Y-101404750D01*
X154751000Y-101892250D01*
X154749826Y-101916142D01*
X154746316Y-101939803D01*
X154740504Y-101963007D01*
X154732446Y-101985529D01*
X154722218Y-102007153D01*
X154709921Y-102027670D01*
X154695671Y-102046883D01*
X154679607Y-102064607D01*
X154661883Y-102080671D01*
X154642670Y-102094921D01*
X154622153Y-102107218D01*
X154600529Y-102117446D01*
X154578007Y-102125504D01*
X154554803Y-102131316D01*
X154531142Y-102134826D01*
X154507250Y-102136000D01*
X153594750Y-102136000D01*
X153570858Y-102134826D01*
X153547197Y-102131316D01*
X153523993Y-102125504D01*
X153501471Y-102117446D01*
X153479847Y-102107218D01*
X153459330Y-102094921D01*
X153440117Y-102080671D01*
X153422393Y-102064607D01*
X153406329Y-102046883D01*
X153392079Y-102027670D01*
X153379782Y-102007153D01*
X153369554Y-101985529D01*
X153361496Y-101963007D01*
X153355684Y-101939803D01*
X153352174Y-101916142D01*
X153351000Y-101892250D01*
X153351000Y-101404750D01*
X153352174Y-101380858D01*
X153355684Y-101357197D01*
X153361496Y-101333993D01*
X153369554Y-101311471D01*
X153379782Y-101289847D01*
X153392079Y-101269330D01*
X153406329Y-101250117D01*
X153422393Y-101232393D01*
X153440117Y-101216329D01*
X153459330Y-101202079D01*
X153479847Y-101189782D01*
X153501471Y-101179554D01*
X153523993Y-101171496D01*
X153547197Y-101165684D01*
X153570858Y-101162174D01*
X153594750Y-101161000D01*
X154507250Y-101161000D01*
X154531142Y-101162174D01*
X154531142Y-101162174D01*
G37*
D14*
X154051000Y-101648500D03*
D13*
G36*
X154531142Y-99287174D02*
G01*
X154554803Y-99290684D01*
X154578007Y-99296496D01*
X154600529Y-99304554D01*
X154622153Y-99314782D01*
X154642670Y-99327079D01*
X154661883Y-99341329D01*
X154679607Y-99357393D01*
X154695671Y-99375117D01*
X154709921Y-99394330D01*
X154722218Y-99414847D01*
X154732446Y-99436471D01*
X154740504Y-99458993D01*
X154746316Y-99482197D01*
X154749826Y-99505858D01*
X154751000Y-99529750D01*
X154751000Y-100017250D01*
X154749826Y-100041142D01*
X154746316Y-100064803D01*
X154740504Y-100088007D01*
X154732446Y-100110529D01*
X154722218Y-100132153D01*
X154709921Y-100152670D01*
X154695671Y-100171883D01*
X154679607Y-100189607D01*
X154661883Y-100205671D01*
X154642670Y-100219921D01*
X154622153Y-100232218D01*
X154600529Y-100242446D01*
X154578007Y-100250504D01*
X154554803Y-100256316D01*
X154531142Y-100259826D01*
X154507250Y-100261000D01*
X153594750Y-100261000D01*
X153570858Y-100259826D01*
X153547197Y-100256316D01*
X153523993Y-100250504D01*
X153501471Y-100242446D01*
X153479847Y-100232218D01*
X153459330Y-100219921D01*
X153440117Y-100205671D01*
X153422393Y-100189607D01*
X153406329Y-100171883D01*
X153392079Y-100152670D01*
X153379782Y-100132153D01*
X153369554Y-100110529D01*
X153361496Y-100088007D01*
X153355684Y-100064803D01*
X153352174Y-100041142D01*
X153351000Y-100017250D01*
X153351000Y-99529750D01*
X153352174Y-99505858D01*
X153355684Y-99482197D01*
X153361496Y-99458993D01*
X153369554Y-99436471D01*
X153379782Y-99414847D01*
X153392079Y-99394330D01*
X153406329Y-99375117D01*
X153422393Y-99357393D01*
X153440117Y-99341329D01*
X153459330Y-99327079D01*
X153479847Y-99314782D01*
X153501471Y-99304554D01*
X153523993Y-99296496D01*
X153547197Y-99290684D01*
X153570858Y-99287174D01*
X153594750Y-99286000D01*
X154507250Y-99286000D01*
X154531142Y-99287174D01*
X154531142Y-99287174D01*
G37*
D14*
X154051000Y-99773500D03*
D15*
X163525200Y-120416320D03*
X163525200Y-117876320D03*
X163525200Y-115336320D03*
X163525200Y-112796320D03*
X163525200Y-110256320D03*
X163525200Y-107716320D03*
X163525200Y-105176320D03*
X163525200Y-102636320D03*
X163525200Y-100096320D03*
X163525200Y-97556320D03*
X163525200Y-95016320D03*
D16*
X163525200Y-92476320D03*
X143289020Y-82314560D03*
D15*
X143289020Y-84854560D03*
X143289020Y-87394560D03*
X143289020Y-89934560D03*
X143289020Y-92474560D03*
X143289020Y-95014560D03*
X143289020Y-97554560D03*
X143289020Y-100094560D03*
X143289020Y-102634560D03*
X143289020Y-105174560D03*
X143289020Y-107714560D03*
X143289020Y-110254560D03*
X143289020Y-112794560D03*
X143289020Y-115334560D03*
X143289020Y-117874560D03*
X143289020Y-120414560D03*
D17*
X144520920Y-78519020D03*
X162300920Y-78519020D03*
D13*
G36*
X149019342Y-99314874D02*
G01*
X149043003Y-99318384D01*
X149066207Y-99324196D01*
X149088729Y-99332254D01*
X149110353Y-99342482D01*
X149130870Y-99354779D01*
X149150083Y-99369029D01*
X149167807Y-99385093D01*
X149183871Y-99402817D01*
X149198121Y-99422030D01*
X149210418Y-99442547D01*
X149220646Y-99464171D01*
X149228704Y-99486693D01*
X149234516Y-99509897D01*
X149238026Y-99533558D01*
X149239200Y-99557450D01*
X149239200Y-100044950D01*
X149238026Y-100068842D01*
X149234516Y-100092503D01*
X149228704Y-100115707D01*
X149220646Y-100138229D01*
X149210418Y-100159853D01*
X149198121Y-100180370D01*
X149183871Y-100199583D01*
X149167807Y-100217307D01*
X149150083Y-100233371D01*
X149130870Y-100247621D01*
X149110353Y-100259918D01*
X149088729Y-100270146D01*
X149066207Y-100278204D01*
X149043003Y-100284016D01*
X149019342Y-100287526D01*
X148995450Y-100288700D01*
X148082950Y-100288700D01*
X148059058Y-100287526D01*
X148035397Y-100284016D01*
X148012193Y-100278204D01*
X147989671Y-100270146D01*
X147968047Y-100259918D01*
X147947530Y-100247621D01*
X147928317Y-100233371D01*
X147910593Y-100217307D01*
X147894529Y-100199583D01*
X147880279Y-100180370D01*
X147867982Y-100159853D01*
X147857754Y-100138229D01*
X147849696Y-100115707D01*
X147843884Y-100092503D01*
X147840374Y-100068842D01*
X147839200Y-100044950D01*
X147839200Y-99557450D01*
X147840374Y-99533558D01*
X147843884Y-99509897D01*
X147849696Y-99486693D01*
X147857754Y-99464171D01*
X147867982Y-99442547D01*
X147880279Y-99422030D01*
X147894529Y-99402817D01*
X147910593Y-99385093D01*
X147928317Y-99369029D01*
X147947530Y-99354779D01*
X147968047Y-99342482D01*
X147989671Y-99332254D01*
X148012193Y-99324196D01*
X148035397Y-99318384D01*
X148059058Y-99314874D01*
X148082950Y-99313700D01*
X148995450Y-99313700D01*
X149019342Y-99314874D01*
X149019342Y-99314874D01*
G37*
D14*
X148539200Y-99801200D03*
D13*
G36*
X149019342Y-101189874D02*
G01*
X149043003Y-101193384D01*
X149066207Y-101199196D01*
X149088729Y-101207254D01*
X149110353Y-101217482D01*
X149130870Y-101229779D01*
X149150083Y-101244029D01*
X149167807Y-101260093D01*
X149183871Y-101277817D01*
X149198121Y-101297030D01*
X149210418Y-101317547D01*
X149220646Y-101339171D01*
X149228704Y-101361693D01*
X149234516Y-101384897D01*
X149238026Y-101408558D01*
X149239200Y-101432450D01*
X149239200Y-101919950D01*
X149238026Y-101943842D01*
X149234516Y-101967503D01*
X149228704Y-101990707D01*
X149220646Y-102013229D01*
X149210418Y-102034853D01*
X149198121Y-102055370D01*
X149183871Y-102074583D01*
X149167807Y-102092307D01*
X149150083Y-102108371D01*
X149130870Y-102122621D01*
X149110353Y-102134918D01*
X149088729Y-102145146D01*
X149066207Y-102153204D01*
X149043003Y-102159016D01*
X149019342Y-102162526D01*
X148995450Y-102163700D01*
X148082950Y-102163700D01*
X148059058Y-102162526D01*
X148035397Y-102159016D01*
X148012193Y-102153204D01*
X147989671Y-102145146D01*
X147968047Y-102134918D01*
X147947530Y-102122621D01*
X147928317Y-102108371D01*
X147910593Y-102092307D01*
X147894529Y-102074583D01*
X147880279Y-102055370D01*
X147867982Y-102034853D01*
X147857754Y-102013229D01*
X147849696Y-101990707D01*
X147843884Y-101967503D01*
X147840374Y-101943842D01*
X147839200Y-101919950D01*
X147839200Y-101432450D01*
X147840374Y-101408558D01*
X147843884Y-101384897D01*
X147849696Y-101361693D01*
X147857754Y-101339171D01*
X147867982Y-101317547D01*
X147880279Y-101297030D01*
X147894529Y-101277817D01*
X147910593Y-101260093D01*
X147928317Y-101244029D01*
X147947530Y-101229779D01*
X147968047Y-101217482D01*
X147989671Y-101207254D01*
X148012193Y-101199196D01*
X148035397Y-101193384D01*
X148059058Y-101189874D01*
X148082950Y-101188700D01*
X148995450Y-101188700D01*
X149019342Y-101189874D01*
X149019342Y-101189874D01*
G37*
D14*
X148539200Y-101676200D03*
D13*
G36*
X159382542Y-101174874D02*
G01*
X159406203Y-101178384D01*
X159429407Y-101184196D01*
X159451929Y-101192254D01*
X159473553Y-101202482D01*
X159494070Y-101214779D01*
X159513283Y-101229029D01*
X159531007Y-101245093D01*
X159547071Y-101262817D01*
X159561321Y-101282030D01*
X159573618Y-101302547D01*
X159583846Y-101324171D01*
X159591904Y-101346693D01*
X159597716Y-101369897D01*
X159601226Y-101393558D01*
X159602400Y-101417450D01*
X159602400Y-101904950D01*
X159601226Y-101928842D01*
X159597716Y-101952503D01*
X159591904Y-101975707D01*
X159583846Y-101998229D01*
X159573618Y-102019853D01*
X159561321Y-102040370D01*
X159547071Y-102059583D01*
X159531007Y-102077307D01*
X159513283Y-102093371D01*
X159494070Y-102107621D01*
X159473553Y-102119918D01*
X159451929Y-102130146D01*
X159429407Y-102138204D01*
X159406203Y-102144016D01*
X159382542Y-102147526D01*
X159358650Y-102148700D01*
X158446150Y-102148700D01*
X158422258Y-102147526D01*
X158398597Y-102144016D01*
X158375393Y-102138204D01*
X158352871Y-102130146D01*
X158331247Y-102119918D01*
X158310730Y-102107621D01*
X158291517Y-102093371D01*
X158273793Y-102077307D01*
X158257729Y-102059583D01*
X158243479Y-102040370D01*
X158231182Y-102019853D01*
X158220954Y-101998229D01*
X158212896Y-101975707D01*
X158207084Y-101952503D01*
X158203574Y-101928842D01*
X158202400Y-101904950D01*
X158202400Y-101417450D01*
X158203574Y-101393558D01*
X158207084Y-101369897D01*
X158212896Y-101346693D01*
X158220954Y-101324171D01*
X158231182Y-101302547D01*
X158243479Y-101282030D01*
X158257729Y-101262817D01*
X158273793Y-101245093D01*
X158291517Y-101229029D01*
X158310730Y-101214779D01*
X158331247Y-101202482D01*
X158352871Y-101192254D01*
X158375393Y-101184196D01*
X158398597Y-101178384D01*
X158422258Y-101174874D01*
X158446150Y-101173700D01*
X159358650Y-101173700D01*
X159382542Y-101174874D01*
X159382542Y-101174874D01*
G37*
D14*
X158902400Y-101661200D03*
D13*
G36*
X159382542Y-99299874D02*
G01*
X159406203Y-99303384D01*
X159429407Y-99309196D01*
X159451929Y-99317254D01*
X159473553Y-99327482D01*
X159494070Y-99339779D01*
X159513283Y-99354029D01*
X159531007Y-99370093D01*
X159547071Y-99387817D01*
X159561321Y-99407030D01*
X159573618Y-99427547D01*
X159583846Y-99449171D01*
X159591904Y-99471693D01*
X159597716Y-99494897D01*
X159601226Y-99518558D01*
X159602400Y-99542450D01*
X159602400Y-100029950D01*
X159601226Y-100053842D01*
X159597716Y-100077503D01*
X159591904Y-100100707D01*
X159583846Y-100123229D01*
X159573618Y-100144853D01*
X159561321Y-100165370D01*
X159547071Y-100184583D01*
X159531007Y-100202307D01*
X159513283Y-100218371D01*
X159494070Y-100232621D01*
X159473553Y-100244918D01*
X159451929Y-100255146D01*
X159429407Y-100263204D01*
X159406203Y-100269016D01*
X159382542Y-100272526D01*
X159358650Y-100273700D01*
X158446150Y-100273700D01*
X158422258Y-100272526D01*
X158398597Y-100269016D01*
X158375393Y-100263204D01*
X158352871Y-100255146D01*
X158331247Y-100244918D01*
X158310730Y-100232621D01*
X158291517Y-100218371D01*
X158273793Y-100202307D01*
X158257729Y-100184583D01*
X158243479Y-100165370D01*
X158231182Y-100144853D01*
X158220954Y-100123229D01*
X158212896Y-100100707D01*
X158207084Y-100077503D01*
X158203574Y-100053842D01*
X158202400Y-100029950D01*
X158202400Y-99542450D01*
X158203574Y-99518558D01*
X158207084Y-99494897D01*
X158212896Y-99471693D01*
X158220954Y-99449171D01*
X158231182Y-99427547D01*
X158243479Y-99407030D01*
X158257729Y-99387817D01*
X158273793Y-99370093D01*
X158291517Y-99354029D01*
X158310730Y-99339779D01*
X158331247Y-99327482D01*
X158352871Y-99317254D01*
X158375393Y-99309196D01*
X158398597Y-99303384D01*
X158422258Y-99299874D01*
X158446150Y-99298700D01*
X159358650Y-99298700D01*
X159382542Y-99299874D01*
X159382542Y-99299874D01*
G37*
D14*
X158902400Y-99786200D03*
D16*
X159512000Y-96024700D03*
D15*
X159512000Y-93484700D03*
X159512000Y-90944700D03*
X159512000Y-88404700D03*
D16*
X147320000Y-96037400D03*
D15*
X147320000Y-93497400D03*
X147320000Y-90957400D03*
X147320000Y-88417400D03*
X147320000Y-85877400D03*
D13*
G36*
X152650458Y-100924710D02*
G01*
X152664776Y-100926834D01*
X152678817Y-100930351D01*
X152692446Y-100935228D01*
X152705531Y-100941417D01*
X152717947Y-100948858D01*
X152729573Y-100957481D01*
X152740298Y-100967202D01*
X152750019Y-100977927D01*
X152758642Y-100989553D01*
X152766083Y-101001969D01*
X152772272Y-101015054D01*
X152777149Y-101028683D01*
X152780666Y-101042724D01*
X152782790Y-101057042D01*
X152783500Y-101071500D01*
X152783500Y-101366500D01*
X152782790Y-101380958D01*
X152780666Y-101395276D01*
X152777149Y-101409317D01*
X152772272Y-101422946D01*
X152766083Y-101436031D01*
X152758642Y-101448447D01*
X152750019Y-101460073D01*
X152740298Y-101470798D01*
X152729573Y-101480519D01*
X152717947Y-101489142D01*
X152705531Y-101496583D01*
X152692446Y-101502772D01*
X152678817Y-101507649D01*
X152664776Y-101511166D01*
X152650458Y-101513290D01*
X152636000Y-101514000D01*
X152291000Y-101514000D01*
X152276542Y-101513290D01*
X152262224Y-101511166D01*
X152248183Y-101507649D01*
X152234554Y-101502772D01*
X152221469Y-101496583D01*
X152209053Y-101489142D01*
X152197427Y-101480519D01*
X152186702Y-101470798D01*
X152176981Y-101460073D01*
X152168358Y-101448447D01*
X152160917Y-101436031D01*
X152154728Y-101422946D01*
X152149851Y-101409317D01*
X152146334Y-101395276D01*
X152144210Y-101380958D01*
X152143500Y-101366500D01*
X152143500Y-101071500D01*
X152144210Y-101057042D01*
X152146334Y-101042724D01*
X152149851Y-101028683D01*
X152154728Y-101015054D01*
X152160917Y-101001969D01*
X152168358Y-100989553D01*
X152176981Y-100977927D01*
X152186702Y-100967202D01*
X152197427Y-100957481D01*
X152209053Y-100948858D01*
X152221469Y-100941417D01*
X152234554Y-100935228D01*
X152248183Y-100930351D01*
X152262224Y-100926834D01*
X152276542Y-100924710D01*
X152291000Y-100924000D01*
X152636000Y-100924000D01*
X152650458Y-100924710D01*
X152650458Y-100924710D01*
G37*
D18*
X152463500Y-101219000D03*
D13*
G36*
X152650458Y-99954710D02*
G01*
X152664776Y-99956834D01*
X152678817Y-99960351D01*
X152692446Y-99965228D01*
X152705531Y-99971417D01*
X152717947Y-99978858D01*
X152729573Y-99987481D01*
X152740298Y-99997202D01*
X152750019Y-100007927D01*
X152758642Y-100019553D01*
X152766083Y-100031969D01*
X152772272Y-100045054D01*
X152777149Y-100058683D01*
X152780666Y-100072724D01*
X152782790Y-100087042D01*
X152783500Y-100101500D01*
X152783500Y-100396500D01*
X152782790Y-100410958D01*
X152780666Y-100425276D01*
X152777149Y-100439317D01*
X152772272Y-100452946D01*
X152766083Y-100466031D01*
X152758642Y-100478447D01*
X152750019Y-100490073D01*
X152740298Y-100500798D01*
X152729573Y-100510519D01*
X152717947Y-100519142D01*
X152705531Y-100526583D01*
X152692446Y-100532772D01*
X152678817Y-100537649D01*
X152664776Y-100541166D01*
X152650458Y-100543290D01*
X152636000Y-100544000D01*
X152291000Y-100544000D01*
X152276542Y-100543290D01*
X152262224Y-100541166D01*
X152248183Y-100537649D01*
X152234554Y-100532772D01*
X152221469Y-100526583D01*
X152209053Y-100519142D01*
X152197427Y-100510519D01*
X152186702Y-100500798D01*
X152176981Y-100490073D01*
X152168358Y-100478447D01*
X152160917Y-100466031D01*
X152154728Y-100452946D01*
X152149851Y-100439317D01*
X152146334Y-100425276D01*
X152144210Y-100410958D01*
X152143500Y-100396500D01*
X152143500Y-100101500D01*
X152144210Y-100087042D01*
X152146334Y-100072724D01*
X152149851Y-100058683D01*
X152154728Y-100045054D01*
X152160917Y-100031969D01*
X152168358Y-100019553D01*
X152176981Y-100007927D01*
X152186702Y-99997202D01*
X152197427Y-99987481D01*
X152209053Y-99978858D01*
X152221469Y-99971417D01*
X152234554Y-99965228D01*
X152248183Y-99960351D01*
X152262224Y-99956834D01*
X152276542Y-99954710D01*
X152291000Y-99954000D01*
X152636000Y-99954000D01*
X152650458Y-99954710D01*
X152650458Y-99954710D01*
G37*
D18*
X152463500Y-100249000D03*
D19*
X149011990Y-102093960D03*
X159448500Y-115570000D03*
X153901000Y-111081600D03*
D20*
X148457920Y-98996510D03*
D21*
X148717000Y-103378000D03*
X153924000Y-108458000D03*
X156464000Y-111125000D03*
D19*
X149224992Y-106331828D03*
D21*
X158622994Y-99060000D03*
D20*
X145605500Y-100965000D03*
D21*
X154051000Y-98996500D03*
D20*
X159263080Y-117612160D03*
X157784796Y-106146600D03*
D21*
X152463484Y-101663484D03*
D19*
X150992842Y-115671600D03*
X149254377Y-114311390D03*
X146812000Y-112776000D03*
X149311360Y-107772200D03*
X157924530Y-101727000D03*
D22*
X146051000Y-106831600D02*
X146515178Y-106367422D01*
X146051000Y-107481600D02*
X146051000Y-106831600D01*
X146515178Y-106367422D02*
X146515178Y-97905582D01*
X146515178Y-97905582D02*
X145790188Y-97180592D01*
X145790188Y-97180592D02*
X145790188Y-92487212D01*
X146470001Y-91807399D02*
X147320000Y-90957400D01*
X145790188Y-92487212D02*
X146470001Y-91807399D01*
X146192599Y-94624801D02*
X146470001Y-94347399D01*
X146917589Y-106210273D02*
X146917589Y-97738898D01*
X146470001Y-94347399D02*
X147320000Y-93497400D01*
X146917589Y-97738898D02*
X146192599Y-97013908D01*
X147574000Y-106866684D02*
X146917589Y-106210273D01*
X147574000Y-108174600D02*
X147574000Y-106866684D01*
X147251000Y-108497600D02*
X147574000Y-108174600D01*
X146051000Y-108497600D02*
X147251000Y-108497600D01*
X146192599Y-97013908D02*
X146192599Y-94624801D01*
X147251000Y-109513600D02*
X146051000Y-109513600D01*
X148024011Y-108740589D02*
X147251000Y-109513600D01*
X147320000Y-106043589D02*
X148024011Y-106747600D01*
X147320000Y-96037400D02*
X147320000Y-106043589D01*
X148024011Y-106747600D02*
X148024011Y-108740589D01*
X148594230Y-101676200D02*
X148611991Y-101693961D01*
X148611991Y-101693961D02*
X149011990Y-102093960D01*
X148539200Y-101676200D02*
X148594230Y-101676200D01*
X147251000Y-110529600D02*
X146051000Y-110529600D01*
X148479678Y-109300922D02*
X147251000Y-110529600D01*
X148479678Y-106505280D02*
X148479678Y-109300922D01*
X147764500Y-105790102D02*
X148479678Y-106505280D01*
X148539200Y-101676200D02*
X147764500Y-102450900D01*
X147764500Y-102450900D02*
X147764500Y-105790102D01*
X160781000Y-115603600D02*
X159482100Y-115603600D01*
X159482100Y-115603600D02*
X159448500Y-115570000D01*
D23*
X148539200Y-99801200D02*
X148539200Y-99077790D01*
X148539200Y-99077790D02*
X148457920Y-98996510D01*
D24*
X148721000Y-104811600D02*
X148721000Y-103382000D01*
X148721000Y-103382000D02*
X148717000Y-103378000D01*
X153901000Y-111081600D02*
X153901000Y-108481000D01*
X153901000Y-108481000D02*
X153924000Y-108458000D01*
X153901000Y-111081600D02*
X156420600Y-111081600D01*
X156420600Y-111081600D02*
X156464000Y-111125000D01*
D23*
X145501000Y-119673600D02*
X146051000Y-119673600D01*
X145032600Y-120142000D02*
X145501000Y-119673600D01*
X143289020Y-120414560D02*
X143561580Y-120142000D01*
X143561580Y-120142000D02*
X145032600Y-120142000D01*
D22*
X148721000Y-106011600D02*
X149041228Y-106331828D01*
X149041228Y-106331828D02*
X149224992Y-106331828D01*
X148721000Y-104811600D02*
X148721000Y-106011600D01*
D24*
X158902400Y-99786200D02*
X158902400Y-99198700D01*
D23*
X154051000Y-99773500D02*
X154051000Y-98996500D01*
D22*
X158661100Y-104591700D02*
X158881000Y-104811600D01*
D23*
X160781000Y-117635600D02*
X159286520Y-117635600D01*
X159286520Y-117635600D02*
X159263080Y-117612160D01*
X158881000Y-105361600D02*
X158096000Y-106146600D01*
X153957400Y-106146600D02*
X157245981Y-106146600D01*
X157245981Y-106146600D02*
X157784796Y-106146600D01*
X153801000Y-105990200D02*
X153957400Y-106146600D01*
X153801000Y-104811600D02*
X153801000Y-105990200D01*
X158096000Y-106146600D02*
X157784796Y-106146600D01*
X158881000Y-104811600D02*
X158881000Y-105361600D01*
X153621500Y-101219000D02*
X154051000Y-101648500D01*
X152463500Y-101219000D02*
X153621500Y-101219000D01*
X153801000Y-101898500D02*
X154051000Y-101648500D01*
X153801000Y-104811600D02*
X153801000Y-101898500D01*
X152463500Y-101219000D02*
X152463500Y-101663500D01*
X152463500Y-101663500D02*
X152463484Y-101663484D01*
D22*
X151940842Y-116619600D02*
X151392841Y-116071599D01*
X151392841Y-116071599D02*
X150992842Y-115671600D01*
X160781000Y-116619600D02*
X151940842Y-116619600D01*
X162776480Y-114587600D02*
X163525200Y-115336320D01*
X160781000Y-114587600D02*
X162776480Y-114587600D01*
X161700002Y-113571600D02*
X160781000Y-113571600D01*
X162052000Y-113219602D02*
X161700002Y-113571600D01*
X159512000Y-88404700D02*
X162052000Y-90944700D01*
X162052000Y-90944700D02*
X162052000Y-113219602D01*
X149654376Y-114711389D02*
X149254377Y-114311390D01*
X156560611Y-114711389D02*
X149654376Y-114711389D01*
X158716400Y-112555600D02*
X156560611Y-114711389D01*
X160781000Y-112555600D02*
X158716400Y-112555600D01*
X151701931Y-114242011D02*
X151104600Y-113644680D01*
X156393579Y-114242011D02*
X151701931Y-114242011D01*
X160781000Y-111539600D02*
X159095990Y-111539600D01*
X159095990Y-111539600D02*
X156393579Y-114242011D01*
D23*
X144708880Y-98974420D02*
X143289020Y-97554560D01*
X144708880Y-112069880D02*
X144708880Y-98974420D01*
X146141440Y-113502440D02*
X144708880Y-112069880D01*
X151104600Y-113644680D02*
X150962360Y-113502440D01*
X150962360Y-113502440D02*
X146141440Y-113502440D01*
D22*
X152326398Y-113792000D02*
X151310398Y-112776000D01*
X151310398Y-112776000D02*
X147377685Y-112776000D01*
X160781000Y-110523600D02*
X159475579Y-110523600D01*
X159475579Y-110523600D02*
X156207179Y-113792000D01*
X147377685Y-112776000D02*
X146812000Y-112776000D01*
X156207179Y-113792000D02*
X152326398Y-113792000D01*
X156612002Y-109507600D02*
X154876602Y-107772200D01*
X154876602Y-107772200D02*
X149877045Y-107772200D01*
X149877045Y-107772200D02*
X149311360Y-107772200D01*
X160781000Y-109507600D02*
X156612002Y-109507600D01*
X161290000Y-101470594D02*
X161290000Y-92722700D01*
X160361999Y-91794699D02*
X159512000Y-90944700D01*
X160781000Y-101979594D02*
X161290000Y-101470594D01*
X160781000Y-108491600D02*
X160781000Y-101979594D01*
X161290000Y-92722700D02*
X160361999Y-91794699D01*
X160361999Y-94334699D02*
X159512000Y-93484700D01*
X160782000Y-101409500D02*
X160782000Y-94754700D01*
X159512000Y-102679500D02*
X160782000Y-101409500D01*
X156173400Y-104811600D02*
X158305500Y-102679500D01*
X160782000Y-94754700D02*
X160361999Y-94334699D01*
X158305500Y-102679500D02*
X159512000Y-102679500D01*
X155833000Y-104811600D02*
X156173400Y-104811600D01*
D23*
X154817000Y-103633000D02*
X156723000Y-101727000D01*
X158902400Y-101661200D02*
X157990330Y-101661200D01*
X157990330Y-101661200D02*
X157924530Y-101727000D01*
X157358845Y-101727000D02*
X157924530Y-101727000D01*
X156723000Y-101727000D02*
X157358845Y-101727000D01*
X154817000Y-104811600D02*
X154817000Y-103633000D01*
D22*
X158412000Y-96024700D02*
X159512000Y-96024700D01*
X154482800Y-96024700D02*
X158412000Y-96024700D01*
X151769000Y-104811600D02*
X151769000Y-98738500D01*
X151769000Y-98738500D02*
X154482800Y-96024700D01*
X150753000Y-89310400D02*
X147320000Y-85877400D01*
X150753000Y-104811600D02*
X150753000Y-89310400D01*
X149737000Y-90834400D02*
X147320000Y-88417400D01*
X149737000Y-104811600D02*
X149737000Y-90834400D01*
D25*
G36*
X145749297Y-113810757D02*
G01*
X145101000Y-113810757D01*
X145026311Y-113818113D01*
X144954492Y-113839899D01*
X144888304Y-113875278D01*
X144830289Y-113922889D01*
X144782678Y-113980904D01*
X144747299Y-114047092D01*
X144725513Y-114118911D01*
X144718157Y-114193600D01*
X144718157Y-114993600D01*
X144725513Y-115068289D01*
X144747299Y-115140108D01*
X144782678Y-115206296D01*
X144830289Y-115264311D01*
X144888304Y-115311922D01*
X144954492Y-115347301D01*
X145026311Y-115369087D01*
X145101000Y-115376443D01*
X147001000Y-115376443D01*
X147075689Y-115369087D01*
X147147508Y-115347301D01*
X147213696Y-115311922D01*
X147271711Y-115264311D01*
X147319322Y-115206296D01*
X147354701Y-115140108D01*
X147376487Y-115068289D01*
X147383843Y-114993600D01*
X147383843Y-114193600D01*
X147376487Y-114118911D01*
X147354701Y-114047092D01*
X147328321Y-113997740D01*
X148538947Y-113997740D01*
X148503390Y-114083581D01*
X148473377Y-114234468D01*
X148473377Y-114388312D01*
X148503390Y-114539199D01*
X148562264Y-114681332D01*
X148647735Y-114809249D01*
X148756518Y-114918032D01*
X148884435Y-115003503D01*
X149026568Y-115062377D01*
X149177455Y-115092390D01*
X149321015Y-115092390D01*
X149371897Y-115134148D01*
X149459801Y-115181134D01*
X149555183Y-115210067D01*
X149629522Y-115217389D01*
X149629529Y-115217389D01*
X149654375Y-115219836D01*
X149679221Y-115217389D01*
X150357035Y-115217389D01*
X150300729Y-115301658D01*
X150241855Y-115443791D01*
X150211842Y-115594678D01*
X150211842Y-115748522D01*
X150241855Y-115899409D01*
X150300729Y-116041542D01*
X150386200Y-116169459D01*
X150494983Y-116278242D01*
X150622900Y-116363713D01*
X150765033Y-116422587D01*
X150915920Y-116452600D01*
X151058251Y-116452600D01*
X151565470Y-116959820D01*
X151581315Y-116979127D01*
X151658363Y-117042359D01*
X151746267Y-117089345D01*
X151819449Y-117111544D01*
X151841648Y-117118278D01*
X151851536Y-117119252D01*
X151915988Y-117125600D01*
X151915995Y-117125600D01*
X151940841Y-117128047D01*
X151965687Y-117125600D01*
X158672009Y-117125600D01*
X158671196Y-117126413D01*
X158587804Y-117251218D01*
X158530363Y-117389893D01*
X158501080Y-117537110D01*
X158501080Y-117687210D01*
X158530363Y-117834427D01*
X158587804Y-117973102D01*
X158671196Y-118097907D01*
X158777333Y-118204044D01*
X158902138Y-118287436D01*
X159040813Y-118344877D01*
X159188030Y-118374160D01*
X159338130Y-118374160D01*
X159485347Y-118344877D01*
X159566382Y-118311311D01*
X159618304Y-118353922D01*
X159684492Y-118389301D01*
X159756311Y-118411087D01*
X159831000Y-118418443D01*
X161731000Y-118418443D01*
X161805689Y-118411087D01*
X161877508Y-118389301D01*
X161943696Y-118353922D01*
X162001711Y-118306311D01*
X162049322Y-118248296D01*
X162084701Y-118182108D01*
X162106487Y-118110289D01*
X162113843Y-118035600D01*
X162113843Y-117235600D01*
X162106487Y-117160911D01*
X162096382Y-117127600D01*
X162106487Y-117094289D01*
X162113843Y-117019600D01*
X162113843Y-116510872D01*
X162182185Y-116454785D01*
X162261537Y-116358094D01*
X162320502Y-116247780D01*
X162356812Y-116128082D01*
X162369072Y-116003600D01*
X162366000Y-115889350D01*
X162207252Y-115730602D01*
X162358413Y-115730602D01*
X162382402Y-115809683D01*
X162496709Y-116023536D01*
X162650540Y-116210980D01*
X162837984Y-116364811D01*
X163051837Y-116479118D01*
X163283882Y-116549508D01*
X163464728Y-116567320D01*
X163585672Y-116567320D01*
X163766518Y-116549508D01*
X163998563Y-116479118D01*
X164212416Y-116364811D01*
X164381361Y-116226162D01*
X164381361Y-116986478D01*
X164212416Y-116847829D01*
X163998563Y-116733522D01*
X163766518Y-116663132D01*
X163585672Y-116645320D01*
X163464728Y-116645320D01*
X163283882Y-116663132D01*
X163051837Y-116733522D01*
X162837984Y-116847829D01*
X162650540Y-117001660D01*
X162496709Y-117189104D01*
X162382402Y-117402957D01*
X162312012Y-117635002D01*
X162288244Y-117876320D01*
X162312012Y-118117638D01*
X162382402Y-118349683D01*
X162496709Y-118563536D01*
X162650540Y-118750980D01*
X162837984Y-118904811D01*
X163051837Y-119019118D01*
X163283882Y-119089508D01*
X163464728Y-119107320D01*
X163585672Y-119107320D01*
X163766518Y-119089508D01*
X163998563Y-119019118D01*
X164212416Y-118904811D01*
X164381361Y-118766162D01*
X164381361Y-119526478D01*
X164212416Y-119387829D01*
X163998563Y-119273522D01*
X163766518Y-119203132D01*
X163585672Y-119185320D01*
X163464728Y-119185320D01*
X163283882Y-119203132D01*
X163051837Y-119273522D01*
X162837984Y-119387829D01*
X162650540Y-119541660D01*
X162496709Y-119729104D01*
X162382402Y-119942957D01*
X162312012Y-120175002D01*
X162288244Y-120416320D01*
X162312012Y-120657638D01*
X162382402Y-120889683D01*
X162496709Y-121103536D01*
X162650540Y-121290980D01*
X162837984Y-121444811D01*
X163051837Y-121559118D01*
X163283882Y-121629508D01*
X163464728Y-121647320D01*
X163585672Y-121647320D01*
X163766518Y-121629508D01*
X163998563Y-121559118D01*
X164212416Y-121444811D01*
X164381361Y-121306162D01*
X164381361Y-124202244D01*
X164339525Y-124628919D01*
X164222092Y-125017879D01*
X164031347Y-125376618D01*
X163774553Y-125691478D01*
X163461498Y-125950459D01*
X163104094Y-126143707D01*
X162715966Y-126263853D01*
X162290604Y-126308560D01*
X161925000Y-126308560D01*
X161925000Y-125929157D01*
X162130431Y-125970020D01*
X162471409Y-125970020D01*
X162805834Y-125903499D01*
X163120856Y-125773013D01*
X163404368Y-125583576D01*
X163645476Y-125342468D01*
X163834913Y-125058956D01*
X163965399Y-124743934D01*
X164031920Y-124409509D01*
X164031920Y-124068531D01*
X163965399Y-123734106D01*
X163834913Y-123419084D01*
X163645476Y-123135572D01*
X163404368Y-122894464D01*
X163120856Y-122705027D01*
X162805834Y-122574541D01*
X162471409Y-122508020D01*
X162130431Y-122508020D01*
X161925000Y-122548883D01*
X161925000Y-120650000D01*
X161922560Y-120625224D01*
X161915333Y-120601399D01*
X161903597Y-120579443D01*
X161887803Y-120560197D01*
X161868557Y-120544403D01*
X161846601Y-120532667D01*
X161822776Y-120525440D01*
X161798000Y-120523000D01*
X147453650Y-120523000D01*
X147531537Y-120428094D01*
X147590502Y-120317780D01*
X147626812Y-120198082D01*
X147639072Y-120073600D01*
X147636000Y-119959350D01*
X147477250Y-119800600D01*
X146178000Y-119800600D01*
X146178000Y-119820600D01*
X145924000Y-119820600D01*
X145924000Y-119800600D01*
X145904000Y-119800600D01*
X145904000Y-119546600D01*
X145924000Y-119546600D01*
X145924000Y-119526600D01*
X146178000Y-119526600D01*
X146178000Y-119546600D01*
X147477250Y-119546600D01*
X147636000Y-119387850D01*
X147639072Y-119273600D01*
X147626812Y-119149118D01*
X147590502Y-119029420D01*
X147531537Y-118919106D01*
X147452185Y-118822415D01*
X147383843Y-118766328D01*
X147383843Y-118257600D01*
X147376487Y-118182911D01*
X147366382Y-118149600D01*
X147376487Y-118116289D01*
X147383843Y-118041600D01*
X147383843Y-117241600D01*
X147376487Y-117166911D01*
X147366382Y-117133600D01*
X147376487Y-117100289D01*
X147383843Y-117025600D01*
X147383843Y-116225600D01*
X147376487Y-116150911D01*
X147354701Y-116079092D01*
X147319322Y-116012904D01*
X147271711Y-115954889D01*
X147213696Y-115907278D01*
X147147508Y-115871899D01*
X147075689Y-115850113D01*
X147001000Y-115842757D01*
X145101000Y-115842757D01*
X145026311Y-115850113D01*
X144954492Y-115871899D01*
X144888304Y-115907278D01*
X144830289Y-115954889D01*
X144782678Y-116012904D01*
X144747299Y-116079092D01*
X144725513Y-116150911D01*
X144718157Y-116225600D01*
X144718157Y-117025600D01*
X144725513Y-117100289D01*
X144735618Y-117133600D01*
X144725513Y-117166911D01*
X144718157Y-117241600D01*
X144718157Y-118041600D01*
X144725513Y-118116289D01*
X144735618Y-118149600D01*
X144725513Y-118182911D01*
X144718157Y-118257600D01*
X144718157Y-118766328D01*
X144649815Y-118822415D01*
X144570463Y-118919106D01*
X144511498Y-119029420D01*
X144475188Y-119149118D01*
X144462928Y-119273600D01*
X144466000Y-119387850D01*
X144624748Y-119546598D01*
X144485295Y-119546598D01*
X144386608Y-119414291D01*
X144170375Y-119219382D01*
X143920272Y-119070403D01*
X143765715Y-119015577D01*
X143976236Y-118903051D01*
X144163680Y-118749220D01*
X144317511Y-118561776D01*
X144431818Y-118347923D01*
X144502208Y-118115878D01*
X144525976Y-117874560D01*
X144502208Y-117633242D01*
X144431818Y-117401197D01*
X144317511Y-117187344D01*
X144163680Y-116999900D01*
X143976236Y-116846069D01*
X143762383Y-116731762D01*
X143530338Y-116661372D01*
X143349492Y-116643560D01*
X143228548Y-116643560D01*
X143047702Y-116661372D01*
X142815657Y-116731762D01*
X142601804Y-116846069D01*
X142433360Y-116984307D01*
X142433360Y-116224813D01*
X142601804Y-116363051D01*
X142815657Y-116477358D01*
X143047702Y-116547748D01*
X143228548Y-116565560D01*
X143349492Y-116565560D01*
X143530338Y-116547748D01*
X143762383Y-116477358D01*
X143976236Y-116363051D01*
X144163680Y-116209220D01*
X144317511Y-116021776D01*
X144431818Y-115807923D01*
X144502208Y-115575878D01*
X144525976Y-115334560D01*
X144502208Y-115093242D01*
X144431818Y-114861197D01*
X144317511Y-114647344D01*
X144163680Y-114459900D01*
X143976236Y-114306069D01*
X143762383Y-114191762D01*
X143530338Y-114121372D01*
X143349492Y-114103560D01*
X143228548Y-114103560D01*
X143047702Y-114121372D01*
X142815657Y-114191762D01*
X142601804Y-114306069D01*
X142433360Y-114444307D01*
X142433360Y-113684813D01*
X142601804Y-113823051D01*
X142815657Y-113937358D01*
X143047702Y-114007748D01*
X143228548Y-114025560D01*
X143349492Y-114025560D01*
X143530338Y-114007748D01*
X143762383Y-113937358D01*
X143976236Y-113823051D01*
X144163680Y-113669220D01*
X144317511Y-113481776D01*
X144431818Y-113267923D01*
X144502208Y-113035878D01*
X144525976Y-112794560D01*
X144503347Y-112564806D01*
X145749297Y-113810757D01*
X145749297Y-113810757D01*
G37*
X145749297Y-113810757D02*
X145101000Y-113810757D01*
X145026311Y-113818113D01*
X144954492Y-113839899D01*
X144888304Y-113875278D01*
X144830289Y-113922889D01*
X144782678Y-113980904D01*
X144747299Y-114047092D01*
X144725513Y-114118911D01*
X144718157Y-114193600D01*
X144718157Y-114993600D01*
X144725513Y-115068289D01*
X144747299Y-115140108D01*
X144782678Y-115206296D01*
X144830289Y-115264311D01*
X144888304Y-115311922D01*
X144954492Y-115347301D01*
X145026311Y-115369087D01*
X145101000Y-115376443D01*
X147001000Y-115376443D01*
X147075689Y-115369087D01*
X147147508Y-115347301D01*
X147213696Y-115311922D01*
X147271711Y-115264311D01*
X147319322Y-115206296D01*
X147354701Y-115140108D01*
X147376487Y-115068289D01*
X147383843Y-114993600D01*
X147383843Y-114193600D01*
X147376487Y-114118911D01*
X147354701Y-114047092D01*
X147328321Y-113997740D01*
X148538947Y-113997740D01*
X148503390Y-114083581D01*
X148473377Y-114234468D01*
X148473377Y-114388312D01*
X148503390Y-114539199D01*
X148562264Y-114681332D01*
X148647735Y-114809249D01*
X148756518Y-114918032D01*
X148884435Y-115003503D01*
X149026568Y-115062377D01*
X149177455Y-115092390D01*
X149321015Y-115092390D01*
X149371897Y-115134148D01*
X149459801Y-115181134D01*
X149555183Y-115210067D01*
X149629522Y-115217389D01*
X149629529Y-115217389D01*
X149654375Y-115219836D01*
X149679221Y-115217389D01*
X150357035Y-115217389D01*
X150300729Y-115301658D01*
X150241855Y-115443791D01*
X150211842Y-115594678D01*
X150211842Y-115748522D01*
X150241855Y-115899409D01*
X150300729Y-116041542D01*
X150386200Y-116169459D01*
X150494983Y-116278242D01*
X150622900Y-116363713D01*
X150765033Y-116422587D01*
X150915920Y-116452600D01*
X151058251Y-116452600D01*
X151565470Y-116959820D01*
X151581315Y-116979127D01*
X151658363Y-117042359D01*
X151746267Y-117089345D01*
X151819449Y-117111544D01*
X151841648Y-117118278D01*
X151851536Y-117119252D01*
X151915988Y-117125600D01*
X151915995Y-117125600D01*
X151940841Y-117128047D01*
X151965687Y-117125600D01*
X158672009Y-117125600D01*
X158671196Y-117126413D01*
X158587804Y-117251218D01*
X158530363Y-117389893D01*
X158501080Y-117537110D01*
X158501080Y-117687210D01*
X158530363Y-117834427D01*
X158587804Y-117973102D01*
X158671196Y-118097907D01*
X158777333Y-118204044D01*
X158902138Y-118287436D01*
X159040813Y-118344877D01*
X159188030Y-118374160D01*
X159338130Y-118374160D01*
X159485347Y-118344877D01*
X159566382Y-118311311D01*
X159618304Y-118353922D01*
X159684492Y-118389301D01*
X159756311Y-118411087D01*
X159831000Y-118418443D01*
X161731000Y-118418443D01*
X161805689Y-118411087D01*
X161877508Y-118389301D01*
X161943696Y-118353922D01*
X162001711Y-118306311D01*
X162049322Y-118248296D01*
X162084701Y-118182108D01*
X162106487Y-118110289D01*
X162113843Y-118035600D01*
X162113843Y-117235600D01*
X162106487Y-117160911D01*
X162096382Y-117127600D01*
X162106487Y-117094289D01*
X162113843Y-117019600D01*
X162113843Y-116510872D01*
X162182185Y-116454785D01*
X162261537Y-116358094D01*
X162320502Y-116247780D01*
X162356812Y-116128082D01*
X162369072Y-116003600D01*
X162366000Y-115889350D01*
X162207252Y-115730602D01*
X162358413Y-115730602D01*
X162382402Y-115809683D01*
X162496709Y-116023536D01*
X162650540Y-116210980D01*
X162837984Y-116364811D01*
X163051837Y-116479118D01*
X163283882Y-116549508D01*
X163464728Y-116567320D01*
X163585672Y-116567320D01*
X163766518Y-116549508D01*
X163998563Y-116479118D01*
X164212416Y-116364811D01*
X164381361Y-116226162D01*
X164381361Y-116986478D01*
X164212416Y-116847829D01*
X163998563Y-116733522D01*
X163766518Y-116663132D01*
X163585672Y-116645320D01*
X163464728Y-116645320D01*
X163283882Y-116663132D01*
X163051837Y-116733522D01*
X162837984Y-116847829D01*
X162650540Y-117001660D01*
X162496709Y-117189104D01*
X162382402Y-117402957D01*
X162312012Y-117635002D01*
X162288244Y-117876320D01*
X162312012Y-118117638D01*
X162382402Y-118349683D01*
X162496709Y-118563536D01*
X162650540Y-118750980D01*
X162837984Y-118904811D01*
X163051837Y-119019118D01*
X163283882Y-119089508D01*
X163464728Y-119107320D01*
X163585672Y-119107320D01*
X163766518Y-119089508D01*
X163998563Y-119019118D01*
X164212416Y-118904811D01*
X164381361Y-118766162D01*
X164381361Y-119526478D01*
X164212416Y-119387829D01*
X163998563Y-119273522D01*
X163766518Y-119203132D01*
X163585672Y-119185320D01*
X163464728Y-119185320D01*
X163283882Y-119203132D01*
X163051837Y-119273522D01*
X162837984Y-119387829D01*
X162650540Y-119541660D01*
X162496709Y-119729104D01*
X162382402Y-119942957D01*
X162312012Y-120175002D01*
X162288244Y-120416320D01*
X162312012Y-120657638D01*
X162382402Y-120889683D01*
X162496709Y-121103536D01*
X162650540Y-121290980D01*
X162837984Y-121444811D01*
X163051837Y-121559118D01*
X163283882Y-121629508D01*
X163464728Y-121647320D01*
X163585672Y-121647320D01*
X163766518Y-121629508D01*
X163998563Y-121559118D01*
X164212416Y-121444811D01*
X164381361Y-121306162D01*
X164381361Y-124202244D01*
X164339525Y-124628919D01*
X164222092Y-125017879D01*
X164031347Y-125376618D01*
X163774553Y-125691478D01*
X163461498Y-125950459D01*
X163104094Y-126143707D01*
X162715966Y-126263853D01*
X162290604Y-126308560D01*
X161925000Y-126308560D01*
X161925000Y-125929157D01*
X162130431Y-125970020D01*
X162471409Y-125970020D01*
X162805834Y-125903499D01*
X163120856Y-125773013D01*
X163404368Y-125583576D01*
X163645476Y-125342468D01*
X163834913Y-125058956D01*
X163965399Y-124743934D01*
X164031920Y-124409509D01*
X164031920Y-124068531D01*
X163965399Y-123734106D01*
X163834913Y-123419084D01*
X163645476Y-123135572D01*
X163404368Y-122894464D01*
X163120856Y-122705027D01*
X162805834Y-122574541D01*
X162471409Y-122508020D01*
X162130431Y-122508020D01*
X161925000Y-122548883D01*
X161925000Y-120650000D01*
X161922560Y-120625224D01*
X161915333Y-120601399D01*
X161903597Y-120579443D01*
X161887803Y-120560197D01*
X161868557Y-120544403D01*
X161846601Y-120532667D01*
X161822776Y-120525440D01*
X161798000Y-120523000D01*
X147453650Y-120523000D01*
X147531537Y-120428094D01*
X147590502Y-120317780D01*
X147626812Y-120198082D01*
X147639072Y-120073600D01*
X147636000Y-119959350D01*
X147477250Y-119800600D01*
X146178000Y-119800600D01*
X146178000Y-119820600D01*
X145924000Y-119820600D01*
X145924000Y-119800600D01*
X145904000Y-119800600D01*
X145904000Y-119546600D01*
X145924000Y-119546600D01*
X145924000Y-119526600D01*
X146178000Y-119526600D01*
X146178000Y-119546600D01*
X147477250Y-119546600D01*
X147636000Y-119387850D01*
X147639072Y-119273600D01*
X147626812Y-119149118D01*
X147590502Y-119029420D01*
X147531537Y-118919106D01*
X147452185Y-118822415D01*
X147383843Y-118766328D01*
X147383843Y-118257600D01*
X147376487Y-118182911D01*
X147366382Y-118149600D01*
X147376487Y-118116289D01*
X147383843Y-118041600D01*
X147383843Y-117241600D01*
X147376487Y-117166911D01*
X147366382Y-117133600D01*
X147376487Y-117100289D01*
X147383843Y-117025600D01*
X147383843Y-116225600D01*
X147376487Y-116150911D01*
X147354701Y-116079092D01*
X147319322Y-116012904D01*
X147271711Y-115954889D01*
X147213696Y-115907278D01*
X147147508Y-115871899D01*
X147075689Y-115850113D01*
X147001000Y-115842757D01*
X145101000Y-115842757D01*
X145026311Y-115850113D01*
X144954492Y-115871899D01*
X144888304Y-115907278D01*
X144830289Y-115954889D01*
X144782678Y-116012904D01*
X144747299Y-116079092D01*
X144725513Y-116150911D01*
X144718157Y-116225600D01*
X144718157Y-117025600D01*
X144725513Y-117100289D01*
X144735618Y-117133600D01*
X144725513Y-117166911D01*
X144718157Y-117241600D01*
X144718157Y-118041600D01*
X144725513Y-118116289D01*
X144735618Y-118149600D01*
X144725513Y-118182911D01*
X144718157Y-118257600D01*
X144718157Y-118766328D01*
X144649815Y-118822415D01*
X144570463Y-118919106D01*
X144511498Y-119029420D01*
X144475188Y-119149118D01*
X144462928Y-119273600D01*
X144466000Y-119387850D01*
X144624748Y-119546598D01*
X144485295Y-119546598D01*
X144386608Y-119414291D01*
X144170375Y-119219382D01*
X143920272Y-119070403D01*
X143765715Y-119015577D01*
X143976236Y-118903051D01*
X144163680Y-118749220D01*
X144317511Y-118561776D01*
X144431818Y-118347923D01*
X144502208Y-118115878D01*
X144525976Y-117874560D01*
X144502208Y-117633242D01*
X144431818Y-117401197D01*
X144317511Y-117187344D01*
X144163680Y-116999900D01*
X143976236Y-116846069D01*
X143762383Y-116731762D01*
X143530338Y-116661372D01*
X143349492Y-116643560D01*
X143228548Y-116643560D01*
X143047702Y-116661372D01*
X142815657Y-116731762D01*
X142601804Y-116846069D01*
X142433360Y-116984307D01*
X142433360Y-116224813D01*
X142601804Y-116363051D01*
X142815657Y-116477358D01*
X143047702Y-116547748D01*
X143228548Y-116565560D01*
X143349492Y-116565560D01*
X143530338Y-116547748D01*
X143762383Y-116477358D01*
X143976236Y-116363051D01*
X144163680Y-116209220D01*
X144317511Y-116021776D01*
X144431818Y-115807923D01*
X144502208Y-115575878D01*
X144525976Y-115334560D01*
X144502208Y-115093242D01*
X144431818Y-114861197D01*
X144317511Y-114647344D01*
X144163680Y-114459900D01*
X143976236Y-114306069D01*
X143762383Y-114191762D01*
X143530338Y-114121372D01*
X143349492Y-114103560D01*
X143228548Y-114103560D01*
X143047702Y-114121372D01*
X142815657Y-114191762D01*
X142601804Y-114306069D01*
X142433360Y-114444307D01*
X142433360Y-113684813D01*
X142601804Y-113823051D01*
X142815657Y-113937358D01*
X143047702Y-114007748D01*
X143228548Y-114025560D01*
X143349492Y-114025560D01*
X143530338Y-114007748D01*
X143762383Y-113937358D01*
X143976236Y-113823051D01*
X144163680Y-113669220D01*
X144317511Y-113481776D01*
X144431818Y-113267923D01*
X144502208Y-113035878D01*
X144525976Y-112794560D01*
X144503347Y-112564806D01*
X145749297Y-113810757D01*
G36*
X143416020Y-120287560D02*
G01*
X143436020Y-120287560D01*
X143436020Y-120541560D01*
X143416020Y-120541560D01*
X143416020Y-121735374D01*
X143645911Y-121856041D01*
X143920272Y-121758717D01*
X144170375Y-121609738D01*
X144386608Y-121414829D01*
X144560661Y-121181480D01*
X144685845Y-120918659D01*
X144730496Y-120771450D01*
X144609176Y-120541562D01*
X144670258Y-120541562D01*
X144746506Y-120604137D01*
X144856820Y-120663102D01*
X144907000Y-120678324D01*
X144907000Y-122550904D01*
X144691409Y-122508020D01*
X144350431Y-122508020D01*
X144016006Y-122574541D01*
X143700984Y-122705027D01*
X143417472Y-122894464D01*
X143176364Y-123135572D01*
X142986927Y-123419084D01*
X142856441Y-123734106D01*
X142789920Y-124068531D01*
X142789920Y-124409509D01*
X142856441Y-124743934D01*
X142986927Y-125058956D01*
X143176364Y-125342468D01*
X143417472Y-125583576D01*
X143700984Y-125773013D01*
X144016006Y-125903499D01*
X144350431Y-125970020D01*
X144691409Y-125970020D01*
X144907000Y-125927136D01*
X144907000Y-126308560D01*
X144539665Y-126308560D01*
X144113001Y-126266725D01*
X143724041Y-126149292D01*
X143365302Y-125958547D01*
X143050442Y-125701753D01*
X142791461Y-125388698D01*
X142598213Y-125031294D01*
X142478067Y-124643166D01*
X142433360Y-124217804D01*
X142433360Y-121625044D01*
X142657768Y-121758717D01*
X142932129Y-121856041D01*
X143162020Y-121735374D01*
X143162020Y-120541560D01*
X143142020Y-120541560D01*
X143142020Y-120287560D01*
X143162020Y-120287560D01*
X143162020Y-120267560D01*
X143416020Y-120267560D01*
X143416020Y-120287560D01*
X143416020Y-120287560D01*
G37*
X143416020Y-120287560D02*
X143436020Y-120287560D01*
X143436020Y-120541560D01*
X143416020Y-120541560D01*
X143416020Y-121735374D01*
X143645911Y-121856041D01*
X143920272Y-121758717D01*
X144170375Y-121609738D01*
X144386608Y-121414829D01*
X144560661Y-121181480D01*
X144685845Y-120918659D01*
X144730496Y-120771450D01*
X144609176Y-120541562D01*
X144670258Y-120541562D01*
X144746506Y-120604137D01*
X144856820Y-120663102D01*
X144907000Y-120678324D01*
X144907000Y-122550904D01*
X144691409Y-122508020D01*
X144350431Y-122508020D01*
X144016006Y-122574541D01*
X143700984Y-122705027D01*
X143417472Y-122894464D01*
X143176364Y-123135572D01*
X142986927Y-123419084D01*
X142856441Y-123734106D01*
X142789920Y-124068531D01*
X142789920Y-124409509D01*
X142856441Y-124743934D01*
X142986927Y-125058956D01*
X143176364Y-125342468D01*
X143417472Y-125583576D01*
X143700984Y-125773013D01*
X144016006Y-125903499D01*
X144350431Y-125970020D01*
X144691409Y-125970020D01*
X144907000Y-125927136D01*
X144907000Y-126308560D01*
X144539665Y-126308560D01*
X144113001Y-126266725D01*
X143724041Y-126149292D01*
X143365302Y-125958547D01*
X143050442Y-125701753D01*
X142791461Y-125388698D01*
X142598213Y-125031294D01*
X142478067Y-124643166D01*
X142433360Y-124217804D01*
X142433360Y-121625044D01*
X142657768Y-121758717D01*
X142932129Y-121856041D01*
X143162020Y-121735374D01*
X143162020Y-120541560D01*
X143142020Y-120541560D01*
X143142020Y-120287560D01*
X143162020Y-120287560D01*
X143162020Y-120267560D01*
X143416020Y-120267560D01*
X143416020Y-120287560D01*
G36*
X159465618Y-113063600D02*
G01*
X159455513Y-113096911D01*
X159448157Y-113171600D01*
X159448157Y-113971600D01*
X159455513Y-114046289D01*
X159465618Y-114079600D01*
X159455513Y-114112911D01*
X159448157Y-114187600D01*
X159448157Y-114696328D01*
X159379815Y-114752415D01*
X159300463Y-114849106D01*
X159241498Y-114959420D01*
X159205188Y-115079118D01*
X159192928Y-115203600D01*
X159196000Y-115317850D01*
X159354750Y-115476600D01*
X160654000Y-115476600D01*
X160654000Y-115456600D01*
X160908000Y-115456600D01*
X160908000Y-115476600D01*
X160928000Y-115476600D01*
X160928000Y-115730600D01*
X160908000Y-115730600D01*
X160908000Y-115750600D01*
X160654000Y-115750600D01*
X160654000Y-115730600D01*
X159354750Y-115730600D01*
X159196000Y-115889350D01*
X159192928Y-116003600D01*
X159203762Y-116113600D01*
X152150434Y-116113600D01*
X151773842Y-115737009D01*
X151773842Y-115594678D01*
X151743829Y-115443791D01*
X151684955Y-115301658D01*
X151628649Y-115217389D01*
X156535765Y-115217389D01*
X156560611Y-115219836D01*
X156585457Y-115217389D01*
X156585465Y-115217389D01*
X156659804Y-115210067D01*
X156755186Y-115181134D01*
X156843090Y-115134148D01*
X156920138Y-115070916D01*
X156935987Y-115051604D01*
X158925992Y-113061600D01*
X159465011Y-113061600D01*
X159465618Y-113063600D01*
X159465618Y-113063600D01*
G37*
X159465618Y-113063600D02*
X159455513Y-113096911D01*
X159448157Y-113171600D01*
X159448157Y-113971600D01*
X159455513Y-114046289D01*
X159465618Y-114079600D01*
X159455513Y-114112911D01*
X159448157Y-114187600D01*
X159448157Y-114696328D01*
X159379815Y-114752415D01*
X159300463Y-114849106D01*
X159241498Y-114959420D01*
X159205188Y-115079118D01*
X159192928Y-115203600D01*
X159196000Y-115317850D01*
X159354750Y-115476600D01*
X160654000Y-115476600D01*
X160654000Y-115456600D01*
X160908000Y-115456600D01*
X160908000Y-115476600D01*
X160928000Y-115476600D01*
X160928000Y-115730600D01*
X160908000Y-115730600D01*
X160908000Y-115750600D01*
X160654000Y-115750600D01*
X160654000Y-115730600D01*
X159354750Y-115730600D01*
X159196000Y-115889350D01*
X159192928Y-116003600D01*
X159203762Y-116113600D01*
X152150434Y-116113600D01*
X151773842Y-115737009D01*
X151773842Y-115594678D01*
X151743829Y-115443791D01*
X151684955Y-115301658D01*
X151628649Y-115217389D01*
X156535765Y-115217389D01*
X156560611Y-115219836D01*
X156585457Y-115217389D01*
X156585465Y-115217389D01*
X156659804Y-115210067D01*
X156755186Y-115181134D01*
X156843090Y-115134148D01*
X156920138Y-115070916D01*
X156935987Y-115051604D01*
X158925992Y-113061600D01*
X159465011Y-113061600D01*
X159465618Y-113063600D01*
G36*
X154983845Y-108595035D02*
G01*
X154186750Y-108596600D01*
X154028000Y-108755350D01*
X154028000Y-110954600D01*
X156227250Y-110954600D01*
X156386000Y-110795850D01*
X156387639Y-109961423D01*
X156416954Y-109977092D01*
X156417427Y-109977345D01*
X156512808Y-110006278D01*
X156522696Y-110007252D01*
X156587148Y-110013600D01*
X156587155Y-110013600D01*
X156612001Y-110016047D01*
X156636847Y-110013600D01*
X159465011Y-110013600D01*
X159465618Y-110015600D01*
X159465451Y-110016150D01*
X159450725Y-110017600D01*
X159376386Y-110024922D01*
X159281004Y-110053855D01*
X159193100Y-110100841D01*
X159116052Y-110164073D01*
X159100207Y-110183380D01*
X156388999Y-112894589D01*
X156386000Y-111367350D01*
X156227250Y-111208600D01*
X154028000Y-111208600D01*
X154028000Y-111228600D01*
X153774000Y-111228600D01*
X153774000Y-111208600D01*
X151574750Y-111208600D01*
X151416000Y-111367350D01*
X151414210Y-112278723D01*
X151409591Y-112277322D01*
X151335252Y-112270000D01*
X151335244Y-112270000D01*
X151310398Y-112267553D01*
X151285552Y-112270000D01*
X147410501Y-112270000D01*
X147309859Y-112169358D01*
X147181942Y-112083887D01*
X147039809Y-112025013D01*
X146888922Y-111995000D01*
X146735078Y-111995000D01*
X146584191Y-112025013D01*
X146442058Y-112083887D01*
X146314141Y-112169358D01*
X146205358Y-112278141D01*
X146119887Y-112406058D01*
X146061013Y-112548191D01*
X146032251Y-112692791D01*
X145204180Y-111864721D01*
X145204180Y-111312443D01*
X147001000Y-111312443D01*
X147075689Y-111305087D01*
X147147508Y-111283301D01*
X147213696Y-111247922D01*
X147271711Y-111200311D01*
X147319322Y-111142296D01*
X147354701Y-111076108D01*
X147371137Y-111021925D01*
X147445575Y-110999345D01*
X147533479Y-110952359D01*
X147610527Y-110889127D01*
X147626376Y-110869815D01*
X148819898Y-109676294D01*
X148839205Y-109660449D01*
X148902437Y-109583401D01*
X148949423Y-109495497D01*
X148978356Y-109400116D01*
X148980347Y-109379900D01*
X148985678Y-109325776D01*
X148985678Y-109325769D01*
X148988125Y-109300923D01*
X148985678Y-109276077D01*
X148985678Y-109231600D01*
X151412928Y-109231600D01*
X151416000Y-110795850D01*
X151574750Y-110954600D01*
X153774000Y-110954600D01*
X153774000Y-108755350D01*
X153615250Y-108596600D01*
X152051000Y-108593528D01*
X151926518Y-108605788D01*
X151806820Y-108642098D01*
X151696506Y-108701063D01*
X151599815Y-108780415D01*
X151520463Y-108877106D01*
X151461498Y-108987420D01*
X151425188Y-109107118D01*
X151412928Y-109231600D01*
X148985678Y-109231600D01*
X148985678Y-108482646D01*
X149083551Y-108523187D01*
X149234438Y-108553200D01*
X149388282Y-108553200D01*
X149539169Y-108523187D01*
X149681302Y-108464313D01*
X149809219Y-108378842D01*
X149909861Y-108278200D01*
X154667011Y-108278200D01*
X154983845Y-108595035D01*
X154983845Y-108595035D01*
G37*
X154983845Y-108595035D02*
X154186750Y-108596600D01*
X154028000Y-108755350D01*
X154028000Y-110954600D01*
X156227250Y-110954600D01*
X156386000Y-110795850D01*
X156387639Y-109961423D01*
X156416954Y-109977092D01*
X156417427Y-109977345D01*
X156512808Y-110006278D01*
X156522696Y-110007252D01*
X156587148Y-110013600D01*
X156587155Y-110013600D01*
X156612001Y-110016047D01*
X156636847Y-110013600D01*
X159465011Y-110013600D01*
X159465618Y-110015600D01*
X159465451Y-110016150D01*
X159450725Y-110017600D01*
X159376386Y-110024922D01*
X159281004Y-110053855D01*
X159193100Y-110100841D01*
X159116052Y-110164073D01*
X159100207Y-110183380D01*
X156388999Y-112894589D01*
X156386000Y-111367350D01*
X156227250Y-111208600D01*
X154028000Y-111208600D01*
X154028000Y-111228600D01*
X153774000Y-111228600D01*
X153774000Y-111208600D01*
X151574750Y-111208600D01*
X151416000Y-111367350D01*
X151414210Y-112278723D01*
X151409591Y-112277322D01*
X151335252Y-112270000D01*
X151335244Y-112270000D01*
X151310398Y-112267553D01*
X151285552Y-112270000D01*
X147410501Y-112270000D01*
X147309859Y-112169358D01*
X147181942Y-112083887D01*
X147039809Y-112025013D01*
X146888922Y-111995000D01*
X146735078Y-111995000D01*
X146584191Y-112025013D01*
X146442058Y-112083887D01*
X146314141Y-112169358D01*
X146205358Y-112278141D01*
X146119887Y-112406058D01*
X146061013Y-112548191D01*
X146032251Y-112692791D01*
X145204180Y-111864721D01*
X145204180Y-111312443D01*
X147001000Y-111312443D01*
X147075689Y-111305087D01*
X147147508Y-111283301D01*
X147213696Y-111247922D01*
X147271711Y-111200311D01*
X147319322Y-111142296D01*
X147354701Y-111076108D01*
X147371137Y-111021925D01*
X147445575Y-110999345D01*
X147533479Y-110952359D01*
X147610527Y-110889127D01*
X147626376Y-110869815D01*
X148819898Y-109676294D01*
X148839205Y-109660449D01*
X148902437Y-109583401D01*
X148949423Y-109495497D01*
X148978356Y-109400116D01*
X148980347Y-109379900D01*
X148985678Y-109325776D01*
X148985678Y-109325769D01*
X148988125Y-109300923D01*
X148985678Y-109276077D01*
X148985678Y-109231600D01*
X151412928Y-109231600D01*
X151416000Y-110795850D01*
X151574750Y-110954600D01*
X153774000Y-110954600D01*
X153774000Y-108755350D01*
X153615250Y-108596600D01*
X152051000Y-108593528D01*
X151926518Y-108605788D01*
X151806820Y-108642098D01*
X151696506Y-108701063D01*
X151599815Y-108780415D01*
X151520463Y-108877106D01*
X151461498Y-108987420D01*
X151425188Y-109107118D01*
X151412928Y-109231600D01*
X148985678Y-109231600D01*
X148985678Y-108482646D01*
X149083551Y-108523187D01*
X149234438Y-108553200D01*
X149388282Y-108553200D01*
X149539169Y-108523187D01*
X149681302Y-108464313D01*
X149809219Y-108378842D01*
X149909861Y-108278200D01*
X154667011Y-108278200D01*
X154983845Y-108595035D01*
G36*
X160275000Y-107708757D02*
G01*
X159831000Y-107708757D01*
X159756311Y-107716113D01*
X159684492Y-107737899D01*
X159618304Y-107773278D01*
X159560289Y-107820889D01*
X159512678Y-107878904D01*
X159477299Y-107945092D01*
X159455513Y-108016911D01*
X159448157Y-108091600D01*
X159448157Y-108891600D01*
X159455513Y-108966289D01*
X159465618Y-108999600D01*
X159465011Y-109001600D01*
X156821594Y-109001600D01*
X155251978Y-107431985D01*
X155236129Y-107412673D01*
X155159081Y-107349441D01*
X155071177Y-107302455D01*
X154975795Y-107273522D01*
X154901456Y-107266200D01*
X154901448Y-107266200D01*
X154876602Y-107263753D01*
X154851756Y-107266200D01*
X149909861Y-107266200D01*
X149809219Y-107165558D01*
X149681302Y-107080087D01*
X149539169Y-107021213D01*
X149388282Y-106991200D01*
X149234438Y-106991200D01*
X149083551Y-107021213D01*
X148985678Y-107061754D01*
X148985678Y-106530125D01*
X148988125Y-106505279D01*
X148985678Y-106480433D01*
X148985678Y-106480426D01*
X148978483Y-106407378D01*
X148978356Y-106406086D01*
X148967066Y-106368867D01*
X148961862Y-106351712D01*
X149006750Y-106396600D01*
X149121000Y-106399672D01*
X149245482Y-106387412D01*
X149365180Y-106351102D01*
X149475494Y-106292137D01*
X149572185Y-106212785D01*
X149628272Y-106144443D01*
X150137000Y-106144443D01*
X150211689Y-106137087D01*
X150245000Y-106126982D01*
X150278311Y-106137087D01*
X150353000Y-106144443D01*
X151153000Y-106144443D01*
X151227689Y-106137087D01*
X151261000Y-106126982D01*
X151294311Y-106137087D01*
X151369000Y-106144443D01*
X152169000Y-106144443D01*
X152243689Y-106137087D01*
X152277000Y-106126982D01*
X152310311Y-106137087D01*
X152385000Y-106144443D01*
X153185000Y-106144443D01*
X153259689Y-106137087D01*
X153293000Y-106126982D01*
X153326311Y-106137087D01*
X153328023Y-106137256D01*
X153341189Y-106180659D01*
X153387181Y-106266704D01*
X153423293Y-106310706D01*
X153449077Y-106342124D01*
X153467971Y-106357630D01*
X153589966Y-106479625D01*
X153605476Y-106498524D01*
X153680895Y-106560419D01*
X153766940Y-106606411D01*
X153860304Y-106634733D01*
X153933073Y-106641900D01*
X153933082Y-106641900D01*
X153957399Y-106644295D01*
X153981716Y-106641900D01*
X157202465Y-106641900D01*
X157299049Y-106738484D01*
X157423854Y-106821876D01*
X157562529Y-106879317D01*
X157709746Y-106908600D01*
X157859846Y-106908600D01*
X158007063Y-106879317D01*
X158145738Y-106821876D01*
X158270543Y-106738484D01*
X158376680Y-106632347D01*
X158460072Y-106507542D01*
X158477435Y-106465624D01*
X158798616Y-106144443D01*
X159281000Y-106144443D01*
X159355689Y-106137087D01*
X159427508Y-106115301D01*
X159493696Y-106079922D01*
X159551711Y-106032311D01*
X159599322Y-105974296D01*
X159634701Y-105908108D01*
X159656487Y-105836289D01*
X159663843Y-105761600D01*
X159663843Y-103861600D01*
X159656487Y-103786911D01*
X159634701Y-103715092D01*
X159599322Y-103648904D01*
X159551711Y-103590889D01*
X159493696Y-103543278D01*
X159427508Y-103507899D01*
X159355689Y-103486113D01*
X159281000Y-103478757D01*
X158481000Y-103478757D01*
X158406311Y-103486113D01*
X158334492Y-103507899D01*
X158268304Y-103543278D01*
X158210289Y-103590889D01*
X158162678Y-103648904D01*
X158127299Y-103715092D01*
X158105513Y-103786911D01*
X158098157Y-103861600D01*
X158098157Y-105443984D01*
X158092761Y-105449380D01*
X158007063Y-105413883D01*
X157859846Y-105384600D01*
X157709746Y-105384600D01*
X157562529Y-105413883D01*
X157423854Y-105471324D01*
X157299049Y-105554716D01*
X157202465Y-105651300D01*
X156615843Y-105651300D01*
X156615843Y-105084748D01*
X158515092Y-103185500D01*
X159487154Y-103185500D01*
X159512000Y-103187947D01*
X159536846Y-103185500D01*
X159536854Y-103185500D01*
X159611193Y-103178178D01*
X159706575Y-103149245D01*
X159794479Y-103102259D01*
X159871527Y-103039027D01*
X159887376Y-103019715D01*
X160275001Y-102632090D01*
X160275000Y-107708757D01*
X160275000Y-107708757D01*
G37*
X160275000Y-107708757D02*
X159831000Y-107708757D01*
X159756311Y-107716113D01*
X159684492Y-107737899D01*
X159618304Y-107773278D01*
X159560289Y-107820889D01*
X159512678Y-107878904D01*
X159477299Y-107945092D01*
X159455513Y-108016911D01*
X159448157Y-108091600D01*
X159448157Y-108891600D01*
X159455513Y-108966289D01*
X159465618Y-108999600D01*
X159465011Y-109001600D01*
X156821594Y-109001600D01*
X155251978Y-107431985D01*
X155236129Y-107412673D01*
X155159081Y-107349441D01*
X155071177Y-107302455D01*
X154975795Y-107273522D01*
X154901456Y-107266200D01*
X154901448Y-107266200D01*
X154876602Y-107263753D01*
X154851756Y-107266200D01*
X149909861Y-107266200D01*
X149809219Y-107165558D01*
X149681302Y-107080087D01*
X149539169Y-107021213D01*
X149388282Y-106991200D01*
X149234438Y-106991200D01*
X149083551Y-107021213D01*
X148985678Y-107061754D01*
X148985678Y-106530125D01*
X148988125Y-106505279D01*
X148985678Y-106480433D01*
X148985678Y-106480426D01*
X148978483Y-106407378D01*
X148978356Y-106406086D01*
X148967066Y-106368867D01*
X148961862Y-106351712D01*
X149006750Y-106396600D01*
X149121000Y-106399672D01*
X149245482Y-106387412D01*
X149365180Y-106351102D01*
X149475494Y-106292137D01*
X149572185Y-106212785D01*
X149628272Y-106144443D01*
X150137000Y-106144443D01*
X150211689Y-106137087D01*
X150245000Y-106126982D01*
X150278311Y-106137087D01*
X150353000Y-106144443D01*
X151153000Y-106144443D01*
X151227689Y-106137087D01*
X151261000Y-106126982D01*
X151294311Y-106137087D01*
X151369000Y-106144443D01*
X152169000Y-106144443D01*
X152243689Y-106137087D01*
X152277000Y-106126982D01*
X152310311Y-106137087D01*
X152385000Y-106144443D01*
X153185000Y-106144443D01*
X153259689Y-106137087D01*
X153293000Y-106126982D01*
X153326311Y-106137087D01*
X153328023Y-106137256D01*
X153341189Y-106180659D01*
X153387181Y-106266704D01*
X153423293Y-106310706D01*
X153449077Y-106342124D01*
X153467971Y-106357630D01*
X153589966Y-106479625D01*
X153605476Y-106498524D01*
X153680895Y-106560419D01*
X153766940Y-106606411D01*
X153860304Y-106634733D01*
X153933073Y-106641900D01*
X153933082Y-106641900D01*
X153957399Y-106644295D01*
X153981716Y-106641900D01*
X157202465Y-106641900D01*
X157299049Y-106738484D01*
X157423854Y-106821876D01*
X157562529Y-106879317D01*
X157709746Y-106908600D01*
X157859846Y-106908600D01*
X158007063Y-106879317D01*
X158145738Y-106821876D01*
X158270543Y-106738484D01*
X158376680Y-106632347D01*
X158460072Y-106507542D01*
X158477435Y-106465624D01*
X158798616Y-106144443D01*
X159281000Y-106144443D01*
X159355689Y-106137087D01*
X159427508Y-106115301D01*
X159493696Y-106079922D01*
X159551711Y-106032311D01*
X159599322Y-105974296D01*
X159634701Y-105908108D01*
X159656487Y-105836289D01*
X159663843Y-105761600D01*
X159663843Y-103861600D01*
X159656487Y-103786911D01*
X159634701Y-103715092D01*
X159599322Y-103648904D01*
X159551711Y-103590889D01*
X159493696Y-103543278D01*
X159427508Y-103507899D01*
X159355689Y-103486113D01*
X159281000Y-103478757D01*
X158481000Y-103478757D01*
X158406311Y-103486113D01*
X158334492Y-103507899D01*
X158268304Y-103543278D01*
X158210289Y-103590889D01*
X158162678Y-103648904D01*
X158127299Y-103715092D01*
X158105513Y-103786911D01*
X158098157Y-103861600D01*
X158098157Y-105443984D01*
X158092761Y-105449380D01*
X158007063Y-105413883D01*
X157859846Y-105384600D01*
X157709746Y-105384600D01*
X157562529Y-105413883D01*
X157423854Y-105471324D01*
X157299049Y-105554716D01*
X157202465Y-105651300D01*
X156615843Y-105651300D01*
X156615843Y-105084748D01*
X158515092Y-103185500D01*
X159487154Y-103185500D01*
X159512000Y-103187947D01*
X159536846Y-103185500D01*
X159536854Y-103185500D01*
X159611193Y-103178178D01*
X159706575Y-103149245D01*
X159794479Y-103102259D01*
X159871527Y-103039027D01*
X159887376Y-103019715D01*
X160275001Y-102632090D01*
X160275000Y-107708757D01*
G36*
X160687502Y-76553064D02*
G01*
X160334964Y-76905602D01*
X160057977Y-77320142D01*
X159867185Y-77780755D01*
X159769920Y-78269738D01*
X159769920Y-78768302D01*
X159867185Y-79257285D01*
X160057977Y-79717898D01*
X160334964Y-80132438D01*
X160687502Y-80484976D01*
X161102042Y-80761963D01*
X161562655Y-80952755D01*
X162051638Y-81050020D01*
X162550202Y-81050020D01*
X163039185Y-80952755D01*
X163499798Y-80761963D01*
X163914338Y-80484976D01*
X164266876Y-80132438D01*
X164381360Y-79961101D01*
X164381360Y-91244084D01*
X164375200Y-91243477D01*
X162675200Y-91243477D01*
X162600511Y-91250833D01*
X162558000Y-91263729D01*
X162558000Y-90969545D01*
X162560447Y-90944699D01*
X162558000Y-90919853D01*
X162558000Y-90919846D01*
X162550678Y-90845507D01*
X162521745Y-90750125D01*
X162474759Y-90662221D01*
X162411527Y-90585173D01*
X162392220Y-90569328D01*
X160665541Y-88842649D01*
X160725188Y-88646018D01*
X160748956Y-88404700D01*
X160725188Y-88163382D01*
X160654798Y-87931337D01*
X160540491Y-87717484D01*
X160386660Y-87530040D01*
X160199216Y-87376209D01*
X159985363Y-87261902D01*
X159753318Y-87191512D01*
X159572472Y-87173700D01*
X159451528Y-87173700D01*
X159270682Y-87191512D01*
X159038637Y-87261902D01*
X158824784Y-87376209D01*
X158637340Y-87530040D01*
X158483509Y-87717484D01*
X158369202Y-87931337D01*
X158298812Y-88163382D01*
X158275044Y-88404700D01*
X158298812Y-88646018D01*
X158369202Y-88878063D01*
X158483509Y-89091916D01*
X158637340Y-89279360D01*
X158824784Y-89433191D01*
X159038637Y-89547498D01*
X159270682Y-89617888D01*
X159451528Y-89635700D01*
X159572472Y-89635700D01*
X159753318Y-89617888D01*
X159949949Y-89558241D01*
X161546000Y-91154292D01*
X161546000Y-92263108D01*
X160737373Y-91454482D01*
X160737369Y-91454477D01*
X160665541Y-91382649D01*
X160725188Y-91186018D01*
X160748956Y-90944700D01*
X160725188Y-90703382D01*
X160654798Y-90471337D01*
X160540491Y-90257484D01*
X160386660Y-90070040D01*
X160199216Y-89916209D01*
X159985363Y-89801902D01*
X159753318Y-89731512D01*
X159572472Y-89713700D01*
X159451528Y-89713700D01*
X159270682Y-89731512D01*
X159038637Y-89801902D01*
X158824784Y-89916209D01*
X158637340Y-90070040D01*
X158483509Y-90257484D01*
X158369202Y-90471337D01*
X158298812Y-90703382D01*
X158275044Y-90944700D01*
X158298812Y-91186018D01*
X158369202Y-91418063D01*
X158483509Y-91631916D01*
X158637340Y-91819360D01*
X158824784Y-91973191D01*
X159038637Y-92087498D01*
X159270682Y-92157888D01*
X159451528Y-92175700D01*
X159572472Y-92175700D01*
X159753318Y-92157888D01*
X159949949Y-92098241D01*
X160021777Y-92170069D01*
X160021782Y-92170073D01*
X160784001Y-92932293D01*
X160784001Y-94041110D01*
X160737373Y-93994482D01*
X160737369Y-93994477D01*
X160665541Y-93922649D01*
X160725188Y-93726018D01*
X160748956Y-93484700D01*
X160725188Y-93243382D01*
X160654798Y-93011337D01*
X160540491Y-92797484D01*
X160386660Y-92610040D01*
X160199216Y-92456209D01*
X159985363Y-92341902D01*
X159753318Y-92271512D01*
X159572472Y-92253700D01*
X159451528Y-92253700D01*
X159270682Y-92271512D01*
X159038637Y-92341902D01*
X158824784Y-92456209D01*
X158637340Y-92610040D01*
X158483509Y-92797484D01*
X158369202Y-93011337D01*
X158298812Y-93243382D01*
X158275044Y-93484700D01*
X158298812Y-93726018D01*
X158369202Y-93958063D01*
X158483509Y-94171916D01*
X158637340Y-94359360D01*
X158824784Y-94513191D01*
X159038637Y-94627498D01*
X159270682Y-94697888D01*
X159451528Y-94715700D01*
X159572472Y-94715700D01*
X159753318Y-94697888D01*
X159949949Y-94638241D01*
X160021777Y-94710069D01*
X160021782Y-94710073D01*
X160103566Y-94791857D01*
X158662000Y-94791857D01*
X158587311Y-94799213D01*
X158515492Y-94820999D01*
X158449304Y-94856378D01*
X158391289Y-94903989D01*
X158343678Y-94962004D01*
X158308299Y-95028192D01*
X158286513Y-95100011D01*
X158279157Y-95174700D01*
X158279157Y-95518700D01*
X154507654Y-95518700D01*
X154482800Y-95516252D01*
X154457946Y-95518700D01*
X154383607Y-95526022D01*
X154288225Y-95554955D01*
X154200321Y-95601941D01*
X154123273Y-95665173D01*
X154107428Y-95684480D01*
X151428781Y-98363128D01*
X151409474Y-98378973D01*
X151346242Y-98456021D01*
X151321127Y-98503008D01*
X151299255Y-98543926D01*
X151270322Y-98639308D01*
X151260553Y-98738500D01*
X151263001Y-98763356D01*
X151263000Y-103495611D01*
X151261000Y-103496218D01*
X151259000Y-103495611D01*
X151259000Y-89335245D01*
X151261447Y-89310399D01*
X151259000Y-89285553D01*
X151259000Y-89285546D01*
X151251678Y-89211207D01*
X151238463Y-89167640D01*
X151222745Y-89115825D01*
X151175759Y-89027921D01*
X151112527Y-88950873D01*
X151093220Y-88935028D01*
X148473541Y-86315349D01*
X148533188Y-86118718D01*
X148556956Y-85877400D01*
X148533188Y-85636082D01*
X148462798Y-85404037D01*
X148348491Y-85190184D01*
X148194660Y-85002740D01*
X148007216Y-84848909D01*
X147793363Y-84734602D01*
X147561318Y-84664212D01*
X147380472Y-84646400D01*
X147259528Y-84646400D01*
X147078682Y-84664212D01*
X146846637Y-84734602D01*
X146632784Y-84848909D01*
X146445340Y-85002740D01*
X146291509Y-85190184D01*
X146177202Y-85404037D01*
X146106812Y-85636082D01*
X146083044Y-85877400D01*
X146106812Y-86118718D01*
X146177202Y-86350763D01*
X146291509Y-86564616D01*
X146445340Y-86752060D01*
X146632784Y-86905891D01*
X146846637Y-87020198D01*
X147078682Y-87090588D01*
X147259528Y-87108400D01*
X147380472Y-87108400D01*
X147561318Y-87090588D01*
X147757949Y-87030941D01*
X150247001Y-89519993D01*
X150247000Y-103495611D01*
X150245000Y-103496218D01*
X150243000Y-103495611D01*
X150243000Y-90859245D01*
X150245447Y-90834399D01*
X150243000Y-90809553D01*
X150243000Y-90809546D01*
X150235678Y-90735207D01*
X150225448Y-90701480D01*
X150206745Y-90639825D01*
X150159759Y-90551921D01*
X150096527Y-90474873D01*
X150077220Y-90459028D01*
X148473541Y-88855349D01*
X148533188Y-88658718D01*
X148556956Y-88417400D01*
X148533188Y-88176082D01*
X148462798Y-87944037D01*
X148348491Y-87730184D01*
X148194660Y-87542740D01*
X148007216Y-87388909D01*
X147793363Y-87274602D01*
X147561318Y-87204212D01*
X147380472Y-87186400D01*
X147259528Y-87186400D01*
X147078682Y-87204212D01*
X146846637Y-87274602D01*
X146632784Y-87388909D01*
X146445340Y-87542740D01*
X146291509Y-87730184D01*
X146177202Y-87944037D01*
X146106812Y-88176082D01*
X146083044Y-88417400D01*
X146106812Y-88658718D01*
X146177202Y-88890763D01*
X146291509Y-89104616D01*
X146445340Y-89292060D01*
X146632784Y-89445891D01*
X146846637Y-89560198D01*
X147078682Y-89630588D01*
X147259528Y-89648400D01*
X147380472Y-89648400D01*
X147561318Y-89630588D01*
X147757949Y-89570941D01*
X149231001Y-91043993D01*
X149231000Y-98675689D01*
X148824950Y-98678700D01*
X148666200Y-98837450D01*
X148666200Y-99674200D01*
X148686200Y-99674200D01*
X148686200Y-99928200D01*
X148666200Y-99928200D01*
X148666200Y-99948200D01*
X148412200Y-99948200D01*
X148412200Y-99928200D01*
X148392200Y-99928200D01*
X148392200Y-99674200D01*
X148412200Y-99674200D01*
X148412200Y-98837450D01*
X148253450Y-98678700D01*
X147839200Y-98675628D01*
X147826000Y-98676928D01*
X147826000Y-97270243D01*
X148170000Y-97270243D01*
X148244689Y-97262887D01*
X148316508Y-97241101D01*
X148382696Y-97205722D01*
X148440711Y-97158111D01*
X148488322Y-97100096D01*
X148523701Y-97033908D01*
X148545487Y-96962089D01*
X148552843Y-96887400D01*
X148552843Y-95187400D01*
X148545487Y-95112711D01*
X148523701Y-95040892D01*
X148488322Y-94974704D01*
X148440711Y-94916689D01*
X148382696Y-94869078D01*
X148316508Y-94833699D01*
X148244689Y-94811913D01*
X148170000Y-94804557D01*
X146728434Y-94804557D01*
X146845371Y-94687620D01*
X146882051Y-94650941D01*
X147078682Y-94710588D01*
X147259528Y-94728400D01*
X147380472Y-94728400D01*
X147561318Y-94710588D01*
X147793363Y-94640198D01*
X148007216Y-94525891D01*
X148194660Y-94372060D01*
X148348491Y-94184616D01*
X148462798Y-93970763D01*
X148533188Y-93738718D01*
X148556956Y-93497400D01*
X148533188Y-93256082D01*
X148462798Y-93024037D01*
X148348491Y-92810184D01*
X148194660Y-92622740D01*
X148007216Y-92468909D01*
X147793363Y-92354602D01*
X147561318Y-92284212D01*
X147380472Y-92266400D01*
X147259528Y-92266400D01*
X147078682Y-92284212D01*
X146846637Y-92354602D01*
X146632784Y-92468909D01*
X146445340Y-92622740D01*
X146296188Y-92804483D01*
X146296188Y-92696803D01*
X146845371Y-92147621D01*
X146845375Y-92147616D01*
X146882051Y-92110941D01*
X147078682Y-92170588D01*
X147259528Y-92188400D01*
X147380472Y-92188400D01*
X147561318Y-92170588D01*
X147793363Y-92100198D01*
X148007216Y-91985891D01*
X148194660Y-91832060D01*
X148348491Y-91644616D01*
X148462798Y-91430763D01*
X148533188Y-91198718D01*
X148556956Y-90957400D01*
X148533188Y-90716082D01*
X148462798Y-90484037D01*
X148348491Y-90270184D01*
X148194660Y-90082740D01*
X148007216Y-89928909D01*
X147793363Y-89814602D01*
X147561318Y-89744212D01*
X147380472Y-89726400D01*
X147259528Y-89726400D01*
X147078682Y-89744212D01*
X146846637Y-89814602D01*
X146632784Y-89928909D01*
X146445340Y-90082740D01*
X146291509Y-90270184D01*
X146177202Y-90484037D01*
X146106812Y-90716082D01*
X146083044Y-90957400D01*
X146106812Y-91198718D01*
X146166459Y-91395349D01*
X146129784Y-91432025D01*
X146129779Y-91432029D01*
X145449968Y-92111841D01*
X145430662Y-92127685D01*
X145367430Y-92204733D01*
X145352192Y-92233242D01*
X145320443Y-92292638D01*
X145291510Y-92388020D01*
X145281741Y-92487212D01*
X145284189Y-92512068D01*
X145284188Y-97155746D01*
X145281741Y-97180592D01*
X145284188Y-97205438D01*
X145284188Y-97205445D01*
X145291510Y-97279784D01*
X145320443Y-97375166D01*
X145367429Y-97463071D01*
X145430661Y-97540119D01*
X145449973Y-97555968D01*
X146009179Y-98115175D01*
X146009178Y-106157830D01*
X145710780Y-106456229D01*
X145691474Y-106472073D01*
X145628242Y-106549121D01*
X145609489Y-106584205D01*
X145581255Y-106637026D01*
X145562530Y-106698757D01*
X145204180Y-106698757D01*
X145204180Y-98998736D01*
X145206575Y-98974419D01*
X145204180Y-98950102D01*
X145204180Y-98950093D01*
X145197013Y-98877324D01*
X145168691Y-98783960D01*
X145136748Y-98724198D01*
X145122699Y-98697914D01*
X145076311Y-98641391D01*
X145076310Y-98641390D01*
X145060804Y-98622496D01*
X145041910Y-98606990D01*
X144439039Y-98004119D01*
X144502208Y-97795878D01*
X144525976Y-97554560D01*
X144502208Y-97313242D01*
X144431818Y-97081197D01*
X144317511Y-96867344D01*
X144163680Y-96679900D01*
X143976236Y-96526069D01*
X143762383Y-96411762D01*
X143530338Y-96341372D01*
X143349492Y-96323560D01*
X143228548Y-96323560D01*
X143047702Y-96341372D01*
X142815657Y-96411762D01*
X142601804Y-96526069D01*
X142433360Y-96664307D01*
X142433360Y-95904813D01*
X142601804Y-96043051D01*
X142815657Y-96157358D01*
X143047702Y-96227748D01*
X143228548Y-96245560D01*
X143349492Y-96245560D01*
X143530338Y-96227748D01*
X143762383Y-96157358D01*
X143976236Y-96043051D01*
X144163680Y-95889220D01*
X144317511Y-95701776D01*
X144431818Y-95487923D01*
X144502208Y-95255878D01*
X144525976Y-95014560D01*
X144502208Y-94773242D01*
X144431818Y-94541197D01*
X144317511Y-94327344D01*
X144163680Y-94139900D01*
X143976236Y-93986069D01*
X143762383Y-93871762D01*
X143530338Y-93801372D01*
X143349492Y-93783560D01*
X143228548Y-93783560D01*
X143047702Y-93801372D01*
X142815657Y-93871762D01*
X142601804Y-93986069D01*
X142433360Y-94124307D01*
X142433360Y-93364813D01*
X142601804Y-93503051D01*
X142815657Y-93617358D01*
X143047702Y-93687748D01*
X143228548Y-93705560D01*
X143349492Y-93705560D01*
X143530338Y-93687748D01*
X143762383Y-93617358D01*
X143976236Y-93503051D01*
X144163680Y-93349220D01*
X144317511Y-93161776D01*
X144431818Y-92947923D01*
X144502208Y-92715878D01*
X144525976Y-92474560D01*
X144502208Y-92233242D01*
X144431818Y-92001197D01*
X144317511Y-91787344D01*
X144163680Y-91599900D01*
X143976236Y-91446069D01*
X143765715Y-91333543D01*
X143920272Y-91278717D01*
X144170375Y-91129738D01*
X144386608Y-90934829D01*
X144560661Y-90701480D01*
X144685845Y-90438659D01*
X144730496Y-90291450D01*
X144609175Y-90061560D01*
X143416020Y-90061560D01*
X143416020Y-90081560D01*
X143162020Y-90081560D01*
X143162020Y-90061560D01*
X143142020Y-90061560D01*
X143142020Y-89807560D01*
X143162020Y-89807560D01*
X143162020Y-89787560D01*
X143416020Y-89787560D01*
X143416020Y-89807560D01*
X144609175Y-89807560D01*
X144730496Y-89577670D01*
X144685845Y-89430461D01*
X144560661Y-89167640D01*
X144386608Y-88934291D01*
X144170375Y-88739382D01*
X143920272Y-88590403D01*
X143765715Y-88535577D01*
X143976236Y-88423051D01*
X144163680Y-88269220D01*
X144317511Y-88081776D01*
X144431818Y-87867923D01*
X144502208Y-87635878D01*
X144525976Y-87394560D01*
X144502208Y-87153242D01*
X144431818Y-86921197D01*
X144317511Y-86707344D01*
X144163680Y-86519900D01*
X143976236Y-86366069D01*
X143762383Y-86251762D01*
X143530338Y-86181372D01*
X143349492Y-86163560D01*
X143228548Y-86163560D01*
X143047702Y-86181372D01*
X142815657Y-86251762D01*
X142601804Y-86366069D01*
X142433360Y-86504307D01*
X142433360Y-85744813D01*
X142601804Y-85883051D01*
X142815657Y-85997358D01*
X143047702Y-86067748D01*
X143228548Y-86085560D01*
X143349492Y-86085560D01*
X143530338Y-86067748D01*
X143762383Y-85997358D01*
X143976236Y-85883051D01*
X144163680Y-85729220D01*
X144317511Y-85541776D01*
X144431818Y-85327923D01*
X144502208Y-85095878D01*
X144525976Y-84854560D01*
X144502208Y-84613242D01*
X144431818Y-84381197D01*
X144317511Y-84167344D01*
X144163680Y-83979900D01*
X143976236Y-83826069D01*
X143762383Y-83711762D01*
X143530338Y-83641372D01*
X143349492Y-83623560D01*
X143228548Y-83623560D01*
X143047702Y-83641372D01*
X142815657Y-83711762D01*
X142601804Y-83826069D01*
X142433360Y-83964307D01*
X142433360Y-83546846D01*
X142439020Y-83547403D01*
X144139020Y-83547403D01*
X144213709Y-83540047D01*
X144285528Y-83518261D01*
X144351716Y-83482882D01*
X144409731Y-83435271D01*
X144457342Y-83377256D01*
X144492721Y-83311068D01*
X144514507Y-83239249D01*
X144521863Y-83164560D01*
X144521863Y-81464560D01*
X144514507Y-81389871D01*
X144492721Y-81318052D01*
X144457342Y-81251864D01*
X144409731Y-81193849D01*
X144351716Y-81146238D01*
X144285528Y-81110859D01*
X144213709Y-81089073D01*
X144139020Y-81081717D01*
X142439020Y-81081717D01*
X142433360Y-81082274D01*
X142433360Y-79950445D01*
X142554964Y-80132438D01*
X142907502Y-80484976D01*
X143322042Y-80761963D01*
X143782655Y-80952755D01*
X144271638Y-81050020D01*
X144770202Y-81050020D01*
X145259185Y-80952755D01*
X145719798Y-80761963D01*
X146134338Y-80484976D01*
X146486876Y-80132438D01*
X146763863Y-79717898D01*
X146954655Y-79257285D01*
X147051920Y-78768302D01*
X147051920Y-78269738D01*
X146954655Y-77780755D01*
X146763863Y-77320142D01*
X146486876Y-76905602D01*
X146134338Y-76553064D01*
X145936032Y-76420560D01*
X160885808Y-76420560D01*
X160687502Y-76553064D01*
X160687502Y-76553064D01*
G37*
X160687502Y-76553064D02*
X160334964Y-76905602D01*
X160057977Y-77320142D01*
X159867185Y-77780755D01*
X159769920Y-78269738D01*
X159769920Y-78768302D01*
X159867185Y-79257285D01*
X160057977Y-79717898D01*
X160334964Y-80132438D01*
X160687502Y-80484976D01*
X161102042Y-80761963D01*
X161562655Y-80952755D01*
X162051638Y-81050020D01*
X162550202Y-81050020D01*
X163039185Y-80952755D01*
X163499798Y-80761963D01*
X163914338Y-80484976D01*
X164266876Y-80132438D01*
X164381360Y-79961101D01*
X164381360Y-91244084D01*
X164375200Y-91243477D01*
X162675200Y-91243477D01*
X162600511Y-91250833D01*
X162558000Y-91263729D01*
X162558000Y-90969545D01*
X162560447Y-90944699D01*
X162558000Y-90919853D01*
X162558000Y-90919846D01*
X162550678Y-90845507D01*
X162521745Y-90750125D01*
X162474759Y-90662221D01*
X162411527Y-90585173D01*
X162392220Y-90569328D01*
X160665541Y-88842649D01*
X160725188Y-88646018D01*
X160748956Y-88404700D01*
X160725188Y-88163382D01*
X160654798Y-87931337D01*
X160540491Y-87717484D01*
X160386660Y-87530040D01*
X160199216Y-87376209D01*
X159985363Y-87261902D01*
X159753318Y-87191512D01*
X159572472Y-87173700D01*
X159451528Y-87173700D01*
X159270682Y-87191512D01*
X159038637Y-87261902D01*
X158824784Y-87376209D01*
X158637340Y-87530040D01*
X158483509Y-87717484D01*
X158369202Y-87931337D01*
X158298812Y-88163382D01*
X158275044Y-88404700D01*
X158298812Y-88646018D01*
X158369202Y-88878063D01*
X158483509Y-89091916D01*
X158637340Y-89279360D01*
X158824784Y-89433191D01*
X159038637Y-89547498D01*
X159270682Y-89617888D01*
X159451528Y-89635700D01*
X159572472Y-89635700D01*
X159753318Y-89617888D01*
X159949949Y-89558241D01*
X161546000Y-91154292D01*
X161546000Y-92263108D01*
X160737373Y-91454482D01*
X160737369Y-91454477D01*
X160665541Y-91382649D01*
X160725188Y-91186018D01*
X160748956Y-90944700D01*
X160725188Y-90703382D01*
X160654798Y-90471337D01*
X160540491Y-90257484D01*
X160386660Y-90070040D01*
X160199216Y-89916209D01*
X159985363Y-89801902D01*
X159753318Y-89731512D01*
X159572472Y-89713700D01*
X159451528Y-89713700D01*
X159270682Y-89731512D01*
X159038637Y-89801902D01*
X158824784Y-89916209D01*
X158637340Y-90070040D01*
X158483509Y-90257484D01*
X158369202Y-90471337D01*
X158298812Y-90703382D01*
X158275044Y-90944700D01*
X158298812Y-91186018D01*
X158369202Y-91418063D01*
X158483509Y-91631916D01*
X158637340Y-91819360D01*
X158824784Y-91973191D01*
X159038637Y-92087498D01*
X159270682Y-92157888D01*
X159451528Y-92175700D01*
X159572472Y-92175700D01*
X159753318Y-92157888D01*
X159949949Y-92098241D01*
X160021777Y-92170069D01*
X160021782Y-92170073D01*
X160784001Y-92932293D01*
X160784001Y-94041110D01*
X160737373Y-93994482D01*
X160737369Y-93994477D01*
X160665541Y-93922649D01*
X160725188Y-93726018D01*
X160748956Y-93484700D01*
X160725188Y-93243382D01*
X160654798Y-93011337D01*
X160540491Y-92797484D01*
X160386660Y-92610040D01*
X160199216Y-92456209D01*
X159985363Y-92341902D01*
X159753318Y-92271512D01*
X159572472Y-92253700D01*
X159451528Y-92253700D01*
X159270682Y-92271512D01*
X159038637Y-92341902D01*
X158824784Y-92456209D01*
X158637340Y-92610040D01*
X158483509Y-92797484D01*
X158369202Y-93011337D01*
X158298812Y-93243382D01*
X158275044Y-93484700D01*
X158298812Y-93726018D01*
X158369202Y-93958063D01*
X158483509Y-94171916D01*
X158637340Y-94359360D01*
X158824784Y-94513191D01*
X159038637Y-94627498D01*
X159270682Y-94697888D01*
X159451528Y-94715700D01*
X159572472Y-94715700D01*
X159753318Y-94697888D01*
X159949949Y-94638241D01*
X160021777Y-94710069D01*
X160021782Y-94710073D01*
X160103566Y-94791857D01*
X158662000Y-94791857D01*
X158587311Y-94799213D01*
X158515492Y-94820999D01*
X158449304Y-94856378D01*
X158391289Y-94903989D01*
X158343678Y-94962004D01*
X158308299Y-95028192D01*
X158286513Y-95100011D01*
X158279157Y-95174700D01*
X158279157Y-95518700D01*
X154507654Y-95518700D01*
X154482800Y-95516252D01*
X154457946Y-95518700D01*
X154383607Y-95526022D01*
X154288225Y-95554955D01*
X154200321Y-95601941D01*
X154123273Y-95665173D01*
X154107428Y-95684480D01*
X151428781Y-98363128D01*
X151409474Y-98378973D01*
X151346242Y-98456021D01*
X151321127Y-98503008D01*
X151299255Y-98543926D01*
X151270322Y-98639308D01*
X151260553Y-98738500D01*
X151263001Y-98763356D01*
X151263000Y-103495611D01*
X151261000Y-103496218D01*
X151259000Y-103495611D01*
X151259000Y-89335245D01*
X151261447Y-89310399D01*
X151259000Y-89285553D01*
X151259000Y-89285546D01*
X151251678Y-89211207D01*
X151238463Y-89167640D01*
X151222745Y-89115825D01*
X151175759Y-89027921D01*
X151112527Y-88950873D01*
X151093220Y-88935028D01*
X148473541Y-86315349D01*
X148533188Y-86118718D01*
X148556956Y-85877400D01*
X148533188Y-85636082D01*
X148462798Y-85404037D01*
X148348491Y-85190184D01*
X148194660Y-85002740D01*
X148007216Y-84848909D01*
X147793363Y-84734602D01*
X147561318Y-84664212D01*
X147380472Y-84646400D01*
X147259528Y-84646400D01*
X147078682Y-84664212D01*
X146846637Y-84734602D01*
X146632784Y-84848909D01*
X146445340Y-85002740D01*
X146291509Y-85190184D01*
X146177202Y-85404037D01*
X146106812Y-85636082D01*
X146083044Y-85877400D01*
X146106812Y-86118718D01*
X146177202Y-86350763D01*
X146291509Y-86564616D01*
X146445340Y-86752060D01*
X146632784Y-86905891D01*
X146846637Y-87020198D01*
X147078682Y-87090588D01*
X147259528Y-87108400D01*
X147380472Y-87108400D01*
X147561318Y-87090588D01*
X147757949Y-87030941D01*
X150247001Y-89519993D01*
X150247000Y-103495611D01*
X150245000Y-103496218D01*
X150243000Y-103495611D01*
X150243000Y-90859245D01*
X150245447Y-90834399D01*
X150243000Y-90809553D01*
X150243000Y-90809546D01*
X150235678Y-90735207D01*
X150225448Y-90701480D01*
X150206745Y-90639825D01*
X150159759Y-90551921D01*
X150096527Y-90474873D01*
X150077220Y-90459028D01*
X148473541Y-88855349D01*
X148533188Y-88658718D01*
X148556956Y-88417400D01*
X148533188Y-88176082D01*
X148462798Y-87944037D01*
X148348491Y-87730184D01*
X148194660Y-87542740D01*
X148007216Y-87388909D01*
X147793363Y-87274602D01*
X147561318Y-87204212D01*
X147380472Y-87186400D01*
X147259528Y-87186400D01*
X147078682Y-87204212D01*
X146846637Y-87274602D01*
X146632784Y-87388909D01*
X146445340Y-87542740D01*
X146291509Y-87730184D01*
X146177202Y-87944037D01*
X146106812Y-88176082D01*
X146083044Y-88417400D01*
X146106812Y-88658718D01*
X146177202Y-88890763D01*
X146291509Y-89104616D01*
X146445340Y-89292060D01*
X146632784Y-89445891D01*
X146846637Y-89560198D01*
X147078682Y-89630588D01*
X147259528Y-89648400D01*
X147380472Y-89648400D01*
X147561318Y-89630588D01*
X147757949Y-89570941D01*
X149231001Y-91043993D01*
X149231000Y-98675689D01*
X148824950Y-98678700D01*
X148666200Y-98837450D01*
X148666200Y-99674200D01*
X148686200Y-99674200D01*
X148686200Y-99928200D01*
X148666200Y-99928200D01*
X148666200Y-99948200D01*
X148412200Y-99948200D01*
X148412200Y-99928200D01*
X148392200Y-99928200D01*
X148392200Y-99674200D01*
X148412200Y-99674200D01*
X148412200Y-98837450D01*
X148253450Y-98678700D01*
X147839200Y-98675628D01*
X147826000Y-98676928D01*
X147826000Y-97270243D01*
X148170000Y-97270243D01*
X148244689Y-97262887D01*
X148316508Y-97241101D01*
X148382696Y-97205722D01*
X148440711Y-97158111D01*
X148488322Y-97100096D01*
X148523701Y-97033908D01*
X148545487Y-96962089D01*
X148552843Y-96887400D01*
X148552843Y-95187400D01*
X148545487Y-95112711D01*
X148523701Y-95040892D01*
X148488322Y-94974704D01*
X148440711Y-94916689D01*
X148382696Y-94869078D01*
X148316508Y-94833699D01*
X148244689Y-94811913D01*
X148170000Y-94804557D01*
X146728434Y-94804557D01*
X146845371Y-94687620D01*
X146882051Y-94650941D01*
X147078682Y-94710588D01*
X147259528Y-94728400D01*
X147380472Y-94728400D01*
X147561318Y-94710588D01*
X147793363Y-94640198D01*
X148007216Y-94525891D01*
X148194660Y-94372060D01*
X148348491Y-94184616D01*
X148462798Y-93970763D01*
X148533188Y-93738718D01*
X148556956Y-93497400D01*
X148533188Y-93256082D01*
X148462798Y-93024037D01*
X148348491Y-92810184D01*
X148194660Y-92622740D01*
X148007216Y-92468909D01*
X147793363Y-92354602D01*
X147561318Y-92284212D01*
X147380472Y-92266400D01*
X147259528Y-92266400D01*
X147078682Y-92284212D01*
X146846637Y-92354602D01*
X146632784Y-92468909D01*
X146445340Y-92622740D01*
X146296188Y-92804483D01*
X146296188Y-92696803D01*
X146845371Y-92147621D01*
X146845375Y-92147616D01*
X146882051Y-92110941D01*
X147078682Y-92170588D01*
X147259528Y-92188400D01*
X147380472Y-92188400D01*
X147561318Y-92170588D01*
X147793363Y-92100198D01*
X148007216Y-91985891D01*
X148194660Y-91832060D01*
X148348491Y-91644616D01*
X148462798Y-91430763D01*
X148533188Y-91198718D01*
X148556956Y-90957400D01*
X148533188Y-90716082D01*
X148462798Y-90484037D01*
X148348491Y-90270184D01*
X148194660Y-90082740D01*
X148007216Y-89928909D01*
X147793363Y-89814602D01*
X147561318Y-89744212D01*
X147380472Y-89726400D01*
X147259528Y-89726400D01*
X147078682Y-89744212D01*
X146846637Y-89814602D01*
X146632784Y-89928909D01*
X146445340Y-90082740D01*
X146291509Y-90270184D01*
X146177202Y-90484037D01*
X146106812Y-90716082D01*
X146083044Y-90957400D01*
X146106812Y-91198718D01*
X146166459Y-91395349D01*
X146129784Y-91432025D01*
X146129779Y-91432029D01*
X145449968Y-92111841D01*
X145430662Y-92127685D01*
X145367430Y-92204733D01*
X145352192Y-92233242D01*
X145320443Y-92292638D01*
X145291510Y-92388020D01*
X145281741Y-92487212D01*
X145284189Y-92512068D01*
X145284188Y-97155746D01*
X145281741Y-97180592D01*
X145284188Y-97205438D01*
X145284188Y-97205445D01*
X145291510Y-97279784D01*
X145320443Y-97375166D01*
X145367429Y-97463071D01*
X145430661Y-97540119D01*
X145449973Y-97555968D01*
X146009179Y-98115175D01*
X146009178Y-106157830D01*
X145710780Y-106456229D01*
X145691474Y-106472073D01*
X145628242Y-106549121D01*
X145609489Y-106584205D01*
X145581255Y-106637026D01*
X145562530Y-106698757D01*
X145204180Y-106698757D01*
X145204180Y-98998736D01*
X145206575Y-98974419D01*
X145204180Y-98950102D01*
X145204180Y-98950093D01*
X145197013Y-98877324D01*
X145168691Y-98783960D01*
X145136748Y-98724198D01*
X145122699Y-98697914D01*
X145076311Y-98641391D01*
X145076310Y-98641390D01*
X145060804Y-98622496D01*
X145041910Y-98606990D01*
X144439039Y-98004119D01*
X144502208Y-97795878D01*
X144525976Y-97554560D01*
X144502208Y-97313242D01*
X144431818Y-97081197D01*
X144317511Y-96867344D01*
X144163680Y-96679900D01*
X143976236Y-96526069D01*
X143762383Y-96411762D01*
X143530338Y-96341372D01*
X143349492Y-96323560D01*
X143228548Y-96323560D01*
X143047702Y-96341372D01*
X142815657Y-96411762D01*
X142601804Y-96526069D01*
X142433360Y-96664307D01*
X142433360Y-95904813D01*
X142601804Y-96043051D01*
X142815657Y-96157358D01*
X143047702Y-96227748D01*
X143228548Y-96245560D01*
X143349492Y-96245560D01*
X143530338Y-96227748D01*
X143762383Y-96157358D01*
X143976236Y-96043051D01*
X144163680Y-95889220D01*
X144317511Y-95701776D01*
X144431818Y-95487923D01*
X144502208Y-95255878D01*
X144525976Y-95014560D01*
X144502208Y-94773242D01*
X144431818Y-94541197D01*
X144317511Y-94327344D01*
X144163680Y-94139900D01*
X143976236Y-93986069D01*
X143762383Y-93871762D01*
X143530338Y-93801372D01*
X143349492Y-93783560D01*
X143228548Y-93783560D01*
X143047702Y-93801372D01*
X142815657Y-93871762D01*
X142601804Y-93986069D01*
X142433360Y-94124307D01*
X142433360Y-93364813D01*
X142601804Y-93503051D01*
X142815657Y-93617358D01*
X143047702Y-93687748D01*
X143228548Y-93705560D01*
X143349492Y-93705560D01*
X143530338Y-93687748D01*
X143762383Y-93617358D01*
X143976236Y-93503051D01*
X144163680Y-93349220D01*
X144317511Y-93161776D01*
X144431818Y-92947923D01*
X144502208Y-92715878D01*
X144525976Y-92474560D01*
X144502208Y-92233242D01*
X144431818Y-92001197D01*
X144317511Y-91787344D01*
X144163680Y-91599900D01*
X143976236Y-91446069D01*
X143765715Y-91333543D01*
X143920272Y-91278717D01*
X144170375Y-91129738D01*
X144386608Y-90934829D01*
X144560661Y-90701480D01*
X144685845Y-90438659D01*
X144730496Y-90291450D01*
X144609175Y-90061560D01*
X143416020Y-90061560D01*
X143416020Y-90081560D01*
X143162020Y-90081560D01*
X143162020Y-90061560D01*
X143142020Y-90061560D01*
X143142020Y-89807560D01*
X143162020Y-89807560D01*
X143162020Y-89787560D01*
X143416020Y-89787560D01*
X143416020Y-89807560D01*
X144609175Y-89807560D01*
X144730496Y-89577670D01*
X144685845Y-89430461D01*
X144560661Y-89167640D01*
X144386608Y-88934291D01*
X144170375Y-88739382D01*
X143920272Y-88590403D01*
X143765715Y-88535577D01*
X143976236Y-88423051D01*
X144163680Y-88269220D01*
X144317511Y-88081776D01*
X144431818Y-87867923D01*
X144502208Y-87635878D01*
X144525976Y-87394560D01*
X144502208Y-87153242D01*
X144431818Y-86921197D01*
X144317511Y-86707344D01*
X144163680Y-86519900D01*
X143976236Y-86366069D01*
X143762383Y-86251762D01*
X143530338Y-86181372D01*
X143349492Y-86163560D01*
X143228548Y-86163560D01*
X143047702Y-86181372D01*
X142815657Y-86251762D01*
X142601804Y-86366069D01*
X142433360Y-86504307D01*
X142433360Y-85744813D01*
X142601804Y-85883051D01*
X142815657Y-85997358D01*
X143047702Y-86067748D01*
X143228548Y-86085560D01*
X143349492Y-86085560D01*
X143530338Y-86067748D01*
X143762383Y-85997358D01*
X143976236Y-85883051D01*
X144163680Y-85729220D01*
X144317511Y-85541776D01*
X144431818Y-85327923D01*
X144502208Y-85095878D01*
X144525976Y-84854560D01*
X144502208Y-84613242D01*
X144431818Y-84381197D01*
X144317511Y-84167344D01*
X144163680Y-83979900D01*
X143976236Y-83826069D01*
X143762383Y-83711762D01*
X143530338Y-83641372D01*
X143349492Y-83623560D01*
X143228548Y-83623560D01*
X143047702Y-83641372D01*
X142815657Y-83711762D01*
X142601804Y-83826069D01*
X142433360Y-83964307D01*
X142433360Y-83546846D01*
X142439020Y-83547403D01*
X144139020Y-83547403D01*
X144213709Y-83540047D01*
X144285528Y-83518261D01*
X144351716Y-83482882D01*
X144409731Y-83435271D01*
X144457342Y-83377256D01*
X144492721Y-83311068D01*
X144514507Y-83239249D01*
X144521863Y-83164560D01*
X144521863Y-81464560D01*
X144514507Y-81389871D01*
X144492721Y-81318052D01*
X144457342Y-81251864D01*
X144409731Y-81193849D01*
X144351716Y-81146238D01*
X144285528Y-81110859D01*
X144213709Y-81089073D01*
X144139020Y-81081717D01*
X142439020Y-81081717D01*
X142433360Y-81082274D01*
X142433360Y-79950445D01*
X142554964Y-80132438D01*
X142907502Y-80484976D01*
X143322042Y-80761963D01*
X143782655Y-80952755D01*
X144271638Y-81050020D01*
X144770202Y-81050020D01*
X145259185Y-80952755D01*
X145719798Y-80761963D01*
X146134338Y-80484976D01*
X146486876Y-80132438D01*
X146763863Y-79717898D01*
X146954655Y-79257285D01*
X147051920Y-78768302D01*
X147051920Y-78269738D01*
X146954655Y-77780755D01*
X146763863Y-77320142D01*
X146486876Y-76905602D01*
X146134338Y-76553064D01*
X145936032Y-76420560D01*
X160885808Y-76420560D01*
X160687502Y-76553064D01*
G36*
X148405348Y-102591819D02*
G01*
X148514131Y-102700602D01*
X148642048Y-102786073D01*
X148784181Y-102844947D01*
X148935068Y-102874960D01*
X149088912Y-102874960D01*
X149231000Y-102846697D01*
X149231000Y-103234362D01*
X149121000Y-103223528D01*
X149006750Y-103226600D01*
X148848000Y-103385350D01*
X148848000Y-104684600D01*
X148868000Y-104684600D01*
X148868000Y-104938600D01*
X148848000Y-104938600D01*
X148848000Y-104958600D01*
X148594000Y-104958600D01*
X148594000Y-104938600D01*
X148574000Y-104938600D01*
X148574000Y-104684600D01*
X148594000Y-104684600D01*
X148594000Y-103385350D01*
X148435250Y-103226600D01*
X148321000Y-103223528D01*
X148270500Y-103228502D01*
X148270500Y-102660491D01*
X148378842Y-102552150D01*
X148405348Y-102591819D01*
X148405348Y-102591819D01*
G37*
X148405348Y-102591819D02*
X148514131Y-102700602D01*
X148642048Y-102786073D01*
X148784181Y-102844947D01*
X148935068Y-102874960D01*
X149088912Y-102874960D01*
X149231000Y-102846697D01*
X149231000Y-103234362D01*
X149121000Y-103223528D01*
X149006750Y-103226600D01*
X148848000Y-103385350D01*
X148848000Y-104684600D01*
X148868000Y-104684600D01*
X148868000Y-104938600D01*
X148848000Y-104938600D01*
X148848000Y-104958600D01*
X148594000Y-104958600D01*
X148594000Y-104938600D01*
X148574000Y-104938600D01*
X148574000Y-104684600D01*
X148594000Y-104684600D01*
X148594000Y-103385350D01*
X148435250Y-103226600D01*
X148321000Y-103223528D01*
X148270500Y-103228502D01*
X148270500Y-102660491D01*
X148378842Y-102552150D01*
X148405348Y-102591819D01*
G36*
X158279157Y-96874700D02*
G01*
X158286513Y-96949389D01*
X158308299Y-97021208D01*
X158343678Y-97087396D01*
X158391289Y-97145411D01*
X158449304Y-97193022D01*
X158515492Y-97228401D01*
X158587311Y-97250187D01*
X158662000Y-97257543D01*
X160276001Y-97257543D01*
X160276000Y-101199908D01*
X159985243Y-101490665D01*
X159985243Y-101417450D01*
X159973203Y-101295208D01*
X159937546Y-101177663D01*
X159879643Y-101069334D01*
X159801718Y-100974382D01*
X159712245Y-100900954D01*
X159726882Y-100899512D01*
X159846580Y-100863202D01*
X159956894Y-100804237D01*
X160053585Y-100724885D01*
X160132937Y-100628194D01*
X160191902Y-100517880D01*
X160228212Y-100398182D01*
X160240472Y-100273700D01*
X160237400Y-100071950D01*
X160078650Y-99913200D01*
X159029400Y-99913200D01*
X159029400Y-99933200D01*
X158775400Y-99933200D01*
X158775400Y-99913200D01*
X157726150Y-99913200D01*
X157567400Y-100071950D01*
X157564328Y-100273700D01*
X157576588Y-100398182D01*
X157612898Y-100517880D01*
X157671863Y-100628194D01*
X157751215Y-100724885D01*
X157847906Y-100804237D01*
X157958220Y-100863202D01*
X158077918Y-100899512D01*
X158092555Y-100900954D01*
X158030601Y-100951798D01*
X158001452Y-100946000D01*
X157847608Y-100946000D01*
X157696721Y-100976013D01*
X157554588Y-101034887D01*
X157426671Y-101120358D01*
X157317888Y-101229141D01*
X157316178Y-101231700D01*
X156747316Y-101231700D01*
X156722999Y-101229305D01*
X156698682Y-101231700D01*
X156698673Y-101231700D01*
X156625904Y-101238867D01*
X156532540Y-101267189D01*
X156446495Y-101313181D01*
X156371076Y-101375076D01*
X156355570Y-101393970D01*
X154483971Y-103265570D01*
X154465077Y-103281076D01*
X154449571Y-103299970D01*
X154449569Y-103299972D01*
X154403181Y-103356496D01*
X154357189Y-103442541D01*
X154344023Y-103485944D01*
X154342311Y-103486113D01*
X154309000Y-103496218D01*
X154296300Y-103492365D01*
X154296300Y-102518843D01*
X154507250Y-102518843D01*
X154629492Y-102506803D01*
X154747037Y-102471146D01*
X154855366Y-102413243D01*
X154950318Y-102335318D01*
X155028243Y-102240366D01*
X155086146Y-102132037D01*
X155121803Y-102014492D01*
X155133843Y-101892250D01*
X155133843Y-101404750D01*
X155121803Y-101282508D01*
X155086146Y-101164963D01*
X155028243Y-101056634D01*
X154950318Y-100961682D01*
X154860845Y-100888254D01*
X154875482Y-100886812D01*
X154995180Y-100850502D01*
X155105494Y-100791537D01*
X155202185Y-100712185D01*
X155281537Y-100615494D01*
X155340502Y-100505180D01*
X155376812Y-100385482D01*
X155389072Y-100261000D01*
X155386000Y-100059250D01*
X155227250Y-99900500D01*
X154178000Y-99900500D01*
X154178000Y-99920500D01*
X153924000Y-99920500D01*
X153924000Y-99900500D01*
X153904000Y-99900500D01*
X153904000Y-99646500D01*
X153924000Y-99646500D01*
X153924000Y-98809750D01*
X154178000Y-98809750D01*
X154178000Y-99646500D01*
X155227250Y-99646500D01*
X155386000Y-99487750D01*
X155388878Y-99298700D01*
X157564328Y-99298700D01*
X157567400Y-99500450D01*
X157726150Y-99659200D01*
X158775400Y-99659200D01*
X158775400Y-98822450D01*
X159029400Y-98822450D01*
X159029400Y-99659200D01*
X160078650Y-99659200D01*
X160237400Y-99500450D01*
X160240472Y-99298700D01*
X160228212Y-99174218D01*
X160191902Y-99054520D01*
X160132937Y-98944206D01*
X160053585Y-98847515D01*
X159956894Y-98768163D01*
X159846580Y-98709198D01*
X159726882Y-98672888D01*
X159602400Y-98660628D01*
X159188150Y-98663700D01*
X159029400Y-98822450D01*
X158775400Y-98822450D01*
X158616650Y-98663700D01*
X158202400Y-98660628D01*
X158077918Y-98672888D01*
X157958220Y-98709198D01*
X157847906Y-98768163D01*
X157751215Y-98847515D01*
X157671863Y-98944206D01*
X157612898Y-99054520D01*
X157576588Y-99174218D01*
X157564328Y-99298700D01*
X155388878Y-99298700D01*
X155389072Y-99286000D01*
X155376812Y-99161518D01*
X155340502Y-99041820D01*
X155281537Y-98931506D01*
X155202185Y-98834815D01*
X155105494Y-98755463D01*
X154995180Y-98696498D01*
X154875482Y-98660188D01*
X154751000Y-98647928D01*
X154336750Y-98651000D01*
X154178000Y-98809750D01*
X153924000Y-98809750D01*
X153765250Y-98651000D01*
X153351000Y-98647928D01*
X153226518Y-98660188D01*
X153106820Y-98696498D01*
X152996506Y-98755463D01*
X152899815Y-98834815D01*
X152820463Y-98931506D01*
X152761498Y-99041820D01*
X152725188Y-99161518D01*
X152712928Y-99286000D01*
X152713968Y-99354282D01*
X152590500Y-99477750D01*
X152590500Y-100122000D01*
X152610500Y-100122000D01*
X152610500Y-100376000D01*
X152590500Y-100376000D01*
X152590500Y-100396000D01*
X152336500Y-100396000D01*
X152336500Y-100376000D01*
X152316500Y-100376000D01*
X152316500Y-100122000D01*
X152336500Y-100122000D01*
X152336500Y-99477750D01*
X152275000Y-99416250D01*
X152275000Y-98948091D01*
X154692392Y-96530700D01*
X158279157Y-96530700D01*
X158279157Y-96874700D01*
X158279157Y-96874700D01*
G37*
X158279157Y-96874700D02*
X158286513Y-96949389D01*
X158308299Y-97021208D01*
X158343678Y-97087396D01*
X158391289Y-97145411D01*
X158449304Y-97193022D01*
X158515492Y-97228401D01*
X158587311Y-97250187D01*
X158662000Y-97257543D01*
X160276001Y-97257543D01*
X160276000Y-101199908D01*
X159985243Y-101490665D01*
X159985243Y-101417450D01*
X159973203Y-101295208D01*
X159937546Y-101177663D01*
X159879643Y-101069334D01*
X159801718Y-100974382D01*
X159712245Y-100900954D01*
X159726882Y-100899512D01*
X159846580Y-100863202D01*
X159956894Y-100804237D01*
X160053585Y-100724885D01*
X160132937Y-100628194D01*
X160191902Y-100517880D01*
X160228212Y-100398182D01*
X160240472Y-100273700D01*
X160237400Y-100071950D01*
X160078650Y-99913200D01*
X159029400Y-99913200D01*
X159029400Y-99933200D01*
X158775400Y-99933200D01*
X158775400Y-99913200D01*
X157726150Y-99913200D01*
X157567400Y-100071950D01*
X157564328Y-100273700D01*
X157576588Y-100398182D01*
X157612898Y-100517880D01*
X157671863Y-100628194D01*
X157751215Y-100724885D01*
X157847906Y-100804237D01*
X157958220Y-100863202D01*
X158077918Y-100899512D01*
X158092555Y-100900954D01*
X158030601Y-100951798D01*
X158001452Y-100946000D01*
X157847608Y-100946000D01*
X157696721Y-100976013D01*
X157554588Y-101034887D01*
X157426671Y-101120358D01*
X157317888Y-101229141D01*
X157316178Y-101231700D01*
X156747316Y-101231700D01*
X156722999Y-101229305D01*
X156698682Y-101231700D01*
X156698673Y-101231700D01*
X156625904Y-101238867D01*
X156532540Y-101267189D01*
X156446495Y-101313181D01*
X156371076Y-101375076D01*
X156355570Y-101393970D01*
X154483971Y-103265570D01*
X154465077Y-103281076D01*
X154449571Y-103299970D01*
X154449569Y-103299972D01*
X154403181Y-103356496D01*
X154357189Y-103442541D01*
X154344023Y-103485944D01*
X154342311Y-103486113D01*
X154309000Y-103496218D01*
X154296300Y-103492365D01*
X154296300Y-102518843D01*
X154507250Y-102518843D01*
X154629492Y-102506803D01*
X154747037Y-102471146D01*
X154855366Y-102413243D01*
X154950318Y-102335318D01*
X155028243Y-102240366D01*
X155086146Y-102132037D01*
X155121803Y-102014492D01*
X155133843Y-101892250D01*
X155133843Y-101404750D01*
X155121803Y-101282508D01*
X155086146Y-101164963D01*
X155028243Y-101056634D01*
X154950318Y-100961682D01*
X154860845Y-100888254D01*
X154875482Y-100886812D01*
X154995180Y-100850502D01*
X155105494Y-100791537D01*
X155202185Y-100712185D01*
X155281537Y-100615494D01*
X155340502Y-100505180D01*
X155376812Y-100385482D01*
X155389072Y-100261000D01*
X155386000Y-100059250D01*
X155227250Y-99900500D01*
X154178000Y-99900500D01*
X154178000Y-99920500D01*
X153924000Y-99920500D01*
X153924000Y-99900500D01*
X153904000Y-99900500D01*
X153904000Y-99646500D01*
X153924000Y-99646500D01*
X153924000Y-98809750D01*
X154178000Y-98809750D01*
X154178000Y-99646500D01*
X155227250Y-99646500D01*
X155386000Y-99487750D01*
X155388878Y-99298700D01*
X157564328Y-99298700D01*
X157567400Y-99500450D01*
X157726150Y-99659200D01*
X158775400Y-99659200D01*
X158775400Y-98822450D01*
X159029400Y-98822450D01*
X159029400Y-99659200D01*
X160078650Y-99659200D01*
X160237400Y-99500450D01*
X160240472Y-99298700D01*
X160228212Y-99174218D01*
X160191902Y-99054520D01*
X160132937Y-98944206D01*
X160053585Y-98847515D01*
X159956894Y-98768163D01*
X159846580Y-98709198D01*
X159726882Y-98672888D01*
X159602400Y-98660628D01*
X159188150Y-98663700D01*
X159029400Y-98822450D01*
X158775400Y-98822450D01*
X158616650Y-98663700D01*
X158202400Y-98660628D01*
X158077918Y-98672888D01*
X157958220Y-98709198D01*
X157847906Y-98768163D01*
X157751215Y-98847515D01*
X157671863Y-98944206D01*
X157612898Y-99054520D01*
X157576588Y-99174218D01*
X157564328Y-99298700D01*
X155388878Y-99298700D01*
X155389072Y-99286000D01*
X155376812Y-99161518D01*
X155340502Y-99041820D01*
X155281537Y-98931506D01*
X155202185Y-98834815D01*
X155105494Y-98755463D01*
X154995180Y-98696498D01*
X154875482Y-98660188D01*
X154751000Y-98647928D01*
X154336750Y-98651000D01*
X154178000Y-98809750D01*
X153924000Y-98809750D01*
X153765250Y-98651000D01*
X153351000Y-98647928D01*
X153226518Y-98660188D01*
X153106820Y-98696498D01*
X152996506Y-98755463D01*
X152899815Y-98834815D01*
X152820463Y-98931506D01*
X152761498Y-99041820D01*
X152725188Y-99161518D01*
X152712928Y-99286000D01*
X152713968Y-99354282D01*
X152590500Y-99477750D01*
X152590500Y-100122000D01*
X152610500Y-100122000D01*
X152610500Y-100376000D01*
X152590500Y-100376000D01*
X152590500Y-100396000D01*
X152336500Y-100396000D01*
X152336500Y-100376000D01*
X152316500Y-100376000D01*
X152316500Y-100122000D01*
X152336500Y-100122000D01*
X152336500Y-99477750D01*
X152275000Y-99416250D01*
X152275000Y-98948091D01*
X154692392Y-96530700D01*
X158279157Y-96530700D01*
X158279157Y-96874700D01*
M02*
